<?xml version="1.0" encoding="UTF-8"?><svg id="Layer_1" xmlns="http://www.w3.org/2000/svg" xmlns:xlink="http://www.w3.org/1999/xlink" viewBox="0 0 993.81 769"><defs><style>.cls-1{fill:#2b621f;}.cls-2{mask:url(#mask);}.cls-3{filter:url(#luminosity-noclip);}.cls-4{fill:#89ab48;}.cls-5{fill:#fefad7;}.cls-6{fill:#c4e772;}.cls-7{fill:#73ab45;}.cls-8{fill:#285d1e;}.cls-9{fill:#95c659;}.cls-10{fill:#245319;}.cls-11{fill:#c5e773;}.cls-12{fill:#a8d266;}.cls-13{fill:#5f881d;}.cls-14{fill:#71a944;}.cls-15{fill:#83d0c3;}.cls-16{fill:#a7bf41;}.cls-17{fill:url(#linear-gradient-3);}.cls-18{fill:url(#linear-gradient-2);}.cls-19{fill:#265a1c;}.cls-20{fill:#73ab44;}.cls-21{fill:#f7feff;}.cls-22{fill:#a3c860;}.cls-23{fill:#adcf65;}.cls-24{fill:#26581c;}.cls-25{fill:#719925;}.cls-26{fill:#2a5e1d;}.cls-27{fill:#96c75a;}.cls-28{fill:#74ab46;}.cls-29{fill:#fcfdc4;}.cls-30{fill:#97c85b;}.cls-31{fill:#6da642;}.cls-32{fill:#a7d166;}.cls-33{fill:#acce64;}.cls-34{fill:url(#linear-gradient);}.cls-35{fill:#adcf66;}.cls-36{fill:#fdfad7;}.cls-37{fill:#285d1d;}.cls-38{fill:#4b6b22;}.cls-39{fill:#fdf9d9;}.cls-40{fill:#c4e773;}.cls-41{fill:#acce65;}.cls-42{fill:#7cbea4;}.cls-43{fill:#fcfdc5;}.cls-44{fill:#d3e4f5;}.cls-45{fill:#256dc3;}.cls-46{fill:#accf64;}.cls-47{fill:#295d1d;}.cls-48{fill:#abd468;}.cls-49{fill:#a0ce5f;}.cls-50{fill:#c4e774;}.cls-51{fill:#c0d9f0;}.cls-52{fill:#5b963a;}.cls-53{fill:#b6ce32;}.cls-54{fill:#78b047;}.cls-55{fill:#cfc5c1;}.cls-56{fill:#3e6d13;}.cls-57{fill:#4d9ccd;}.cls-58{fill:#8dc055;}.cls-59{fill:#fff;}.cls-60{fill:#fefbdc;}.cls-61{fill:#172758;}.cls-62{fill:#a9d268;}.cls-63{fill:#538f37;}.cls-64{fill:#cfe579;}.cls-65{fill:#81bedb;}.cls-66{fill:#508d36;}.cls-67{fill:#75ac45;}.cls-68{fill:#426c16;}.cls-69{fill:#abce64;}.cls-70{fill:#c4e873;}.cls-71{fill:#285f1e;}.cls-72{fill:#a3c637;}.cls-73{fill:#c4e874;}.cls-74{fill:#5f993c;}.cls-75{fill:#2a5d1e;}.cls-76{fill:#5f993b;}.cls-77{fill:#8cbf54;}.cls-78{fill:#66b7de;}.cls-79{fill:#91c359;}.cls-80{fill:#9cc55c;}.cls-81{fill:#91af34;}.cls-82{fill:#235fa9;}.cls-83{fill:#2a5f1e;}.cls-84{fill:#f9f5f4;}.cls-85{fill:#2a6220;}.cls-86{fill:#d2df5b;}.cls-87{fill:#fcfdc3;}.cls-88{fill:#99c95c;}.cls-89{fill:#1753a6;}.cls-90{fill:#c5e874;}.cls-91{fill:#a6d363;}.cls-92{fill:#fdf8d8;}.cls-93{fill:#74ac45;}.cls-94{fill:#add066;}.cls-95{fill:#aacd64;}.cls-96{fill:#fdfadb;}.cls-97{fill:#609b3c;}.cls-98{fill:#5b953b;}.cls-99{fill:#c2e673;}.cls-100{fill:#fcf7d8;}.cls-101{fill:#2b5f1d;}.cls-102{fill:#9ed2ea;}.cls-103{fill:#90c2ea;}</style><linearGradient id="linear-gradient" x1="580.61" y1="295.64" x2="593.33" y2="332.7" gradientTransform="translate(85.3 -34.89) scale(1.24)" gradientUnits="userSpaceOnUse"><stop offset="0" stop-color="#73ab45"/><stop offset="1" stop-color="#599439"/></linearGradient><linearGradient id="linear-gradient-2" x1="320.62" y1="520.86" x2="354.44" y2="533.2" gradientTransform="translate(85.3 -34.89) scale(1.24)" gradientUnits="userSpaceOnUse"><stop offset="0" stop-color="#76ad46"/><stop offset="1" stop-color="#5a9439"/></linearGradient><filter id="luminosity-noclip" x="-185.72" y="0" width="1366" height="769" color-interpolation-filters="sRGB" filterUnits="userSpaceOnUse"><feFlood flood-color="#fff" result="bg"/><feBlend in="SourceGraphic" in2="bg"/></filter><linearGradient id="linear-gradient-3" x1=".76" y1="384.5" x2="993.81" y2="384.5" gradientUnits="userSpaceOnUse"><stop offset="0" stop-color="#fff"/><stop offset="0" stop-color="#f5f5f5"/><stop offset="0" stop-color="#c7c7c7"/><stop offset="0" stop-color="#9c9c9c"/><stop offset="0" stop-color="#777"/><stop offset="0" stop-color="#565656"/><stop offset="0" stop-color="#3b3b3b"/><stop offset="0" stop-color="#252525"/><stop offset=".01" stop-color="#141414"/><stop offset=".01" stop-color="#080808"/><stop offset=".02" stop-color="#010101"/><stop offset=".03" stop-color="#000"/><stop offset=".97" stop-color="#000"/><stop offset=".98" stop-color="#010101"/><stop offset=".99" stop-color="#080808"/><stop offset=".99" stop-color="#141414"/><stop offset=".99" stop-color="#252525"/><stop offset=".99" stop-color="#3b3b3b"/><stop offset=".99" stop-color="#565656"/><stop offset="1" stop-color="#777"/><stop offset="1" stop-color="#9c9c9c"/><stop offset="1" stop-color="#c7c7c7"/><stop offset="1" stop-color="#f5f5f5"/><stop offset="1" stop-color="#fff"/></linearGradient><mask id="mask" x="-185.72" y="0" width="1366" height="769" maskUnits="userSpaceOnUse"><g class="cls-3"><rect class="cls-59" x="-185.72" y="0" width="1366" height="769"/><rect class="cls-17" x=".76" width="993.05" height="769"/></g></mask></defs><g id="Generative_Object"><path class="cls-29" d="M847.93,124.68c-.45,3.53-5.38,4.09-5.09,7.88l-65.35,54.72c-11.21,9.39-30.27,21.71-19.5,34.32,6.55,7.67,13.89,14.76,19.34,23.75,11.89,19.6,11.81,37.14-4.52,53.6-4.96,4.99-9.29,9.06-15.18,13.64l-89.47,69.62c-14.7,11.44,6.65,24.43,16.86,38.32,9.1,12.38,7.93,28.11-3.61,39.4-30.71,30.04-63.34,57.46-96.89,84.95-6.99,5.73-12.53,10.4-21.25,13.71l31.68,29.93c16.18,15.29,24.31,36.3,19.99,59.53l17.58-6.94,32.49-10.26c20.25-6.39,40.06-12.3,58.84-23.08,19.35-11.11,35.36-24.52,48.92-41.54l18.25-22.9c-9.56-34.4-8.68-61,15.04-88.79,28.67-33.6,78.17-68.55,101.11-118.9l20.87-45.82c11.48-25.19,24.4-48.72,38.4-71.6,2.38,1.79,5.44,2.2,7.55,5.23-17.75,29.37-33.3,59.51-46.72,91.53-14.4,34.37-33.62,65.47-60.4,91.56l-38.98,37.98c-11.17,10.88-21.7,22.09-27.91,36.39-8.7,20.04-9.16,64.39,14.38,72.43l-5.16,7.53c-4.84-2-8.54-6.18-13.46-9.48-13.4,17.74-26.48,35.22-44.61,49.05-34.52,26.33-61.18,32.13-101.04,43.98s-74.35,32.61-104.01,61.22c-13.79,13.3-25.09,26.6-33.69,43.33-.71,1.39.31,2.31.16,3.25l-14.71,3.61c21.12-45.07,62.85-78.96,106.46-103.07,12.75-51.92-25.38-59.07-52.33-93.18-9.59-1.42-17.67-5.79-25.79-11.08l-32.92-21.46-50.09,43.79-108.57,95.48c-7.28,6.4-14.28,12.78-23.75,14.3-12.5,2-23.97-2.26-34.74-8.7-19.56-11.7-36.82-25.18-55.8-38.54l-30.66,27.89c-4.41,4.01-10.34,6.87-11.47,12.09-1.42-.36-2.07,1.52-3.48,1.35-2.77-.88-4.46-3.32-6.82-6.23,17.97-14.82,34.34-29.99,51.35-46.28l50.68,36.21c10.49,7.5,21.7,13.79,34.87,14.8,6.46.49,13.31-4.37,18.36-8.8l76.31-67.02,92.89-80.87,38.28,25c7.64,4.99,15.58,9.04,25.23,9.18,13.92.2,105.8-81.91,113.24-90.17l6.46-7.17c23.88-26.52-21.26-40.08-21.51-63.21-.06-5.73,4.35-11.25,8.65-14.59l90.2-70.14c15.89-12.35,31.69-28.21,20.37-50.17-12.37-23.99-36.91-33.31-25.04-51.15,6.11-9.18,14.78-15.94,23.75-23.32,23.06-18.99,45.54-37.3,66.94-58.02,3.26.85,5.56,1.64,8.98,1.95Z"/><path class="cls-6" d="M814.38,553.33c-23.53-8.04-23.08-52.39-14.38-72.43,6.21-14.3,16.74-25.51,27.91-36.39l38.98-37.98c26.78-26.09,46-57.18,60.4-91.56,13.41-32.02,28.96-62.16,46.72-91.53.55.79,22.55,14.46,19.51,36.71-1.26,9.24-4.82,16.77-10.08,25.08l-137.11,216.9-31.95,51.19Z"/><path class="cls-6" d="M210.5,606.6c-16.18,15.82-32.71,31.37-50.26,46.23-2.14,1.81-4.37,2.65-6.71,3.04l-34.19-74.08-56.87-128.56,51.16-15.44c6.25,40.05,26.89,90.11,51.02,121.96,12.44,15.78,26.6,28.23,42.01,40.88,2.22,1.82,4.92,3.63,3.84,5.97Z"/><path class="cls-87" d="M685.8,17.86c-34.4,17.62-45.17,28.51-86.59,33.7-42.47,5.31-55.01,41.01-73.08,72.74-19.61,34.45-59.34,34.56-83.7,52.58-12.81,9.48-19.64,24.36-22.07,39.59-3.51,21.96-14.35,32.42-33.01,43.94l21.37,16.94c-2.17,2.3-4.21,5.52-7.53,7.58.83-3.5-19.91-16.53-24.35-22.01l-43.7-.86c-16.91-.33-32.46,3.31-47.24,11.41-12.2,6.68-23.46,13.43-34.18,22.19-20.89,17.07-23.91,30.61-42.95,48.95l49.01,10.87c-.41,3.13.3,6.52.6,9.63l-57.02-13.55-35.06,21.34c-16.24,9.88-37.59,20.97-42.16,40.66-6.07,26.1,7.68,62.58,17.4,86.21,8.51,20.68,18.56,40.26,32.99,57.56,4.9,5.88,9.47,11.76,15.29,16.91l26.85,23.71c.9.79,1.99-.16,2.58.03-2.87,2.3-5.73,5.71-8.73,8.64,1.07-2.34-1.62-4.15-3.84-5.97-15.41-12.65-29.57-25.1-42.01-40.88-24.13-31.85-44.77-81.91-51.02-121.96l-51.16,15.44c-1.05-2.37-3.9-4.74-2.85-7.72.58-1.89,3.27-2.24,5.29-2.86,16.16-4.98,31.88-9.57,48.61-13.78-1.13-19.59,7.69-36.31,23.82-47.84,19.76-14.11,58.91-33.64,71.13-48.9l26.93-33.63c13.25-16.54,32.84-26.38,51.8-35.57,22.05-10.68,50.11-10.5,74.26-8.48,11.25.94,21.41-.46,30.27-7.42s16.84-15.26,18.64-26.95c10.45-67.82,59.91-56.2,95.76-85.26,7.17-5.81,11.41-13.54,15.44-21.49,50.11-98.67,75.81-52.59,134.53-89.4,3.24-2.03,17.78-8.98,17.44-13.27,3.67,2.32,8.6,5.31,12.25,7.21Z"/><path class="cls-90" d="M673.55,10.66c.34,4.29-14.2,11.24-17.44,13.27-58.72,36.81-84.42-9.27-134.53,89.4-4.03,7.94-8.27,15.68-15.44,21.49-35.86,29.06-85.31,17.45-95.76,85.26-1.8,11.69-9.89,20.07-18.64,26.95s-19.01,8.36-30.27,7.42c-24.15-2.01-52.21-2.2-74.26,8.48-18.96,9.19-38.55,19.03-51.8,35.57l-26.93,33.63c-12.22,15.26-51.37,34.79-71.13,48.9-16.14,11.52-24.96,28.25-23.82,47.84-16.74,4.21-32.46,8.8-48.61,13.78-2.02.62-4.71.97-5.29,2.86-16.94-34.65-31.88-70.51-47.11-106.81-5.84-13.92-10.25-27.51-11.5-42.77-1.55-18.95,4.17-38.63,16.31-53.33,8.61-10.43,20.2-17.56,32.87-22.45l175.31-67.68,161.93-61.85,142.66-53.86,86.09-32.67c20.17-7.65,40.48-4.12,57.37,6.55Z"/><path class="cls-14" d="M121.93,304.37c-5.66,1.38-14.18,6.41-16.63,12.97-2.21,5.93.91,25.12-2.02,24.52l-.17-22.37c0-1.18-2.13-1.57-2.93-1.53-6.64.32-.37,28.84-4.38,31.18-8.63,1.04-16.95-2.58-23.22-9.05-5.65-5.85-9.2-16-6.4-23.86,2.23-6.25,7.38-10.29,12.41-14.15-.46-10.13.4-21.93,10.11-27.87,12.48-7.63,29.94.5,33.09,14.12,1.41,6.08,2.3,11.25.14,16.04Z"/><path class="cls-20" d="M400.16,140.14c-2.24,1.49-2.21,3.27-2.7,6.11-1.03,5.96-13.68,18.32-16.7,17.6.14-1.25-.29-2.79-.97-4.1-.45-.86-2.08-1.45-3.58-.68-.84.43-1.91,1.46-1.94,3.39l-.29,19.65c-12.88.84-25.38-6.55-29.44-19.53-3.22-10.29,2.18-19.26,12.29-22.2-1.69-11.24,2.38-23.13,12.13-28.93,7.63-4.54,17.77-2.56,23.92,3.24,5.83,5.5,8.94,14.35,6.2,23.09-.38,1.22,1.2,1.55,1.07,2.36Z"/><path class="cls-7" d="M286.08,212.21c-3.89-3.48,2.33-15.63-4.34-17.63-.62-.19-2.66.26-2.71,1.6l-.65,15.89c-2.59.17-5.97-1.13-5.9,1.11-6.85-.56-17.59-10.08-19.3-17.92-2.52-11.6,2.03-14.69,8.31-21.5,4.14-4.48,4.59-13.2,12.73-16.18,6.54-2.39,13.13-2.05,19.69,1.96,5.78,3.53,6.27,10.34,10.07,16.12,5.18,7.87,12.86,16.45,5,26.18-5.26,6.52-14.65,10.39-22.9,10.37Z"/><path class="cls-7" d="M225.53,224.83c-5.41,5.28-3.34,2.24-12.34,4.73.38,5.46-2.93,10.44-2.9,15.32v17.84l-1,1.18-.14-18.6c-.01-1.85-1.94-2.74-2.91-2.61-.71.09-2.93.14-2.94,1.46l-.32,26.75c-3.18-.1-5.75-1.05-5.95,1.03-11.97-3.76-24.06-8.72-23.4-25.47.3-7.66,3.47-13.36,9.86-17.87,1.54-4.35,1.34-10.85,3.5-15.2,5.09-10.25,14.76-14.36,25.34-11.24,9.41,2.77,13.78,12.85,13.22,22.69Z"/><path class="cls-67" d="M493.58,109.14c-.91-1.19-.99-2.66-.91-5.16.04-1.31-2.81-1.14-3.89-.94-1.91.36-.31,2.9-1.98,4.76-3.52-.99-9.21.51-12.81-2.47-8.16-13.5-2.92-32.09,11.22-39.42,5.35-2.77,11.48-.89,15.86,1.85,9.82,6.15,12.12,29.39,5.03,37.19-2.95,3.25-7.9,3.5-12.54,4.19Z"/><path class="cls-74" d="M121.62,304.37c6.59,3.75,11.69,9.55,12.43,17.58,1.01,11-3.5,20.51-13.85,24.81-5.3,2.2-10.69,3-15.99,2.51-2.35-1.61-1.22-5.08-1.24-7.42,2.93.6-.19-18.59,2.02-24.52,2.45-6.56,10.97-11.59,16.63-12.97Z"/><path class="cls-52" d="M226.02,224.65l-.27,4.67c9.81,5.61,12.36,16.35,9.64,27.23-3.62,14.5-16.29,14.63-26.11,17.26v-9.9c.67.2,1.34-.12,1-1.18v-17.68c.2-4.97,3.57-10.04,3.18-15.59,9.15-2.54,7.05.56,12.56-4.81Z"/><path class="cls-63" d="M383.83,181.96c.1-1.3-1.14-1.02-3.63-.89-.05-5.76-.38-11.52.28-17.22,3.02.72,15.68-11.64,16.7-17.6.49-2.85.46-4.62,2.7-6.11,10.24,4.57,13.06,22.98,4.56,33.38-4.16,5.09-14.96,8.53-20.62,8.45Z"/><path class="cls-77" d="M138.57,239.18c-4.09,6.89-11.55,11.52-19.33,10.82-7.71-.7-13.64-7.07-12.07-14.06,1.31-5.87,5.61-10.31,9.64-12.35,6.09-3.09,12.47-2.89,18.37.6,4.97,2.94,6.44,9.88,3.4,15Z"/><path class="cls-23" d="M202.84,294.52c1.4.38,3.89.76,5.65-.03,1.2-.54,1.4-3.38,1.25-4.75,3.73-.91,8.07-1.07,11.85,1.58,1.82,1.28,3.05,3.76,2.56,5.35-3.26,10.44-35.29,6.91-36.04.29-.65-5.71,8.74-9.79,12.77-7.67.23,1.18-.15,3.63.19,4.48.24.61.66.52,1.78.76Z"/><path class="cls-33" d="M379.33,207.03c1.58-2.64.55-5.81.78-8.7,3.76.6,8.02-.05,11.96,2.92,2.04,1.54,1.94,5.11,1.01,6.89-4.12,7.84-22.66,5.04-30.25,3.68-3.45-.62-5.57-2.2-5.47-5.46.16-5.22,11.91-8.61,14.75-5.67.73.75-.89,4.29-.68,5.44.19,1.02,2.12,1.6,3.65,1.38.63-.09,1.94.84,2.9.76.63-.06,1.33-.1,1.35-1.24Z"/><path class="cls-69" d="M99.26,371.55c.75.26,2.61.37,3.46-.23.39-2.11.4-4.02.45-5.76,4.03-.21,9.58-1.14,13.04,2.73,7.8,8.73-15.35,12.33-24.26,11.61-4.83-.39-6.62-4.1-6.41-7.84.2-3.44,5.99-7.53,8.51-4.37,1.19,1.49-.91,4.4,1.61,4,1.37-.22,3.33,2.31,3.59-.14Z"/><path class="cls-19" d="M210.28,263.91v9.9s-1.13,10.64-.54,15.92c.15,1.37-.05,4.21-1.25,4.75-1.76.79-4.25.41-5.65.03.63-7.03.36-14.22.21-21.78-3.15-.57-4.73.25-6.05-.16.21-2.12,6.28-1.05,6.28-1.05l.32-27.38c.02-1.28,2.17-1.33,2.86-1.42.94-.12,2.81.74,2.83,2.53l1,18.65Z"/><path class="cls-1" d="M103.45,341.86c.02,2.34-1.11,5.81,1.24,7.42-2.49,4.91-.87,10.85-1.04,16.29-.05,1.75-.06,3.65-.45,5.76-.85.59-2.71.49-3.46.23-5.34,2.96-.17-19.41-3.77-22.42,4.01-2.34-2.26-30.86,4.38-31.18.81-.04,2.92.35,2.93,1.53l.17,22.37Z"/><path class="cls-35" d="M283.89,239.22c1.03-2.37,1.4-5.03,1.32-7.65,5.35.42,12.58.07,14.96,6.54-9.38,8.07-25.24,10.07-34.81,2.38-2.84-2.28,2.89-8.07,5.34-7.78s7.63.57,6.14,4.91c-.59,1.71,1.59,2.46,2.69,2.69,1.79.37,3.7.45,4.37-1.09Z"/><path class="cls-71" d="M380.48,163.85c-.66,5.7-.33,11.46-.28,17.22,2.48-.12,3.73-.41,3.63.89-5.94-.09-3.08,8.4-3.71,16.37-.23,2.89.8,6.06-.78,8.7-1.54-.16-3.1.27-5.05-.41v-44.16c-.26-1.94.82-2.97,1.65-3.39,1.5-.76,3.13-.18,3.58.68.68,1.31,1.11,2.85.97,4.1Z"/><path class="cls-24" d="M286.08,212.21c-2.3,6.07-1.06,12.91-.87,19.35.08,2.62-.3,5.28-1.32,7.65l-5.14-.39c-.64-7.96.71-16.12-.53-24.03-.38-2.44-4.27-1.49-5.75-1.61-.07-2.24,3.31-.94,5.9-1.11l.65-15.89c.06-1.34,2.1-1.79,2.71-1.6,6.66,2,.45,14.15,4.34,17.63Z"/><path class="cls-10" d="M493.58,109.14c-2.21,6.04.07,13.14-1.16,19.8-.35,1.9-4.03,1.76-4.38-.14-1.41-7.46,1.24-14.62-1.22-21,1.66-1.86.06-4.4,1.98-4.76,1.08-.2,3.93-.37,3.89.94-.09,2.49,0,3.96.91,5.16Z"/><path class="cls-73" d="M842.85,132.56c41.63,27.75,83.71,55.54,123.61,85.67-14,22.88-26.92,46.41-38.4,71.6l-20.87,45.82c-22.94,50.34-72.43,85.29-101.11,118.9-23.72,27.8-24.6,54.39-15.04,88.79l-18.25,22.9c-13.56,17.02-29.57,30.42-48.92,41.54-18.78,10.78-38.59,16.69-58.84,23.08l-32.49,10.26-17.58,6.94c4.31-23.22-3.81-44.24-19.99-59.53l-31.68-29.93c8.72-3.31,14.26-7.98,21.25-13.71,33.55-27.49,66.18-54.91,96.89-84.95,11.54-11.29,12.7-27.03,3.61-39.4-10.2-13.89-31.56-26.88-16.86-38.32l89.47-69.62c5.89-4.58,10.22-8.65,15.18-13.64,16.34-16.45,16.41-33.99,4.52-53.6-5.45-9-12.79-16.08-19.34-23.75-10.77-12.61,8.29-24.93,19.5-34.32l65.35-54.72Z"/><path class="cls-34" d="M826.65,392.77c-1.12-2.57-4.82-.88-7.37-.94l-.29-28.97c-.01-1.45-2.15-2.04-2.87-1.83s-2.82.77-2.84,2.1l-.35,28.19c-1.17.28-2.57-.07-2.44,1.32-10.05.63-19.79-4.02-26.46-11.99-5-5.97-8.01-16.05-3.13-22.68l7.28-9.9c-.46-13.14,5.74-25.08,17.21-31.37,7.22-3.96,22.85-3.76,30.46,3.74,10.82,10.66,5.92,24.59,6.37,26.11.89,2.94,4.98,4.11,6.37,6.9,4.22,8.44,4.33,17.85-1.22,27.01-3.85,6.34-12.1,10.89-20.73,12.32Z"/><path class="cls-76" d="M853.98,256.49c-1.61-2.65-5.71-.81-8.55-.95-1.32-5.54,2.93-26.47-4.35-22.51-4.43,2.41.08,20.84-2.99,23.57-8.36.8-16.81-.73-23.36-6.45-6.23-5.44-8-11.91-7.91-19.9.07-6.94,8.97-10.69,11.08-16.15,3.45-8.93,2.99-18.81,11.43-25.91,8.25-6.94,19.85-8.99,28.57-1.17,4.11,3.68,4.68,10.62,6.42,15.19,14.74,7.41,16.52,32.17,8.86,43.02-3.9,5.53-11.11,10.75-19.2,11.26Z"/><path class="cls-93" d="M742.11,497.65c-.51-.3-1.96.18-1.9.7.06.48,2,1.87,1.59,2.99-2.2,6.01-9.98,2.34-13.86,2.81-5.22,4.31-8.03,13.86-15.37,16.37.84,2.09,1.61,2.5,1.59,3.19-.02.75-.76,1.28-1.01,2.5-1.12,5.58,1.2,11.04-1.23,15.67-8.86-.86-18.7-3.76-22.69-13.31-4.8-11.48-2.46-24.95,3.49-34.87,6.72-11.21,18.78-14.76,31.39-12.12,8.89,1.86,15.36,8.05,17.99,16.06Z"/><path class="cls-31" d="M644.89,589.31c.08-3.01.27-6.3-.31-9.82-.26-1.6-3.01-1.61-3.98-1.28-3.33,1.15-.99,8.78-2.14,10.83-6.19-.79-13.6-2.83-16.79-9.76-6.62-14.38,1.85-32.1,17.07-36.54,14.13-4.12,27.28,4.4,29.82,16.81,1.65,8.08,1.23,16.74-4.81,22.6-5.25,5.1-12.26,6.21-18.86,7.15Z"/><path class="cls-54" d="M741.43,423.2c.32-1.8-1.1-5.34-3.68-5.13-2.96.25-2.65,3.16-2.55,5.45-.79-.27-1.87.15-2.55-.02-9.95-2.43-16.42-10.17-15.3-20.99,1.2-11.64,9.72-19.93,21.6-18.89,6.91.61,13.4,3.97,16.67,8.92,4.36,6.62,3.89,14.26.54,21.11-3.04,6.21-8.48,9.59-14.72,9.55Z"/><path class="cls-97" d="M742.11,497.65c1.05,3.19,2.53,6.12,3.45,9.93,3.8,15.79-4.94,29.49-20.16,33.1-.86-1.44-2.97-.89-5.98-.63l-.53-13.9c-.09-2.37-3.32-2.49-4.73-2.44.02-.69-.75-1.11-1.59-3.19,7.34-2.5,10.15-12.06,15.37-16.37,3.89-.47,11.66,3.2,13.86-2.81.41-1.12-1.53-2.51-1.59-2.99-.07-.52,1.39-1,1.9-.7Z"/><path class="cls-58" d="M915.36,268.89c-7.5,4.74-25.76,4.56-29.04-2.03-1.78-3.58-1.8-6.68-.16-10.49,2.78-6.5,9.35-10.88,15.62-11.49,7.3-.71,15.16,2.33,18.82,9.05,2.92,5.38.16,11.55-5.24,14.95Z"/><path class="cls-94" d="M841.61,283.95c.58-.09,2.1.19,2.75-.25,1.39-.93,1.2-12.95,1.38-11.25,5.09.14,15.2-.52,16.11,6.32,1.2,8.99-25.03,13.69-40.12,8.81-2.53-.82-9.23-.34-9.42-3.46-.31-4.88,5.12-3.2,7.13-3.89,5.56-1.89,10.8-6.11,17.22-5.12l1.8,9.66c1.67-1.23,2.93,1.06,3.15-.82Z"/><path class="cls-46" d="M812.66,414.91c.8,3.24,4.32,3.49,6.6,2.78,3.03-.25.49-4.15,1.5-7.28,2.2-1.66,11.74-.21,11.17,4.34-1.55,12.4-39.21,13.43-36.42,1.98.75-3.06,9.85-9.02,14.94-6.91.75.31.34,3.41.25,4.22-.07.68.8.97,1.97.87Z"/><path class="cls-83" d="M826.76,392.58c-2.11.35-6.48.55-6.48.55l-.32,25.9c-2.48.78-6.3.5-7.17-3.02.08,1.3,2.45-31.25-2.15-24.4-.14-1.51,1.37-1.13,2.63-1.43l.35-27.09c.02-1.32,2.09-1.87,2.81-2.08s2.83.37,2.84,1.81v28.84s6.37-1.62,7.48.94Z"/><path class="cls-69" d="M712.55,554.55c.03,1.77.29,3.97.71,6.32.32,1.8,4.02,1.66,4.8.52.69-1.02,1.71-3.11,1.52-4.6,2.2-1.77,5.62-.75,8.14-.5,2.09.21,6.13,4.42,4.54,6.3-4.04,4.79-11.26,7.58-17.22,8.49-6.43.99-13.26-3.19-18.06-7.38,7.02-6.54,9.16-3.38,15.57-9.16Z"/><path class="cls-101" d="M853.98,256.49l-8.4.54c-.52,5.42-.38,10.43.15,15.42-.18-1.69.01,10.32-1.38,11.25-.65.44-2.17.16-2.75.25-.53-.42-1.5-.07-2.55-.38.34-9.02.27-18.35-.96-26.97,3.07-2.73-1.44-21.16,2.99-23.57,7.28-3.97,3.04,16.97,4.35,22.51,2.83.14,6.94-1.69,8.55.95Z"/><path class="cls-95" d="M631.68,607.53c1.79-.94,3.01-1.44,4.02-1.15,2.3.67,1.04,3.66.82,5.69,1.83,1.62,8.05,1.38,9.5-1.51.89-1.79-1.19-4.69,1.22-5.12,3.62-.64,11.87.72,11.85,4.8-1.25,9.64-27.42,14.15-31.02,6.3-1.46-3.18-.57-6.79,3.61-9Z"/><path class="cls-23" d="M735.21,423.51c.39,8.68-1.99,20.44,3.16,19.56,3.11-.53.93-4.15,2.28-6.96,4.35-.02,8.92-1.08,13.62.82,1.18,4.46-2.9,9.3-7.93,9.61-2.33.14-23.63.88-20.41-3.21.79-1.01.75-2.97,2.11-3.99,1.56-1.17,3.42-1.28,4.51-2.44,2.91-3.11-.5-7.67.13-13.4.68.17,1.76-.25,2.55.02Z"/><path class="cls-75" d="M725.4,540.68c-1.91.45-3.76.32-6.01.58-.5,5.59-.45,10.62.19,15.54.19,1.49-.83,3.58-1.52,4.6-.78,1.14-4.48,1.28-4.8-.52-.42-2.35-.69-4.55-.71-6.32-.06-4.14,1.7-8.98-.63-12.67,2.44-4.63.11-10.09,1.23-15.67.25-1.23.98-1.75,1.01-2.5,1.4-.05,4.64.06,4.73,2.44l.53,13.9c3.01-.26,5.12-.81,5.98.63Z"/><path class="cls-37" d="M644.89,589.31c-.2,7.35.48,15.04-.18,22.1-2.35.14-4.62,1.13-5.32-.12-1.55-2.77-.06-18.46-.92-22.24,1.15-2.05-1.2-9.69,2.14-10.83.97-.33,3.71-.32,3.98,1.28.58,3.52.39,6.8.31,9.82Z"/><path class="cls-26" d="M741.43,423.2c-.87,4.91-1.09,8.94-.79,12.91-1.35,2.81.83,6.43-2.28,6.96-5.15.89-2.76-10.88-3.16-19.56-.1-2.29-.41-5.2,2.55-5.45,2.58-.21,4,3.33,3.68,5.13Z"/><path class="cls-40" d="M401.18,284.93c-4.62,2.87-9.33,4.99-15.27,5.66-36.17,4.12-71.31,12.91-105.92,25.31-19.86,7.11-20.25,24.31-22.22,39.56l-49.01-10.87c19.05-18.34,22.07-31.88,42.95-48.95,10.72-8.76,21.98-15.51,34.18-22.19,14.77-8.09,30.33-11.74,47.24-11.41l43.7.86c4.44,5.48,25.18,18.52,24.35,22.01Z"/><path class="cls-43" d="M752.91,163.9l56.05-46.8c-1.95-2.42-3.38-3.85-3.21-5.95.32-3.92,5.42-3.84,3.62-6.79,2.89,4.46,8.61,6.95,13.35,10.48-3.64,4.72-8.16,8.87-13.12,13.08l-49.38,41.95c-3.42-.74-6.36-3.72-7.31-5.97Z"/><path class="cls-11" d="M497.87,755.81c-38.46,9.43-64.56,16.95-105.4.68l-81.69-32.55c-22.4-8.92-43.25-17.83-65.93-25.37-22.89-7.6-45.19-15.34-66.63-25.24,1.13-5.23,7.06-8.08,11.47-12.09l30.66-27.89c18.98,13.35,36.23,26.83,55.8,38.54,10.77,6.44,22.24,10.7,34.74,8.7,9.47-1.52,16.47-7.89,23.75-14.3l108.57-95.48,50.09-43.79,32.92,21.46c8.11,5.29,16.2,9.66,25.79,11.08,26.95,34.11,65.08,41.26,52.33,93.18-43.61,24.11-85.33,58-106.46,103.07Z"/><path class="cls-18" d="M517.45,656.12c-1.7-2.63-5.93-1.05-8.98-.46l-.52-28.78c-.03-1.43-2.48-1.98-3.47-1.44-.86.47-2.4,1.53-2.4,3.48,0,9.56,0,18.44-.63,27.23-15.58,2.03-30.88-5.99-35.89-20.46-5.14-14.86,3.3-22.19,10.91-31.27,5.74-6.86,4.96-18.14,14.12-23.59,10.84-6.45,24.01-7.22,33.56,3.44,4.89,5.45,4.11,13.73,6.86,18.98,2.43,4.65,9.88,6.72,11.52,13.28,2.34,9.37,2.36,18.74-3.91,27.46-4.32,6-12.47,11.47-21.15,12.13Z"/><path class="cls-28" d="M419.95,705.39c-14.57,4.48-30.64-1.54-36.02-15.76-4.2-11.11.88-21.8,10.92-27.83,13.75-8.26,33.67-4.69,43.01,8.95,5.42,7.91,5.06,17.62.08,24.49-4.34,5.99-10.72,7.92-17.99,10.15Z"/><path class="cls-41" d="M502.23,675.64c2.44,2.19,4.43,1.6,6.38.4,2.68-1.64,1.04-5.09,1.32-8.39,4.23.06,9.53,1.06,11.76,4.8,1.05,1.76-1.43,4.8-3.15,5.67-14.54,7.37-6.5,6.57-28.27,6.64-3.07,0-5.67-1.94-6.59-3.85s-1.03-4.94,1.18-6.75c3.51-2.88,9.51-4.62,13.76-4.05,1.53.98.89,5.7,3.6,5.53Z"/><path class="cls-47" d="M517.27,656.12l-8.99.68.15,19.24c-1.96,1.2-3.94,1.79-6.38-.4.81-6.35-1.25-13.29-.8-19.5.64-8.79.63-17.67.63-27.23,0-1.94,1.54-3.01,2.4-3.48,1-.54,3.45,0,3.47,1.44l.52,28.78c3.05-.59,7.28-2.17,8.98.46Z"/><path class="cls-48" d="M358.68,677.1c.23,2.95-.18,4.65-1.27,5.73-1.74,1.73-5.72,3.64-6.74.18-.63-2.13,2.56-4.86,3.61-5.95.63,0,1.37.92,1.82,1.01.71.15,1.88-.18,2.57-.97Z"/><path class="cls-73" d="M685.8,17.86c19.81,10.27,38.21,22.37,57.36,35.29l58.71,39.63,7.49,11.58c1.8,2.95-3.29,2.87-3.62,6.79-.17,2.1,1.26,3.53,3.21,5.95l-56.05,46.8c-29.59-18.21-57.62-40.02-86.82-60.65-12.6-8.9-23-18.23-35.92-26.16-8.44-5.19-18.18-5.57-26.15,1.21-12.95,11.01-24.77,22.83-35.43,35.93-5.44,6.69-5.64,14.79-.67,20.99l14.63,18.25c3.02,3.76,5.79,8.6,4,14.06-2.89,8.81-11.44,15.41-20.93,15.58l-30.8.56c-22.15.41-41.12,19.92-56.79,33.52l-69.31,60.16-21.37-16.94c18.66-11.52,29.51-21.97,33.01-43.94,2.43-15.23,9.26-30.11,22.07-39.59,24.36-18.02,64.09-18.13,83.7-52.58,18.07-31.73,30.61-67.43,73.08-72.74,41.42-5.18,52.19-16.07,86.59-33.7Z"/><path class="cls-27" d="M756.31,137.13c-7.83,3.35-25.21,3.79-30.33-6.3-1.38-2.72-1-6.22.76-9.38,5.93-10.69,18.84-16.49,30.22-13.11,6.73,2,11.12,7.53,11.13,13.87.01,6.65-4.92,11.98-11.78,14.91Z"/><path class="cls-88" d="M707.99,102.43c-10.4,7.89-31.82,5.34-33.52-7.45-.73-5.51,1.8-9.94,6.68-13.11,7.28-4.74,18.21-6.15,26.2-.51,6.5,4.59,7.06,16.21.64,21.08Z"/><path class="cls-40" d="M809.22,560.86l-61.48,96.28c-13.62,21.33-34.25,33.75-58.41,41.27l-141.28,43.96-35.47,9.82c.15-.93-.87-1.86-.16-3.25,8.6-16.72,19.9-30.03,33.69-43.33,29.66-28.61,64.96-49.61,104.01-61.22s66.52-17.65,101.04-43.98c18.12-13.82,31.2-31.31,44.61-49.05,4.92,3.3,8.62,7.48,13.46,9.48Z"/><path class="cls-12" d="M629.29,671.54c2.26.71,1.21,4.37.07,5.87-1.67,2.19-5.4,3.96-7.2,1.83-2.24-2.64,1.82-4.74,2.63-6.92.68-1.83,2.47-1.42,4.49-.78Z"/><path class="cls-32" d="M643.94,673.33c-1.56.12-2.71.81-3.62-.38-.56-.74.4-1.72.06-3.36-.42-2.02,1.32-3.75,2.59-4.18,1.67-.57,4.59.36,4.62,1.84.04,1.91.11,5.79-3.64,6.07Z"/><path class="cls-62" d="M664.45,662.76c-2.01,3.46-6.54,5.15-9.98,3.22,1.76-3.96,13.26-8.88,9.98-3.22Z"/><path class="cls-40" d="M258.38,365.09c2.26,22.69,19.2,23.32,8.35,40.19-3.21,4.99-7.58,8.73-12.57,12.08-15.89,10.66-31.38,21.37-45.64,33.65-12.69,10.93-18.88,24.76-19.41,41.84-.46,14.88,1.31,28.98,11.5,40.78,11.38,13.17,24.09,23.68,37.51,34.32,2.52,2,4.82,6.85,2.56,9.34-6.9,7.58-13.86,14.58-21.44,20.67-.59-.19-1.68.77-2.58-.03l-26.85-23.71c-5.83-5.15-10.39-11.03-15.29-16.91-14.43-17.3-24.48-36.89-32.99-57.56-9.72-23.63-23.46-60.11-17.4-86.21,4.58-19.69,25.92-30.77,42.16-40.66l35.06-21.34,57.02,13.55Z"/><path class="cls-49" d="M208.18,441.34c-19.97,8.73-17.16,7.28-20.27,20.11-1.3,5.37-3.28,9.52-9.69,10.04-10.05.82-20.68-4.47-25.38-13.76-1.42-2.81.8-9.23,2.8-11.67,5.36-6.54,14.2-9.89,22.56-10.58-2.83-12.48,1.73-22.86,8.89-31.12,7.19-8.29,19.57-12.92,30.42-11.12,7.01,1.16,12.94,5.4,16.03,10.83,9.61,16.9-8.25,26.73-13.82,32.17-3.48,3.4-7.44,3.3-11.54,5.1Z"/><path class="cls-61" d="M847.93,124.68c-3.42-.32-5.72-1.11-8.98-1.95-21.4,20.72-43.88,39.02-66.94,58.02-8.97,7.38-17.64,14.14-23.75,23.32-11.87,17.84,12.67,27.16,25.04,51.15,11.32,21.95-4.48,37.81-20.37,50.17l-90.2,70.14c-4.3,3.35-8.71,8.86-8.65,14.59.24,23.13,45.39,36.69,21.51,63.21l-6.46,7.17c-7.44,8.26-99.32,90.37-113.24,90.17-9.65-.14-17.59-4.19-25.23-9.18l-38.28-25-92.89,80.87-76.31,67.02c-5.05,4.43-11.9,9.3-18.36,8.8-13.17-1-24.38-7.3-34.87-14.8l-50.68-36.21c-17.01,16.29-33.38,31.46-51.35,46.28,2.35,2.9,4.04,5.35,6.82,6.23,5.18,8.04,11.59,15.66,13.3,25.99,2.19,13.3-1.54,25.86-9.46,37.15-18.65,26.57-53.11,37.81-84.18,27.23-22.49-7.66-38.64-26.87-41.38-49.82-2.6-21.8,8.21-42.02,26.66-54.12,21.42-14.05,48.1-13.44,70.39-2.11,1.13.25,3.36-2.39,3.48-3.14,2.34-.39,4.57-1.23,6.71-3.04,17.56-14.86,34.09-30.41,50.26-46.23,3-2.93,5.86-6.34,8.73-8.64,7.59-6.08,14.54-13.09,21.44-20.67,2.26-2.48-.03-7.34-2.56-9.34-13.42-10.64-26.13-21.16-37.51-34.32-10.2-11.8-11.97-25.91-11.5-40.78.53-17.07,6.72-30.9,19.41-41.84,14.26-12.29,29.74-22.99,45.64-33.65,4.99-3.35,9.36-7.08,12.57-12.08,10.85-16.87-6.09-17.49-8.35-40.19-.31-3.1-1.01-6.49-.6-9.63,1.97-15.25,2.37-32.45,22.22-39.56,34.62-12.4,69.76-21.2,105.92-25.31,5.93-.68,10.64-2.79,15.27-5.66,3.32-2.06,5.36-5.28,7.53-7.58l69.31-60.16c15.67-13.6,34.64-33.11,56.79-33.52l30.8-.56c9.49-.17,18.04-6.77,20.93-15.58,1.79-5.46-.99-10.3-4-14.06l-14.63-18.25c-4.96-6.19-4.77-14.3.67-20.99,10.66-13.11,22.49-24.93,35.43-35.93,7.97-6.78,17.71-6.39,26.15-1.21,12.92,7.94,23.32,17.26,35.92,26.16,29.2,20.63,57.23,42.43,86.82,60.65.96,2.24,3.89,5.23,7.31,5.97l49.38-41.95c4.96-4.21,9.48-8.36,13.12-13.08-4.74-3.53-10.46-6.02-13.35-10.48l-7.49-11.58c-8.29-21.85-3.66-45.33,14.29-61.36,16.78-14.98,41.2-18.33,61.73-7.77,18.64,9.59,31.61,29.59,29.51,52.34-2.77,30.03-30.4,51.39-59.48,48.69Z"/><path class="cls-40" d="M482.84,503l-52.78,45.98-109.07,96.31c-5.82,5.14-11.32,11.31-18.66,11.62l-.48-4.56c-.17-1.63-50.58-35.32-57.06-42.34,9.41-10.56,18.92-20.13,25.13-33.06,12.75-.37,23.94-.54,35.64-1.93,84.65-9.99,72.73-58.3,86.11-79.56,6.23-9.91,14.31-17.21,23.39-24.74,35.48-27.38,67.14-53.7,68.19-103.55l62.83,48.43c-14.41,8.52-26.3,15.13-37.32,25.19-18.78,15.72-27.97,38.63-25.91,62.19Z"/><path class="cls-5" d="M862.05,85.33c-6.31,8.88-12.65-14.79-15.5-18.22-1.1,6.82.07,12.34-.37,18.75-.1,1.5-5.21,1.61-5.3.31-.71-10.28-.21-20.14-.17-30.37,1.89-.34,5.9-1.43,6.7.18l8.26,16.44.92-16.27c1.58-.89,3.41-.47,5.68-.05l-.23,29.25Z"/><path class="cls-92" d="M824.47,73.76c-1.66.62-1.72,6.11-.34,7.18,2.46,1.76,6.72.22,10.12.88,1.88.37,1.46,4.75-.32,4.9-5.52.48-10.84.48-16.64-.13l-.5-31.02c7.27.62,20.71-3.17,17.82,3.7-1.07,2.53-6.75-.44-10.28,1.41-1.5.79-.99,3.71-.98,5.9,0,3.85,7.28.42,9.09,2.69,1,1.25.55,2.76-1.21,3.86-1.44.89-3.92-.43-6.76.63Z"/><path class="cls-96" d="M82.05,721.77c-4.78,3.68-12.82,3.78-17.13.17-1.15-.96.2-3.86.93-4.25,1.1-.59,11.73,4.57,12.08-2.1.26-4.98-17.88-4.01-12.77-16.32,2.52-6.09,11.05-7.91,16.05-4.29,1.24.9.77,2.65.28,3.83-.91,2.23-6.06-1.31-9.3,1.03-6.44,4.64,9.52,6.2,11.5,11.16,1.33,3.33,1.68,8.22-1.63,10.77Z"/><path class="cls-60" d="M99.86,699.69c-3.11,10.93,3.4,28.61-6.46,23.81l-1.72-23.9c-1-1.01-5.33.55-5.71-1.04-.3-1.25-1.01-5.08,1.01-5.09,6.35-.05,12.76-1.21,18.69.59,1.43.43.8,4.32-.2,4.98s-5.29-.52-5.62.64Z"/><path class="cls-100" d="M167.55,723.02c-.21,1.76-5.61,1.75-5.69.32l-1.3-23.51c-.07-1.19-5.06-.16-5.86-1.17-.84-1.06-1-4.49.4-4.81,6.07-1.37,12.09-.54,18.59-.36,1.73.05,1.14,3.69.67,4.82-.6,1.43-4.43.43-5.9,1.33-1.55,6.96.02,15.74-.9,23.37Z"/><path class="cls-70" d="M727.35,219.52c4.06,9.53,21.48,23.48,31.9,42.12,4.26,7.62,1.79,15.99-4.98,21.38l-104.57,83.19c-13.24,10.54-14.24,27.69-6.2,41.17,9.31,15.59,30.61,25.16,19.77,35.78l-11.97,11.73c-28.5,27.92-59.59,52.31-90.62,77.34-4.43,3.57-9.86,3.62-14.9.43-12.98-8.21-24.97-17-37.24-25.74-5.38-3.83-10.9-5.19-16.94-6.76-1.02-26.86,13.06-49.75,36.73-63.56l90.48-52.82c2.08-1.21,32.27-16.09,22.25-18.61,6.37-70.92,34.65-102.18,86.3-145.65Z"/><path class="cls-30" d="M580.96,473.12c-8.08,5.57-19.34,6.68-28.67,2.43-6.32-2.88-8.58-10.42-4.75-16.08,8.22-12.14,25.84-15.88,36.88-6.74,4.21,3.48,5.48,7.69,4.81,12.11-.69,4.54-4.97,6.01-8.26,8.27Z"/><path class="cls-79" d="M724.28,288.17c.51,10.87-20.35,17.82-28.85,12.79-2.67-1.58-6.04-1.12-6.93-4.39s-.77-6.49,2.39-9.24c12.38-10.75,33-7.43,33.39.84Z"/><path class="cls-36" d="M886.09,57.92c-4.81-4.02-12.26-2.23-17.51-2.11l-.3,30.76c5.69.37,12.57,1.91,18.1-3.16,6.99-6.4,6.47-19.84-.29-25.48ZM881.72,79.2c-1.41,1.56-4.15,3.11-7.31,2.29l.49-20.88c3.14-.77,5.36.07,6.97,1.98,3.08,3.66,2.54,13.63-.14,16.61Z"/><path class="cls-39" d="M153.22,722.73c-.6-4-3.39-7.25-5.35-10.62,4.71-3.16,5.97-7.06,4.79-11.97-1.98-8.23-12.32-7.01-19.52-6.8l.14,30.46c1.83.77,5.24.59,5.72-.89,1.18-3.58-.67-7.09.96-10.21,4.99.54,5.2,11.32,9.07,11.46,1.15.04,4.48.46,4.19-1.45ZM146.16,705.06c-.98,2.2-3.23,3.5-6.88,3.04-.38-2.21-1.31-5.8.2-8.48.78-1.38,4.09-.26,5.21.49,1.3.87,2.02,3.7,1.46,4.95Z"/><path class="cls-92" d="M129.17,723.39l-8.49-29.81-7.18-.07-9.04,29.78c-.4,1.32,4.12,1.56,5.09.88.97-.68,1.13-2.98,2.2-4.96,1.25-2.32,8.51-2.21,9.99.03,1.38,2.08,1.1,5.16,2.78,5.22,1.05.04,5.07.44,4.64-1.06ZM119.3,711.59c-.09,1.22-4.5,1.31-4.88-.12-.85-3.18,1.1-6.28,2.33-9.31,1.3,2.75,2.78,6.29,2.55,9.43Z"/><path class="cls-29" d="M727.35,219.52c-51.65,43.47-79.93,74.73-86.3,145.65,10.02,2.51-20.17,17.39-22.25,18.61l-90.48,52.82c-23.67,13.82-37.74,36.7-36.73,63.56-2.73,1.38-5.78,2.19-8.75,2.84-2.06-23.56,7.13-46.47,25.91-62.19,11.02-10.06,22.92-16.67,37.32-25.19l-62.83-48.43c-1.04,49.85-32.7,76.17-68.19,103.55-9.08,7.53-17.16,14.83-23.39,24.74-13.38,21.26-1.46,69.57-86.11,79.56-11.7,1.38-22.89,1.55-35.64,1.93-6.21,12.93-15.72,22.5-25.13,33.06,6.48,7.02,56.89,40.71,57.06,42.34l.48,4.56c-7.68,2.64-43.02-25.76-52.35-32.64l-18.91-13.96c6.96-6.65,35.39-33.91,28.54-42.9s-16.76-14.52-25.18-21.93c-6.87-6.05-12.47-12.52-18.85-19.14-16.81-17.43-16.32-43.49.57-60.25,20.64-20.48,47.85-33.33,62.23-49.85,10.04-11.52,10.23-26.45,1.14-38.51-7.82-10.37-10.33-32.82.43-43.3,14.09-13.73,79.98-26.63,101.14-28.1,12.91-.9,22.36-2.13,32.12-10.59l65.53-56.8,28.85-25.87c9.64-8.64,20.53-14.53,33.29-13.82,21.94,1.21,45.08-1.49,58.42-20.42,5.98-8.49,5.88-18.23-.54-26.23l-12.57-15.65c-4.86-6.06-5.18-13.08.41-19.3,7.71-8.58,15.67-17.02,23.85-24.94,4.95-4.79,10.4-4.84,16.1-.66l88.38,64.83,30.24,22.89c-11.14,9.92-23.54,26.32-17.83,39.73Z"/><path class="cls-99" d="M270.23,567.23c-14.16-20.7-41.68-31.65-53.77-54.57-8.04-15.24-3.47-33.04,9.41-44.09,11.65-10,23.5-19,36.69-27.53,9.39-6.08,17.54-12.38,24.15-20.75,10.21-12.94,11.11-30.84,1.53-44.98s-9.26-34.58,5.62-39.79c27.41-9.6,55.63-17.55,84.91-20.61,12.28-1.28,23.93.14,34.48-7.2l37.7,29.94,23.14,18.97c1.76,39.23-13.81,65.5-43.43,90.21l-31.04,25.89c-13.73,11.45-21.76,26.71-25.01,43.82-7.35,38.83-46.49,49.14-81.09,50.75-7.63.35-14.47,1.53-23.29-.07Z"/><path class="cls-15" d="M411.05,393.89c3.37,11.99,1.89,23.52-5.48,32.61s-17.92,11.94-30.07,12.53c-21.66,1.05-32.69,26.36-26.41,48.81,3.51,12.55.37,23.99-9.98,32.03-8.49,6.6-17.84,9.53-28.27,11.48-29.41,5.5-57.66-13.98-57.69-39.77-.01-12.71,7.91-22.64,17.71-29.91,17.04-12.64,42.59-12.97,47.98-44.04,2.06-11.89,8.22-21.43,15.6-30.28,11.51-9.42,24.32-12.83,39.49-13.12,15.98-.31,29.16,5.9,37.12,19.65Z"/><path class="cls-91" d="M411.05,393.89c-7.96-13.76-21.14-19.96-37.12-19.65s-27.98,3.7-39.49,13.12c-5.16-4.19-10.67-8.77-15.12-14.49-6.34-8.15-4.1-19.05,3.56-24.8,10.78-8.09,24.09-6.96,32.64,3.58,1.89,2.33,6.72,2.02,9.15,3.54,5.78-7.9,12.9-14.36,22.7-15.78,18.47-2.69,34.56,9.94,34.95,28.36.18,8.37-1.63,15.57-6.61,22.42-1.4,1.93-2.07,4.79-4.65,3.71Z"/><path class="cls-50" d="M468.37,340.31l-48.84-38.92,82.41-71.4c7.48-6.48,21-21.27,31.56-21.61l27.26-.88c24.32-.78,54.42-19.76,51.69-44.87-.75-6.93-4.38-12.34-8.46-17.6-4.59-5.7-9.57-10.42-12.93-17.26,7.72-11.82,17.1-21.5,28.11-30.53l79.48,58.59,33.9,24.63c-10.07,10.28-17,22.68-16.41,36.73-45.75,39.4-77.88,75.54-82.66,138.19l-1.78,10.62-75.85,43.7c-30.78-22.43-58.35-46.17-87.49-69.39Z"/><path class="cls-7" d="M612.71,255.21c.47,1.6,1.53,2.53.99,4.37-.4,1.38-2.22,1.89-3.26,3.4-2.89,4.22-2.9,11-7.98,14.08-6.27,3.8-14.05-1.12-15.76-8.43-16.61,7.69-9.88,21.97-22.28,24.85-2.76.64-5.3-2.17-7.24-3.66-3.5-2.7-7.9,4.59-10.83,1.65-1.71-1.71,1.27-3.55.9-5.29-.99-4.65-7.49-7.89-11.67-7.19l-1.38,8.33c-1.78,10.77-23.18,18.32-25.65,22.49-.83,1.4-9.44,12.66-10.83,13.33-8.19-5.11-11.08-15.5-9.93-26.1,1.61-14.85,20.04-38.57,37.97-30.26,7.12-13.42,19.08-23.56,33.7-16.92,3.96-9.07,10.7-17.6,20.99-19.21,13.68-2.13,26.18,8.13,26.51,21.24l5.74,3.31Z"/><path class="cls-66" d="M598.98,299.7c-3.77-.04-11.21-3.61-14.37.03-10.65,12.84-25.6,17.55-40.93,12.1-4.07,9.31-11.04,16.11-20.05,17.65.63-2.02-2.73-.65-3.19-1.49-1.58-2.85,1.07-10.03-2.41-11.84-7.15-3.72-2.7,12.09-5.24,13.24-3.7.92-6.82-1.35-10.19-2.47-2.04-.68-3.31-2.81-4.87-3.79,1.39-.67,10-11.94,10.83-13.33,2.47-4.17,23.87-11.71,25.65-22.49l1.38-8.33c4.18-.7,10.68,2.54,11.67,7.19.37,1.75-2.6,3.58-.9,5.29,2.93,2.94,7.33-4.35,10.83-1.65,1.94,1.5,4.48,4.31,7.24,3.66,12.4-2.88,5.67-17.17,22.28-24.85,1.71,7.31,9.49,12.23,15.76,8.43,5.08-3.08,5.09-9.86,7.98-14.08,1.03-1.51,2.85-2.02,3.26-3.4.53-1.84-.52-2.77-.99-4.37,5.32,3.07,9.61,8.24,11.26,14.76,3.42,13.54-4.63,27.06-18.62,28.57-2.49.27-4.51.74-6.36,1.16Z"/><path class="cls-80" d="M598.98,299.7c.25,7.52-16.47,19.65-23.87,21.15-5.76,1.17-7.41,5.09-11.53,7.77-11.37,7.38-24.77,12.4-37.14,18.74-.54.28-22.3,4.22-27.56-3.96-2.16-3.36,2.08-7.02,2.62-10.1l1.1-6.37c3.36,1.12,6.48,3.39,10.19,2.47,1.09,3.82-.03,7.84.44,12.63.24,2.43,5.9,2.51,6.38,0,.85-4.42-.06-8.27.4-12.37,1.62-.42,2.68,0,3.62-.17,9-1.55,15.98-8.35,20.05-17.65,15.33,5.45,30.28.74,40.93-12.1,3.16-3.64,10.6-.06,14.37-.03Z"/><path class="cls-7" d="M660.97,149.99c-1.81,1.42,9.75,3.84,9.81,3.96l1.38,2.54c1.18,2.18,6.48,6.35,4.3,8.83-3.67,4.18-9.49,6.78-9.21,13.25.07,1.68.12,2.99-1.3,4.14-2.12,1.7-6.14-2.93-8.75-1.57-7.66,4-6.98,11.69-14.9,16.12-11.38-7.37-4.68-6.81-9.95-12.54-2.45-9.26.36-19.22,5.77-26.17,6.35-8.16,14-9.64,22.84-8.56Z"/><path class="cls-98" d="M674.58,198.03c-1.77,1.49-3.81,3.25-6.19,3.47h-4.89c-.49-3.79.64-7.31-.48-10.93-.61-1.96-5.6-2.02-5.69-.55l-.67,11.81c-3.14-.17-6.21-1.3-6.86.97-9.22-1.77-15.86-9.48-17.44-18.56,5.26,5.73-1.44,5.17,9.95,12.54,7.91-4.43,7.24-12.12,14.9-16.12,2.61-1.36,6.63,3.27,8.75,1.57,1.43-1.14,1.38-2.46,1.3-4.14-.28-6.47,5.54-9.07,9.21-13.25,2.18-2.49-3.12-6.66-4.3-8.83l-1.38-2.54c-.06-.11-11.62-2.54-9.81-3.96,10.42,1.27,17.74,7.87,19.99,18.75s1.79,22.87-6.38,29.78Z"/><path class="cls-9" d="M607.85,352.08c-7.42,8.97-13.48,7.78-23.53,7.64-6.05-.09-12.4-7.01-11.16-12.73.25-1.13.69-4.16,1.28-5.09,4.5-7.03,14.92-11.57,22.23-9.02,4.69,1.64,8.81,2.25,11.08,6.01,2.42,4.01,3.56,9,.1,13.19Z"/><path class="cls-22" d="M651.07,203.52c1.1.37,4.72-1.11,5.31.6,1.54,4.5-.21,9.13.56,14.4.28,1.93,5.47,2.21,5.94.52,1.41-5.07.05-10.24.67-15.75,1.51-.42,4.35,1.19,4.85-1.31,2.38-.22,4.42-1.98,6.19-3.47-.08,1.67,1.65.39,2.72.98-.23,6.03-.44,11.5-1.9,17.72-2.44,10.35-33.15,11.46-36.77,1.36,0-.01,4.5-15.96,12.44-15.05Z"/><path class="cls-8" d="M668.4,201.51c-.49,2.5-3.34.89-4.85,1.31-.62,5.51.74,10.68-.67,15.75-.47,1.69-5.66,1.41-5.94-.52-.77-5.27.98-9.9-.56-14.4-.59-1.71-4.22-.23-5.31-.6-.69-.28-1.1-.21-1.26-.24.65-2.27,3.72-1.14,6.86-.97l.67-11.81c.08-1.47,5.08-1.41,5.69.55,1.13,3.62,0,7.14.48,10.92h4.89Z"/><path class="cls-85" d="M523.64,329.48c-.94.16-2-.25-3.62.17-.47,4.1.45,7.95-.4,12.37-.48,2.51-6.15,2.44-6.38,0-.46-4.79.65-8.8-.44-12.63,2.54-1.15-1.91-16.96,5.24-13.24,3.48,1.81.83,8.99,2.41,11.84.46.84,3.83-.54,3.19,1.49Z"/><g id="Generative_Object-2"><g id="Original_Art"><path class="cls-29" d="M847.93,124.68c-.45,3.53-5.38,4.09-5.09,7.88l-65.35,54.72c-11.21,9.39-30.27,21.71-19.5,34.32,6.55,7.67,13.89,14.76,19.34,23.75,11.89,19.6,11.81,37.14-4.52,53.6-4.96,4.99-9.29,9.06-15.18,13.64l-89.47,69.62c-14.7,11.44,6.65,24.43,16.86,38.32,9.1,12.38,7.93,28.11-3.61,39.4-30.71,30.04-63.34,57.46-96.89,84.95-6.99,5.73-12.53,10.4-21.25,13.71l31.68,29.93c16.18,15.29,24.31,36.3,19.99,59.53l17.58-6.94,32.49-10.26c20.25-6.39,40.06-12.3,58.84-23.08,19.35-11.11,35.36-24.52,48.92-41.54l18.25-22.9c-9.56-34.4-8.68-61,15.04-88.79,28.67-33.6,78.17-68.55,101.11-118.9l20.87-45.82c11.48-25.19,24.4-48.72,38.4-71.6,2.38,1.79,5.44,2.2,7.55,5.23-17.75,29.37-33.3,59.51-46.72,91.53-14.4,34.37-33.62,65.47-60.4,91.56l-38.98,37.98c-11.17,10.88-21.7,22.09-27.91,36.39-8.7,20.04-9.16,64.39,14.38,72.43l-5.16,7.53c-4.84-2-8.54-6.18-13.46-9.48-13.4,17.74-26.48,35.22-44.61,49.05-34.52,26.33-61.18,32.13-101.04,43.98s-74.35,32.61-104.01,61.22c-13.79,13.3-25.09,26.6-33.69,43.33-.71,1.39.31,2.31.16,3.25l-14.71,3.61c21.12-45.07,62.85-78.96,106.46-103.07,12.75-51.92-25.38-59.07-52.33-93.18-9.59-1.42-17.67-5.79-25.79-11.08l-32.92-21.46-50.09,43.79-108.57,95.48c-7.28,6.4-14.28,12.78-23.75,14.3-12.5,2-23.97-2.26-34.74-8.7-19.56-11.7-36.82-25.18-55.8-38.54l-30.66,27.89c-4.41,4.01-10.34,6.87-11.47,12.09-1.42-.36-2.07,1.52-3.48,1.35-2.77-.88-4.46-3.32-6.82-6.23,17.97-14.82,34.34-29.99,51.35-46.28l50.68,36.21c10.49,7.5,21.7,13.79,34.87,14.8,6.46.49,13.31-4.37,18.36-8.8l76.31-67.02,92.89-80.87,38.28,25c7.64,4.99,15.58,9.04,25.23,9.18,13.92.2,105.8-81.91,113.24-90.17l6.46-7.17c23.88-26.52-21.26-40.08-21.51-63.21-.06-5.73,4.35-11.25,8.65-14.59l90.2-70.14c15.89-12.35,31.69-28.21,20.37-50.17-12.37-23.99-36.91-33.31-25.04-51.15,6.11-9.18,14.78-15.94,23.75-23.32,23.06-18.99,45.54-37.3,66.94-58.02,3.26.85,5.56,1.64,8.98,1.95Z"/><path class="cls-6" d="M814.38,553.33c-23.53-8.04-23.08-52.39-14.38-72.43,6.21-14.3,16.74-25.51,27.91-36.39l38.98-37.98c26.78-26.09,46-57.18,60.4-91.56,13.41-32.02,28.96-62.16,46.72-91.53.55.79,22.55,14.46,19.51,36.71-1.26,9.24-4.82,16.77-10.08,25.08l-137.11,216.9-31.95,51.19Z"/><path class="cls-6" d="M210.5,606.6c-16.18,15.82-32.71,31.37-50.26,46.23-2.14,1.81-4.37,2.65-6.71,3.04l-34.19-74.08-56.87-128.56,51.16-15.44c6.25,40.05,26.89,90.11,51.02,121.96,12.44,15.78,26.6,28.23,42.01,40.88,2.22,1.82,4.92,3.63,3.84,5.97Z"/><path class="cls-87" d="M685.8,17.86c-34.4,17.62-45.17,28.51-86.59,33.7-42.47,5.31-55.01,41.01-73.08,72.74-19.61,34.45-59.34,34.56-83.7,52.58-12.81,9.48-19.64,24.36-22.07,39.59-3.51,21.96-14.35,32.42-33.01,43.94l21.37,16.94c-2.17,2.3-4.21,5.52-7.53,7.58.83-3.5-19.91-16.53-24.35-22.01l-43.7-.86c-16.91-.33-32.46,3.31-47.24,11.41-12.2,6.68-23.46,13.43-34.18,22.19-20.89,17.07-23.91,30.61-42.95,48.95l49.01,10.87c-.41,3.13.3,6.52.6,9.63l-57.02-13.55-35.06,21.34c-16.24,9.88-37.59,20.97-42.16,40.66-6.07,26.1,7.68,62.58,17.4,86.21,8.51,20.68,18.56,40.26,32.99,57.56,4.9,5.88,9.47,11.76,15.29,16.91l26.85,23.71c.9.79,1.99-.16,2.58.03-2.87,2.3-5.73,5.71-8.73,8.64,1.07-2.34-1.62-4.15-3.84-5.97-15.41-12.65-29.57-25.1-42.01-40.88-24.13-31.85-44.77-81.91-51.02-121.96l-51.16,15.44c-1.05-2.37-3.9-4.74-2.85-7.72.58-1.89,3.27-2.24,5.29-2.86,16.16-4.98,31.88-9.57,48.61-13.78-1.13-19.59,7.69-36.31,23.82-47.84,19.76-14.11,58.91-33.64,71.13-48.9l26.93-33.63c13.25-16.54,32.84-26.38,51.8-35.57,22.05-10.68,50.11-10.5,74.26-8.48,11.25.94,21.41-.46,30.27-7.42s16.84-15.26,18.64-26.95c10.45-67.82,59.91-56.2,95.76-85.26,7.17-5.81,11.41-13.54,15.44-21.49,50.11-98.67,75.81-52.59,134.53-89.4,3.24-2.03,17.78-8.98,17.44-13.27,3.67,2.32,8.6,5.31,12.25,7.21Z"/><path class="cls-90" d="M673.55,10.66c.34,4.29-14.2,11.24-17.44,13.27-58.72,36.81-84.42-9.27-134.53,89.4-4.03,7.94-8.27,15.68-15.44,21.49-35.86,29.06-85.31,17.45-95.76,85.26-1.8,11.69-9.89,20.07-18.64,26.95s-19.01,8.36-30.27,7.42c-24.15-2.01-52.21-2.2-74.26,8.48-18.96,9.19-38.55,19.03-51.8,35.57l-26.93,33.63c-12.22,15.26-51.37,34.79-71.13,48.9-16.14,11.52-24.96,28.25-23.82,47.84-16.74,4.21-32.46,8.8-48.61,13.78-2.02.62-4.71.97-5.29,2.86-16.94-34.65-31.88-70.51-47.11-106.81-5.84-13.92-10.25-27.51-11.5-42.77-1.55-18.95,4.17-38.63,16.31-53.33,8.61-10.43,20.2-17.56,32.87-22.45l175.31-67.68,161.93-61.85,142.66-53.86,86.09-32.67c20.17-7.65,40.48-4.12,57.37,6.55Z"/><path class="cls-14" d="M121.93,304.37c-5.66,1.38-14.18,6.41-16.63,12.97-2.21,5.93.91,25.12-2.02,24.52l-.17-22.37c0-1.18-2.13-1.57-2.93-1.53-6.64.32-.37,28.84-4.38,31.18-8.63,1.04-16.95-2.58-23.22-9.05-5.65-5.85-9.2-16-6.4-23.86,2.23-6.25,7.38-10.29,12.41-14.15-.46-10.13.4-21.93,10.11-27.87,12.48-7.63,29.94.5,33.09,14.12,1.41,6.08,2.3,11.25.14,16.04Z"/><path class="cls-20" d="M400.16,140.14c-2.24,1.49-2.21,3.27-2.7,6.11-1.03,5.96-13.68,18.32-16.7,17.6.14-1.25-.29-2.79-.97-4.1-.45-.86-2.08-1.45-3.58-.68-.84.43-1.91,1.46-1.94,3.39l-.29,19.65c-12.88.84-25.38-6.55-29.44-19.53-3.22-10.29,2.18-19.26,12.29-22.2-1.69-11.24,2.38-23.13,12.13-28.93,7.63-4.54,17.77-2.56,23.92,3.24,5.83,5.5,8.94,14.35,6.2,23.09-.38,1.22,1.2,1.55,1.07,2.36Z"/><path class="cls-7" d="M286.08,212.21c-3.89-3.48,2.33-15.63-4.34-17.63-.62-.19-2.66.26-2.71,1.6l-.65,15.89c-2.59.17-5.97-1.13-5.9,1.11-6.85-.56-17.59-10.08-19.3-17.92-2.52-11.6,2.03-14.69,8.31-21.5,4.14-4.48,4.59-13.2,12.73-16.18,6.54-2.39,13.13-2.05,19.69,1.96,5.78,3.53,6.27,10.34,10.07,16.12,5.18,7.87,12.86,16.45,5,26.18-5.26,6.52-14.65,10.39-22.9,10.37Z"/><path class="cls-7" d="M225.53,224.83c-5.41,5.28-3.34,2.24-12.34,4.73.38,5.46-2.93,10.44-2.9,15.32v17.84l-1,1.18-.14-18.6c-.01-1.85-1.94-2.74-2.91-2.61-.71.09-2.93.14-2.94,1.46l-.32,26.75c-3.18-.1-5.75-1.05-5.95,1.03-11.97-3.76-24.06-8.72-23.4-25.47.3-7.66,3.47-13.36,9.86-17.87,1.54-4.35,1.34-10.85,3.5-15.2,5.09-10.25,14.76-14.36,25.34-11.24,9.41,2.77,13.78,12.85,13.22,22.69Z"/><path class="cls-67" d="M493.58,109.14c-.91-1.19-.99-2.66-.91-5.16.04-1.31-2.81-1.14-3.89-.94-1.91.36-.31,2.9-1.98,4.76-3.52-.99-9.21.51-12.81-2.47-8.16-13.5-2.92-32.09,11.22-39.42,5.35-2.77,11.48-.89,15.86,1.85,9.82,6.15,12.12,29.39,5.03,37.19-2.95,3.25-7.9,3.5-12.54,4.19Z"/><path class="cls-74" d="M121.62,304.37c6.59,3.75,11.69,9.55,12.43,17.58,1.01,11-3.5,20.51-13.85,24.81-5.3,2.2-10.69,3-15.99,2.51-2.35-1.61-1.22-5.08-1.24-7.42,2.93.6-.19-18.59,2.02-24.52,2.45-6.56,10.97-11.59,16.63-12.97Z"/><path class="cls-52" d="M226.02,224.65l-.27,4.67c9.81,5.61,12.36,16.35,9.64,27.23-3.62,14.5-16.29,14.63-26.11,17.26v-9.9c.67.2,1.34-.12,1-1.18v-17.68c.2-4.97,3.57-10.04,3.18-15.59,9.15-2.54,7.05.56,12.56-4.81Z"/><path class="cls-63" d="M383.83,181.96c.1-1.3-1.14-1.02-3.63-.89-.05-5.76-.38-11.52.28-17.22,3.02.72,15.68-11.64,16.7-17.6.49-2.85.46-4.62,2.7-6.11,10.24,4.57,13.06,22.98,4.56,33.38-4.16,5.09-14.96,8.53-20.62,8.45Z"/><path class="cls-77" d="M138.57,239.18c-4.09,6.89-11.55,11.52-19.33,10.82-7.71-.7-13.64-7.07-12.07-14.06,1.31-5.87,5.61-10.31,9.64-12.35,6.09-3.09,12.47-2.89,18.37.6,4.97,2.94,6.44,9.88,3.4,15Z"/><path class="cls-23" d="M202.84,294.52c1.4.38,3.89.76,5.65-.03,1.2-.54,1.4-3.38,1.25-4.75,3.73-.91,8.07-1.07,11.85,1.58,1.82,1.28,3.05,3.76,2.56,5.35-3.26,10.44-35.29,6.91-36.04.29-.65-5.71,8.74-9.79,12.77-7.67.23,1.18-.15,3.63.19,4.48.24.61.66.52,1.78.76Z"/><path class="cls-33" d="M379.33,207.03c1.58-2.64.55-5.81.78-8.7,3.76.6,8.02-.05,11.96,2.92,2.04,1.54,1.94,5.11,1.01,6.89-4.12,7.84-22.66,5.04-30.25,3.68-3.45-.62-5.57-2.2-5.47-5.46.16-5.22,11.91-8.61,14.75-5.67.73.75-.89,4.29-.68,5.44.19,1.02,2.12,1.6,3.65,1.38.63-.09,1.94.84,2.9.76.63-.06,1.33-.1,1.35-1.24Z"/><path class="cls-69" d="M99.26,371.55c.75.26,2.61.37,3.46-.23.39-2.11.4-4.02.45-5.76,4.03-.21,9.58-1.14,13.04,2.73,7.8,8.73-15.35,12.33-24.26,11.61-4.83-.39-6.62-4.1-6.41-7.84.2-3.44,5.99-7.53,8.51-4.37,1.19,1.49-.91,4.4,1.61,4,1.37-.22,3.33,2.31,3.59-.14Z"/><path class="cls-19" d="M210.28,263.91v9.9s-1.13,10.64-.54,15.92c.15,1.37-.05,4.21-1.25,4.75-1.76.79-4.25.41-5.65.03.63-7.03.36-14.22.21-21.78-3.15-.57-4.73.25-6.05-.16.21-2.12,6.28-1.05,6.28-1.05l.32-27.38c.02-1.28,2.17-1.33,2.86-1.42.94-.12,2.81.74,2.83,2.53l1,18.65Z"/><path class="cls-1" d="M103.45,341.86c.02,2.34-1.11,5.81,1.24,7.42-2.49,4.91-.87,10.85-1.04,16.29-.05,1.75-.06,3.65-.45,5.76-.85.59-2.71.49-3.46.23-5.34,2.96-.17-19.41-3.77-22.42,4.01-2.34-2.26-30.86,4.38-31.18.81-.04,2.92.35,2.93,1.53l.17,22.37Z"/><path class="cls-35" d="M283.89,239.22c1.03-2.37,1.4-5.03,1.32-7.65,5.35.42,12.58.07,14.96,6.54-9.38,8.07-25.24,10.07-34.81,2.38-2.84-2.28,2.89-8.07,5.34-7.78s7.63.57,6.14,4.91c-.59,1.71,1.59,2.46,2.69,2.69,1.79.37,3.7.45,4.37-1.09Z"/><path class="cls-71" d="M380.48,163.85c-.66,5.7-.33,11.46-.28,17.22,2.48-.12,3.73-.41,3.63.89-5.94-.09-3.08,8.4-3.71,16.37-.23,2.89.8,6.06-.78,8.7-1.54-.16-3.1.27-5.05-.41v-44.16c-.26-1.94.82-2.97,1.65-3.39,1.5-.76,3.13-.18,3.58.68.68,1.31,1.11,2.85.97,4.1Z"/><path class="cls-24" d="M286.08,212.21c-2.3,6.07-1.06,12.91-.87,19.35.08,2.62-.3,5.28-1.32,7.65l-5.14-.39c-.64-7.96.71-16.12-.53-24.03-.38-2.44-4.27-1.49-5.75-1.61-.07-2.24,3.31-.94,5.9-1.11l.65-15.89c.06-1.34,2.1-1.79,2.71-1.6,6.66,2,.45,14.15,4.34,17.63Z"/><path class="cls-10" d="M493.58,109.14c-2.21,6.04.07,13.14-1.16,19.8-.35,1.9-4.03,1.76-4.38-.14-1.41-7.46,1.24-14.62-1.22-21,1.66-1.86.06-4.4,1.98-4.76,1.08-.2,3.93-.37,3.89.94-.09,2.49,0,3.96.91,5.16Z"/><path class="cls-73" d="M842.85,132.56c41.63,27.75,83.71,55.54,123.61,85.67-14,22.88-26.92,46.41-38.4,71.6l-20.87,45.82c-22.94,50.34-72.43,85.29-101.11,118.9-23.72,27.8-24.6,54.39-15.04,88.79l-18.25,22.9c-13.56,17.02-29.57,30.42-48.92,41.54-18.78,10.78-38.59,16.69-58.84,23.08l-32.49,10.26-17.58,6.94c4.31-23.22-3.81-44.24-19.99-59.53l-31.68-29.93c8.72-3.31,14.26-7.98,21.25-13.71,33.55-27.49,66.18-54.91,96.89-84.95,11.54-11.29,12.7-27.03,3.61-39.4-10.2-13.89-31.56-26.88-16.86-38.32l89.47-69.62c5.89-4.58,10.22-8.65,15.18-13.64,16.34-16.45,16.41-33.99,4.52-53.6-5.45-9-12.79-16.08-19.34-23.75-10.77-12.61,8.29-24.93,19.5-34.32l65.35-54.72Z"/><path class="cls-34" d="M826.65,392.77c-1.12-2.57-4.82-.88-7.37-.94l-.29-28.97c-.01-1.45-2.15-2.04-2.87-1.83s-2.82.77-2.84,2.1l-.35,28.19c-1.17.28-2.57-.07-2.44,1.32-10.05.63-19.79-4.02-26.46-11.99-5-5.97-8.01-16.05-3.13-22.68l7.28-9.9c-.46-13.14,5.74-25.08,17.21-31.37,7.22-3.96,22.85-3.76,30.46,3.74,10.82,10.66,5.92,24.59,6.37,26.11.89,2.94,4.98,4.11,6.37,6.9,4.22,8.44,4.33,17.85-1.22,27.01-3.85,6.34-12.1,10.89-20.73,12.32Z"/><path class="cls-76" d="M853.98,256.49c-1.61-2.65-5.71-.81-8.55-.95-1.32-5.54,2.93-26.47-4.35-22.51-4.43,2.41.08,20.84-2.99,23.57-8.36.8-16.81-.73-23.36-6.45-6.23-5.44-8-11.91-7.91-19.9.07-6.94,8.97-10.69,11.08-16.15,3.45-8.93,2.99-18.81,11.43-25.91,8.25-6.94,19.85-8.99,28.57-1.17,4.11,3.68,4.68,10.62,6.42,15.19,14.74,7.41,16.52,32.17,8.86,43.02-3.9,5.53-11.11,10.75-19.2,11.26Z"/><path class="cls-93" d="M742.11,497.65c-.51-.3-1.96.18-1.9.7.06.48,2,1.87,1.59,2.99-2.2,6.01-9.98,2.34-13.86,2.81-5.22,4.31-8.03,13.86-15.37,16.37.84,2.09,1.61,2.5,1.59,3.19-.02.75-.76,1.28-1.01,2.5-1.12,5.58,1.2,11.04-1.23,15.67-8.86-.86-18.7-3.76-22.69-13.31-4.8-11.48-2.46-24.95,3.49-34.87,6.72-11.21,18.78-14.76,31.39-12.12,8.89,1.86,15.36,8.05,17.99,16.06Z"/><path class="cls-31" d="M644.89,589.31c.08-3.01.27-6.3-.31-9.82-.26-1.6-3.01-1.61-3.98-1.28-3.33,1.15-.99,8.78-2.14,10.83-6.19-.79-13.6-2.83-16.79-9.76-6.62-14.38,1.85-32.1,17.07-36.54,14.13-4.12,27.28,4.4,29.82,16.81,1.65,8.08,1.23,16.74-4.81,22.6-5.25,5.1-12.26,6.21-18.86,7.15Z"/><path class="cls-54" d="M741.43,423.2c.32-1.8-1.1-5.34-3.68-5.13-2.96.25-2.65,3.16-2.55,5.45-.79-.27-1.87.15-2.55-.02-9.95-2.43-16.42-10.17-15.3-20.99,1.2-11.64,9.72-19.93,21.6-18.89,6.91.61,13.4,3.97,16.67,8.92,4.36,6.62,3.89,14.26.54,21.11-3.04,6.21-8.48,9.59-14.72,9.55Z"/><path class="cls-97" d="M742.11,497.65c1.05,3.19,2.53,6.12,3.45,9.93,3.8,15.79-4.94,29.49-20.16,33.1-.86-1.44-2.97-.89-5.98-.63l-.53-13.9c-.09-2.37-3.32-2.49-4.73-2.44.02-.69-.75-1.11-1.59-3.19,7.34-2.5,10.15-12.06,15.37-16.37,3.89-.47,11.66,3.2,13.86-2.81.41-1.12-1.53-2.51-1.59-2.99-.07-.52,1.39-1,1.9-.7Z"/><path class="cls-58" d="M915.36,268.89c-7.5,4.74-25.76,4.56-29.04-2.03-1.78-3.58-1.8-6.68-.16-10.49,2.78-6.5,9.35-10.88,15.62-11.49,7.3-.71,15.16,2.33,18.82,9.05,2.92,5.38.16,11.55-5.24,14.95Z"/><path class="cls-94" d="M841.61,283.95c.58-.09,2.1.19,2.75-.25,1.39-.93,1.2-12.95,1.38-11.25,5.09.14,15.2-.52,16.11,6.32,1.2,8.99-25.03,13.69-40.12,8.81-2.53-.82-9.23-.34-9.42-3.46-.31-4.88,5.12-3.2,7.13-3.89,5.56-1.89,10.8-6.11,17.22-5.12l1.8,9.66c1.67-1.23,2.93,1.06,3.15-.82Z"/><path class="cls-46" d="M812.66,414.91c.8,3.24,4.32,3.49,6.6,2.78,3.03-.25.49-4.15,1.5-7.28,2.2-1.66,11.74-.21,11.17,4.34-1.55,12.4-39.21,13.43-36.42,1.98.75-3.06,9.85-9.02,14.94-6.91.75.31.34,3.41.25,4.22-.07.68.8.97,1.97.87Z"/><path class="cls-83" d="M826.76,392.58c-2.11.35-6.48.55-6.48.55l-.32,25.9c-2.48.78-6.3.5-7.17-3.02.08,1.3,2.45-31.25-2.15-24.4-.14-1.51,1.37-1.13,2.63-1.43l.35-27.09c.02-1.32,2.09-1.87,2.81-2.08s2.83.37,2.84,1.81v28.84s6.37-1.62,7.48.94Z"/><path class="cls-69" d="M712.55,554.55c.03,1.77.29,3.97.71,6.32.32,1.8,4.02,1.66,4.8.52.69-1.02,1.71-3.11,1.52-4.6,2.2-1.77,5.62-.75,8.14-.5,2.09.21,6.13,4.42,4.54,6.3-4.04,4.79-11.26,7.58-17.22,8.49-6.43.99-13.26-3.19-18.06-7.38,7.02-6.54,9.16-3.38,15.57-9.16Z"/><path class="cls-101" d="M853.98,256.49l-8.4.54c-.52,5.42-.38,10.43.15,15.42-.18-1.69.01,10.32-1.38,11.25-.65.44-2.17.16-2.75.25-.53-.42-1.5-.07-2.55-.38.34-9.02.27-18.35-.96-26.97,3.07-2.73-1.44-21.16,2.99-23.57,7.28-3.97,3.04,16.97,4.35,22.51,2.83.14,6.94-1.69,8.55.95Z"/><path class="cls-95" d="M631.68,607.53c1.79-.94,3.01-1.44,4.02-1.15,2.3.67,1.04,3.66.82,5.69,1.83,1.62,8.05,1.38,9.5-1.51.89-1.79-1.19-4.69,1.22-5.12,3.62-.64,11.87.72,11.85,4.8-1.25,9.64-27.42,14.15-31.02,6.3-1.46-3.18-.57-6.79,3.61-9Z"/><path class="cls-23" d="M735.21,423.51c.39,8.68-1.99,20.44,3.16,19.56,3.11-.53.93-4.15,2.28-6.96,4.35-.02,8.92-1.08,13.62.82,1.18,4.46-2.9,9.3-7.93,9.61-2.33.14-23.63.88-20.41-3.21.79-1.01.75-2.97,2.11-3.99,1.56-1.17,3.42-1.28,4.51-2.44,2.91-3.11-.5-7.67.13-13.4.68.17,1.76-.25,2.55.02Z"/><path class="cls-75" d="M725.4,540.68c-1.91.45-3.76.32-6.01.58-.5,5.59-.45,10.62.19,15.54.19,1.49-.83,3.58-1.52,4.6-.78,1.14-4.48,1.28-4.8-.52-.42-2.35-.69-4.55-.71-6.32-.06-4.14,1.7-8.98-.63-12.67,2.44-4.63.11-10.09,1.23-15.67.25-1.23.98-1.75,1.01-2.5,1.4-.05,4.64.06,4.73,2.44l.53,13.9c3.01-.26,5.12-.81,5.98.63Z"/><path class="cls-37" d="M644.89,589.31c-.2,7.35.48,15.04-.18,22.1-2.35.14-4.62,1.13-5.32-.12-1.55-2.77-.06-18.46-.92-22.24,1.15-2.05-1.2-9.69,2.14-10.83.97-.33,3.71-.32,3.98,1.28.58,3.52.39,6.8.31,9.82Z"/><path class="cls-26" d="M741.43,423.2c-.87,4.91-1.09,8.94-.79,12.91-1.35,2.81.83,6.43-2.28,6.96-5.15.89-2.76-10.88-3.16-19.56-.1-2.29-.41-5.2,2.55-5.45,2.58-.21,4,3.33,3.68,5.13Z"/><path class="cls-40" d="M401.18,284.93c-4.62,2.87-9.33,4.99-15.27,5.66-36.17,4.12-71.31,12.91-105.92,25.31-19.86,7.11-20.25,24.31-22.22,39.56l-49.01-10.87c19.05-18.34,22.07-31.88,42.95-48.95,10.72-8.76,21.98-15.51,34.18-22.19,14.77-8.09,30.33-11.74,47.24-11.41l43.7.86c4.44,5.48,25.18,18.52,24.35,22.01Z"/><path class="cls-43" d="M752.91,163.9l56.05-46.8c-1.95-2.42-3.38-3.85-3.21-5.95.32-3.92,5.42-3.84,3.62-6.79,2.89,4.46,8.61,6.95,13.35,10.48-3.64,4.72-8.16,8.87-13.12,13.08l-49.38,41.95c-3.42-.74-6.36-3.72-7.31-5.97Z"/><path class="cls-11" d="M497.87,755.81c-38.46,9.43-64.56,16.95-105.4.68l-81.69-32.55c-22.4-8.92-43.25-17.83-65.93-25.37-22.89-7.6-45.19-15.34-66.63-25.24,1.13-5.23,7.06-8.08,11.47-12.09l30.66-27.89c18.98,13.35,36.23,26.83,55.8,38.54,10.77,6.44,22.24,10.7,34.74,8.7,9.47-1.52,16.47-7.89,23.75-14.3l108.57-95.48,50.09-43.79,32.92,21.46c8.11,5.29,16.2,9.66,25.79,11.08,26.95,34.11,65.08,41.26,52.33,93.18-43.61,24.11-85.33,58-106.46,103.07Z"/><path class="cls-18" d="M517.45,656.12c-1.7-2.63-5.93-1.05-8.98-.46l-.52-28.78c-.03-1.43-2.48-1.98-3.47-1.44-.86.47-2.4,1.53-2.4,3.48,0,9.56,0,18.44-.63,27.23-15.58,2.03-30.88-5.99-35.89-20.46-5.14-14.86,3.3-22.19,10.91-31.27,5.74-6.86,4.96-18.14,14.12-23.59,10.84-6.45,24.01-7.22,33.56,3.44,4.89,5.45,4.11,13.73,6.86,18.98,2.43,4.65,9.88,6.72,11.52,13.28,2.34,9.37,2.36,18.74-3.91,27.46-4.32,6-12.47,11.47-21.15,12.13Z"/><path class="cls-28" d="M419.95,705.39c-14.57,4.48-30.64-1.54-36.02-15.76-4.2-11.11.88-21.8,10.92-27.83,13.75-8.26,33.67-4.69,43.01,8.95,5.42,7.91,5.06,17.62.08,24.49-4.34,5.99-10.72,7.92-17.99,10.15Z"/><path class="cls-41" d="M502.23,675.64c2.44,2.19,4.43,1.6,6.38.4,2.68-1.64,1.04-5.09,1.32-8.39,4.23.06,9.53,1.06,11.76,4.8,1.05,1.76-1.43,4.8-3.15,5.67-14.54,7.37-6.5,6.57-28.27,6.64-3.07,0-5.67-1.94-6.59-3.85s-1.03-4.94,1.18-6.75c3.51-2.88,9.51-4.62,13.76-4.05,1.53.98.89,5.7,3.6,5.53Z"/><path class="cls-47" d="M517.27,656.12l-8.99.68.15,19.24c-1.96,1.2-3.94,1.79-6.38-.4.81-6.35-1.25-13.29-.8-19.5.64-8.79.63-17.67.63-27.23,0-1.94,1.54-3.01,2.4-3.48,1-.54,3.45,0,3.47,1.44l.52,28.78c3.05-.59,7.28-2.17,8.98.46Z"/><path class="cls-48" d="M358.68,677.1c.23,2.95-.18,4.65-1.27,5.73-1.74,1.73-5.72,3.64-6.74.18-.63-2.13,2.56-4.86,3.61-5.95.63,0,1.37.92,1.82,1.01.71.15,1.88-.18,2.57-.97Z"/><path class="cls-73" d="M685.8,17.86c19.81,10.27,38.21,22.37,57.36,35.29l58.71,39.63,7.49,11.58c1.8,2.95-3.29,2.87-3.62,6.79-.17,2.1,1.26,3.53,3.21,5.95l-56.05,46.8c-29.59-18.21-57.62-40.02-86.82-60.65-12.6-8.9-23-18.23-35.92-26.16-8.44-5.19-18.18-5.57-26.15,1.21-12.95,11.01-24.77,22.83-35.43,35.93-5.44,6.69-5.64,14.79-.67,20.99l14.63,18.25c3.02,3.76,5.79,8.6,4,14.06-2.89,8.81-11.44,15.41-20.93,15.58l-30.8.56c-22.15.41-41.12,19.92-56.79,33.52l-69.31,60.16-21.37-16.94c18.66-11.52,29.51-21.97,33.01-43.94,2.43-15.23,9.26-30.11,22.07-39.59,24.36-18.02,64.09-18.13,83.7-52.58,18.07-31.73,30.61-67.43,73.08-72.74,41.42-5.18,52.19-16.07,86.59-33.7Z"/><path class="cls-27" d="M756.31,137.13c-7.83,3.35-25.21,3.79-30.33-6.3-1.38-2.72-1-6.22.76-9.38,5.93-10.69,18.84-16.49,30.22-13.11,6.73,2,11.12,7.53,11.13,13.87.01,6.65-4.92,11.98-11.78,14.91Z"/><path class="cls-88" d="M707.99,102.43c-10.4,7.89-31.82,5.34-33.52-7.45-.73-5.51,1.8-9.94,6.68-13.11,7.28-4.74,18.21-6.15,26.2-.51,6.5,4.59,7.06,16.21.64,21.08Z"/><path class="cls-40" d="M809.22,560.86l-61.48,96.28c-13.62,21.33-34.25,33.75-58.41,41.27l-141.28,43.96-35.47,9.82c.15-.93-.87-1.86-.16-3.25,8.6-16.72,19.9-30.03,33.69-43.33,29.66-28.61,64.96-49.61,104.01-61.22s66.52-17.65,101.04-43.98c18.12-13.82,31.2-31.31,44.61-49.05,4.92,3.3,8.62,7.48,13.46,9.48Z"/><path class="cls-12" d="M629.29,671.54c2.26.71,1.21,4.37.07,5.87-1.67,2.19-5.4,3.96-7.2,1.83-2.24-2.64,1.82-4.74,2.63-6.92.68-1.83,2.47-1.42,4.49-.78Z"/><path class="cls-32" d="M643.94,673.33c-1.56.12-2.71.81-3.62-.38-.56-.74.4-1.72.06-3.36-.42-2.02,1.32-3.75,2.59-4.18,1.67-.57,4.59.36,4.62,1.84.04,1.91.11,5.79-3.64,6.07Z"/><path class="cls-62" d="M664.45,662.76c-2.01,3.46-6.54,5.15-9.98,3.22,1.76-3.96,13.26-8.88,9.98-3.22Z"/><path class="cls-40" d="M258.38,365.09c2.26,22.69,19.2,23.32,8.35,40.19-3.21,4.99-7.58,8.73-12.57,12.08-15.89,10.66-31.38,21.37-45.64,33.65-12.69,10.93-18.88,24.76-19.41,41.84-.46,14.88,1.31,28.98,11.5,40.78,11.38,13.17,24.09,23.68,37.51,34.32,2.52,2,4.82,6.85,2.56,9.34-6.9,7.58-13.86,14.58-21.44,20.67-.59-.19-1.68.77-2.58-.03l-26.85-23.71c-5.83-5.15-10.39-11.03-15.29-16.91-14.43-17.3-24.48-36.89-32.99-57.56-9.72-23.63-23.46-60.11-17.4-86.21,4.58-19.69,25.92-30.77,42.16-40.66l35.06-21.34,57.02,13.55Z"/><path class="cls-49" d="M208.18,441.34c-19.97,8.73-17.16,7.28-20.27,20.11-1.3,5.37-3.28,9.52-9.69,10.04-10.05.82-20.68-4.47-25.38-13.76-1.42-2.81.8-9.23,2.8-11.67,5.36-6.54,14.2-9.89,22.56-10.58-2.83-12.48,1.73-22.86,8.89-31.12,7.19-8.29,19.57-12.92,30.42-11.12,7.01,1.16,12.94,5.4,16.03,10.83,9.61,16.9-8.25,26.73-13.82,32.17-3.48,3.4-7.44,3.3-11.54,5.1Z"/><path class="cls-61" d="M847.93,124.68c-3.42-.32-5.72-1.11-8.98-1.95-21.4,20.72-43.88,39.02-66.94,58.02-8.97,7.38-17.64,14.14-23.75,23.32-11.87,17.84,12.67,27.16,25.04,51.15,11.32,21.95-4.48,37.81-20.37,50.17l-90.2,70.14c-4.3,3.35-8.71,8.86-8.65,14.59.24,23.13,45.39,36.69,21.51,63.21l-6.46,7.17c-7.44,8.26-99.32,90.37-113.24,90.17-9.65-.14-17.59-4.19-25.23-9.18l-38.28-25-92.89,80.87-76.31,67.02c-5.05,4.43-11.9,9.3-18.36,8.8-13.17-1-24.38-7.3-34.87-14.8l-50.68-36.21c-17.01,16.29-33.38,31.46-51.35,46.28,2.35,2.9,4.04,5.35,6.82,6.23,5.18,8.04,11.59,15.66,13.3,25.99,2.19,13.3-1.54,25.86-9.46,37.15-18.65,26.57-53.11,37.81-84.18,27.23-22.49-7.66-38.64-26.87-41.38-49.82-2.6-21.8,8.21-42.02,26.66-54.12,21.42-14.05,48.1-13.44,70.39-2.11,1.13.25,3.36-2.39,3.48-3.14,2.34-.39,4.57-1.23,6.71-3.04,17.56-14.86,34.09-30.41,50.26-46.23,3-2.93,5.86-6.34,8.73-8.64,7.59-6.08,14.54-13.09,21.44-20.67,2.26-2.48-.03-7.34-2.56-9.34-13.42-10.64-26.13-21.16-37.51-34.32-10.2-11.8-11.97-25.91-11.5-40.78.53-17.07,6.72-30.9,19.41-41.84,14.26-12.29,29.74-22.99,45.64-33.65,4.99-3.35,9.36-7.08,12.57-12.08,10.85-16.87-6.09-17.49-8.35-40.19-.31-3.1-1.01-6.49-.6-9.63,1.97-15.25,2.37-32.45,22.22-39.56,34.62-12.4,69.76-21.2,105.92-25.31,5.93-.68,10.64-2.79,15.27-5.66,3.32-2.06,5.36-5.28,7.53-7.58l69.31-60.16c15.67-13.6,34.64-33.11,56.79-33.52l30.8-.56c9.49-.17,18.04-6.77,20.93-15.58,1.79-5.46-.99-10.3-4-14.06l-14.63-18.25c-4.96-6.19-4.77-14.3.67-20.99,10.66-13.11,22.49-24.93,35.43-35.93,7.97-6.78,17.71-6.39,26.15-1.21,12.92,7.94,23.32,17.26,35.92,26.16,29.2,20.63,57.23,42.43,86.82,60.65.96,2.24,3.89,5.23,7.31,5.97l49.38-41.95c4.96-4.21,9.48-8.36,13.12-13.08-4.74-3.53-10.46-6.02-13.35-10.48l-7.49-11.58c-8.29-21.85-3.66-45.33,14.29-61.36,16.78-14.98,41.2-18.33,61.73-7.77,18.64,9.59,31.61,29.59,29.51,52.34-2.77,30.03-30.4,51.39-59.48,48.69Z"/><path class="cls-40" d="M482.84,503l-52.78,45.98-109.07,96.31c-5.82,5.14-11.32,11.31-18.66,11.62l-.48-4.56c-.17-1.63-50.58-35.32-57.06-42.34,9.41-10.56,18.92-20.13,25.13-33.06,12.75-.37,23.94-.54,35.64-1.93,84.65-9.99,72.73-58.3,86.11-79.56,6.23-9.91,14.31-17.21,23.39-24.74,35.48-27.38,67.14-53.7,68.19-103.55l62.83,48.43c-14.41,8.52-26.3,15.13-37.32,25.19-18.78,15.72-27.97,38.63-25.91,62.19Z"/><path class="cls-5" d="M862.05,85.33c-6.31,8.88-12.65-14.79-15.5-18.22-1.1,6.82.07,12.34-.37,18.75-.1,1.5-5.21,1.61-5.3.31-.71-10.28-.21-20.14-.17-30.37,1.89-.34,5.9-1.43,6.7.18l8.26,16.44.92-16.27c1.58-.89,3.41-.47,5.68-.05l-.23,29.25Z"/><path class="cls-92" d="M824.47,73.76c-1.66.62-1.72,6.11-.34,7.18,2.46,1.76,6.72.22,10.12.88,1.88.37,1.46,4.75-.32,4.9-5.52.48-10.84.48-16.64-.13l-.5-31.02c7.27.62,20.71-3.17,17.82,3.7-1.07,2.53-6.75-.44-10.28,1.41-1.5.79-.99,3.71-.98,5.9,0,3.85,7.28.42,9.09,2.69,1,1.25.55,2.76-1.21,3.86-1.44.89-3.92-.43-6.76.63Z"/><path class="cls-96" d="M82.05,721.77c-4.78,3.68-12.82,3.78-17.13.17-1.15-.96.2-3.86.93-4.25,1.1-.59,11.73,4.57,12.08-2.1.26-4.98-17.88-4.01-12.77-16.32,2.52-6.09,11.05-7.91,16.05-4.29,1.24.9.77,2.65.28,3.83-.91,2.23-6.06-1.31-9.3,1.03-6.44,4.64,9.52,6.2,11.5,11.16,1.33,3.33,1.68,8.22-1.63,10.77Z"/><path class="cls-60" d="M99.86,699.69c-3.11,10.93,3.4,28.61-6.46,23.81l-1.72-23.9c-1-1.01-5.33.55-5.71-1.04-.3-1.25-1.01-5.08,1.01-5.09,6.35-.05,12.76-1.21,18.69.59,1.43.43.8,4.32-.2,4.98s-5.29-.52-5.62.64Z"/><path class="cls-100" d="M167.55,723.02c-.21,1.76-5.61,1.75-5.69.32l-1.3-23.51c-.07-1.19-5.06-.16-5.86-1.17-.84-1.06-1-4.49.4-4.81,6.07-1.37,12.09-.54,18.59-.36,1.73.05,1.14,3.69.67,4.82-.6,1.43-4.43.43-5.9,1.33-1.55,6.96.02,15.74-.9,23.37Z"/><path class="cls-70" d="M727.35,219.52c4.06,9.53,21.48,23.48,31.9,42.12,4.26,7.62,1.79,15.99-4.98,21.38l-104.57,83.19c-13.24,10.54-14.24,27.69-6.2,41.17,9.31,15.59,30.61,25.16,19.77,35.78l-11.97,11.73c-28.5,27.92-59.59,52.31-90.62,77.34-4.43,3.57-9.86,3.62-14.9.43-12.98-8.21-24.97-17-37.24-25.74-5.38-3.83-10.9-5.19-16.94-6.76-1.02-26.86,13.06-49.75,36.73-63.56l90.48-52.82c2.08-1.21,32.27-16.09,22.25-18.61,6.37-70.92,34.65-102.18,86.3-145.65Z"/><path class="cls-30" d="M580.96,473.12c-8.08,5.57-19.34,6.68-28.67,2.43-6.32-2.88-8.58-10.42-4.75-16.08,8.22-12.14,25.84-15.88,36.88-6.74,4.21,3.48,5.48,7.69,4.81,12.11-.69,4.54-4.97,6.01-8.26,8.27Z"/><path class="cls-79" d="M724.28,288.17c.51,10.87-20.35,17.82-28.85,12.79-2.67-1.58-6.04-1.12-6.93-4.39s-.77-6.49,2.39-9.24c12.38-10.75,33-7.43,33.39.84Z"/><path class="cls-36" d="M886.09,57.92c-4.81-4.02-12.26-2.23-17.51-2.11l-.3,30.76c5.69.37,12.57,1.91,18.1-3.16,6.99-6.4,6.47-19.84-.29-25.48ZM881.72,79.2c-1.41,1.56-4.15,3.11-7.31,2.29l.49-20.88c3.14-.77,5.36.07,6.97,1.98,3.08,3.66,2.54,13.63-.14,16.61Z"/><path class="cls-39" d="M153.22,722.73c-.6-4-3.39-7.25-5.35-10.62,4.71-3.16,5.97-7.06,4.79-11.97-1.98-8.23-12.32-7.01-19.52-6.8l.14,30.46c1.83.77,5.24.59,5.72-.89,1.18-3.58-.67-7.09.96-10.21,4.99.54,5.2,11.32,9.07,11.46,1.15.04,4.48.46,4.19-1.45ZM146.16,705.06c-.98,2.2-3.23,3.5-6.88,3.04-.38-2.21-1.31-5.8.2-8.48.78-1.38,4.09-.26,5.21.49,1.3.87,2.02,3.7,1.46,4.95Z"/><path class="cls-92" d="M129.17,723.39l-8.49-29.81-7.18-.07-9.04,29.78c-.4,1.32,4.12,1.56,5.09.88.97-.68,1.13-2.98,2.2-4.96,1.25-2.32,8.51-2.21,9.99.03,1.38,2.08,1.1,5.16,2.78,5.22,1.05.04,5.07.44,4.64-1.06ZM119.3,711.59c-.09,1.22-4.5,1.31-4.88-.12-.85-3.18,1.1-6.28,2.33-9.31,1.3,2.75,2.78,6.29,2.55,9.43Z"/><path class="cls-29" d="M727.35,219.52c-51.65,43.47-79.93,74.73-86.3,145.65,10.02,2.51-20.17,17.39-22.25,18.61l-90.48,52.82c-23.67,13.82-37.74,36.7-36.73,63.56-2.73,1.38-5.78,2.19-8.75,2.84-2.06-23.56,7.13-46.47,25.91-62.19,11.02-10.06,22.92-16.67,37.32-25.19l-62.83-48.43c-1.04,49.85-32.7,76.17-68.19,103.55-9.08,7.53-17.16,14.83-23.39,24.74-13.38,21.26-1.46,69.57-86.11,79.56-11.7,1.38-22.89,1.55-35.64,1.93-6.21,12.93-15.72,22.5-25.13,33.06,6.48,7.02,56.89,40.71,57.06,42.34l.48,4.56c-7.68,2.64-43.02-25.76-52.35-32.64l-18.91-13.96c6.96-6.65,35.39-33.91,28.54-42.9s-16.76-14.52-25.18-21.93c-6.87-6.05-12.47-12.52-18.85-19.14-16.81-17.43-16.32-43.49.57-60.25,20.64-20.48,47.85-33.33,62.23-49.85,10.04-11.52,10.23-26.45,1.14-38.51-7.82-10.37-10.33-32.82.43-43.3,14.09-13.73,79.98-26.63,101.14-28.1,12.91-.9,22.36-2.13,32.12-10.59l65.53-56.8,28.85-25.87c9.64-8.64,20.53-14.53,33.29-13.82,21.94,1.21,45.08-1.49,58.42-20.42,5.98-8.49,5.88-18.23-.54-26.23l-12.57-15.65c-4.86-6.06-5.18-13.08.41-19.3,7.71-8.58,15.67-17.02,23.85-24.94,4.95-4.79,10.4-4.84,16.1-.66l88.38,64.83,30.24,22.89c-11.14,9.92-23.54,26.32-17.83,39.73Z"/><path class="cls-99" d="M270.23,567.23c-14.16-20.7-41.68-31.65-53.77-54.57-8.04-15.24-3.47-33.04,9.41-44.09,11.65-10,23.5-19,36.69-27.53,9.39-6.08,17.54-12.38,24.15-20.75,10.21-12.94,11.11-30.84,1.53-44.98s-9.26-34.58,5.62-39.79c27.41-9.6,55.63-17.55,84.91-20.61,12.28-1.28,23.93.14,34.48-7.2l37.7,29.94,23.14,18.97c1.76,39.23-13.81,65.5-43.43,90.21l-31.04,25.89c-13.73,11.45-21.76,26.71-25.01,43.82-7.35,38.83-46.49,49.14-81.09,50.75-7.63.35-14.47,1.53-23.29-.07Z"/><path class="cls-15" d="M411.05,393.89c3.37,11.99,1.89,23.52-5.48,32.61s-17.92,11.94-30.07,12.53c-21.66,1.05-32.69,26.36-26.41,48.81,3.51,12.55.37,23.99-9.98,32.03-8.49,6.6-17.84,9.53-28.27,11.48-29.41,5.5-57.66-13.98-57.69-39.77-.01-12.71,7.91-22.64,17.71-29.91,17.04-12.64,42.59-12.97,47.98-44.04,2.06-11.89,8.22-21.43,15.6-30.28,11.51-9.42,24.32-12.83,39.49-13.12,15.98-.31,29.16,5.9,37.12,19.65Z"/><path class="cls-91" d="M411.05,393.89c-7.96-13.76-21.14-19.96-37.12-19.65s-27.98,3.7-39.49,13.12c-5.16-4.19-10.67-8.77-15.12-14.49-6.34-8.15-4.1-19.05,3.56-24.8,10.78-8.09,24.09-6.96,32.64,3.58,1.89,2.33,6.72,2.02,9.15,3.54,5.78-7.9,12.9-14.36,22.7-15.78,18.47-2.69,34.56,9.94,34.95,28.36.18,8.37-1.63,15.57-6.61,22.42-1.4,1.93-2.07,4.79-4.65,3.71Z"/><path class="cls-50" d="M468.37,340.31l-48.84-38.92,82.41-71.4c7.48-6.48,21-21.27,31.56-21.61l27.26-.88c24.32-.78,54.42-19.76,51.69-44.87-.75-6.93-4.38-12.34-8.46-17.6-4.59-5.7-9.57-10.42-12.93-17.26,7.72-11.82,17.1-21.5,28.11-30.53l79.48,58.59,33.9,24.63c-10.07,10.28-17,22.68-16.41,36.73-45.75,39.4-77.88,75.54-82.66,138.19l-1.78,10.62-75.85,43.7c-30.78-22.43-58.35-46.17-87.49-69.39Z"/><path class="cls-7" d="M612.71,255.21c.47,1.6,1.53,2.53.99,4.37-.4,1.38-2.22,1.89-3.26,3.4-2.89,4.22-2.9,11-7.98,14.08-6.27,3.8-14.05-1.12-15.76-8.43-16.61,7.69-9.88,21.97-22.28,24.85-2.76.64-5.3-2.17-7.24-3.66-3.5-2.7-7.9,4.59-10.83,1.65-1.71-1.71,1.27-3.55.9-5.29-.99-4.65-7.49-7.89-11.67-7.19l-1.38,8.33c-1.78,10.77-23.18,18.32-25.65,22.49-.83,1.4-9.44,12.66-10.83,13.33-8.19-5.11-11.08-15.5-9.93-26.1,1.61-14.85,20.04-38.57,37.97-30.26,7.12-13.42,19.08-23.56,33.7-16.92,3.96-9.07,10.7-17.6,20.99-19.21,13.68-2.13,26.18,8.13,26.51,21.24l5.74,3.31Z"/><path class="cls-66" d="M598.98,299.7c-3.77-.04-11.21-3.61-14.37.03-10.65,12.84-25.6,17.55-40.93,12.1-4.07,9.31-11.04,16.11-20.05,17.65.63-2.02-2.73-.65-3.19-1.49-1.58-2.85,1.07-10.03-2.41-11.84-7.15-3.72-2.7,12.09-5.24,13.24-3.7.92-6.82-1.35-10.19-2.47-2.04-.68-3.31-2.81-4.87-3.79,1.39-.67,10-11.94,10.83-13.33,2.47-4.17,23.87-11.71,25.65-22.49l1.38-8.33c4.18-.7,10.68,2.54,11.67,7.19.37,1.75-2.6,3.58-.9,5.29,2.93,2.94,7.33-4.35,10.83-1.65,1.94,1.5,4.48,4.31,7.24,3.66,12.4-2.88,5.67-17.17,22.28-24.85,1.71,7.31,9.49,12.23,15.76,8.43,5.08-3.08,5.09-9.86,7.98-14.08,1.03-1.51,2.85-2.02,3.26-3.4.53-1.84-.52-2.77-.99-4.37,5.32,3.07,9.61,8.24,11.26,14.76,3.42,13.54-4.63,27.06-18.62,28.57-2.49.27-4.51.74-6.36,1.16Z"/><path class="cls-80" d="M598.98,299.7c.25,7.52-16.47,19.65-23.87,21.15-5.76,1.17-7.41,5.09-11.53,7.77-11.37,7.38-24.77,12.4-37.14,18.74-.54.28-22.3,4.22-27.56-3.96-2.16-3.36,2.08-7.02,2.62-10.1l1.1-6.37c3.36,1.12,6.48,3.39,10.19,2.47,1.09,3.82-.03,7.84.44,12.63.24,2.43,5.9,2.51,6.38,0,.85-4.42-.06-8.27.4-12.37,1.62-.42,2.68,0,3.62-.17,9-1.55,15.98-8.35,20.05-17.65,15.33,5.45,30.28.74,40.93-12.1,3.16-3.64,10.6-.06,14.37-.03Z"/><path class="cls-7" d="M660.97,149.99c-1.81,1.42,9.75,3.84,9.81,3.96l1.38,2.54c1.18,2.18,6.48,6.35,4.3,8.83-3.67,4.18-9.49,6.78-9.21,13.25.07,1.68.12,2.99-1.3,4.14-2.12,1.7-6.14-2.93-8.75-1.57-7.66,4-6.98,11.69-14.9,16.12-11.38-7.37-4.68-6.81-9.95-12.54-2.45-9.26.36-19.22,5.77-26.17,6.35-8.16,14-9.64,22.84-8.56Z"/><path class="cls-98" d="M674.58,198.03c-1.77,1.49-3.81,3.25-6.19,3.47h-4.89c-.49-3.79.64-7.31-.48-10.93-.61-1.96-5.6-2.02-5.69-.55l-.67,11.81c-3.14-.17-6.21-1.3-6.86.97-9.22-1.77-15.86-9.48-17.44-18.56,5.26,5.73-1.44,5.17,9.95,12.54,7.91-4.43,7.24-12.12,14.9-16.12,2.61-1.36,6.63,3.27,8.75,1.57,1.43-1.14,1.38-2.46,1.3-4.14-.28-6.47,5.54-9.07,9.21-13.25,2.18-2.49-3.12-6.66-4.3-8.83l-1.38-2.54c-.06-.11-11.62-2.54-9.81-3.96,10.42,1.27,17.74,7.87,19.99,18.75s1.79,22.87-6.38,29.78Z"/><path class="cls-9" d="M607.85,352.08c-7.42,8.97-13.48,7.78-23.53,7.64-6.05-.09-12.4-7.01-11.16-12.73.25-1.13.69-4.16,1.28-5.09,4.5-7.03,14.92-11.57,22.23-9.02,4.69,1.64,8.81,2.25,11.08,6.01,2.42,4.01,3.56,9,.1,13.19Z"/><path class="cls-22" d="M651.07,203.52c1.1.37,4.72-1.11,5.31.6,1.54,4.5-.21,9.13.56,14.4.28,1.93,5.47,2.21,5.94.52,1.41-5.07.05-10.24.67-15.75,1.51-.42,4.35,1.19,4.85-1.31,2.38-.22,4.42-1.98,6.19-3.47-.08,1.67,1.65.39,2.72.98-.23,6.03-.44,11.5-1.9,17.72-2.44,10.35-33.15,11.46-36.77,1.36,0-.01,4.5-15.96,12.44-15.05Z"/><path class="cls-8" d="M668.4,201.51c-.49,2.5-3.34.89-4.85,1.31-.62,5.51.74,10.68-.67,15.75-.47,1.69-5.66,1.41-5.94-.52-.77-5.27.98-9.9-.56-14.4-.59-1.71-4.22-.23-5.31-.6-.69-.28-1.1-.21-1.26-.24.65-2.27,3.72-1.14,6.86-.97l.67-11.81c.08-1.47,5.08-1.41,5.69.55,1.13,3.62,0,7.14.48,10.92h4.89Z"/><path class="cls-85" d="M523.64,329.48c-.94.16-2-.25-3.62.17-.47,4.1.45,7.95-.4,12.37-.48,2.51-6.15,2.44-6.38,0-.46-4.79.65-8.8-.44-12.63,2.54-1.15-1.91-16.96,5.24-13.24,3.48,1.81.83,8.99,2.41,11.84.46.84,3.83-.54,3.19,1.49Z"/></g><g class="cls-2"><g id="Expanded_Art"><path class="cls-90" d="M26.38,233.62v138.03c-19.13-45.1-48.18-98.57,0-138.03Z"/><polygon class="cls-29" points="968.18 233.27 968.18 219.29 974.85 224.29 968.18 233.27"/><path class="cls-6" d="M968.18,309.38v-76.11l6.67-8.98c15.48,11.62,24.27,37.13,13.34,54.07l-20.01,31.02Z"/></g></g></g></g><circle class="cls-61" cx="39.86" cy="671.51" r="39.81"/><g id="Generative_Object-3"><path class="cls-4" d="M10.11,697.91c.04-.08-.11-.21-.14-.33.23-.32.61-.45.84-.71,1.1,1.14,2.06,2.08,3.17,2.96l2,1.58c1.99,1.58,4.16,2.84,6.46,3.98,14.63,7.24,33.35,4.44,44.69-6.93l1.28-1.28c4.74-4.75,7.87-10.79,9.25-17.32l.45-2.15c.59-2.81.58-5.7.45-8.54.21.12.51.13.84.07.12-.12-.08-.4-.11-.54.19-.25.1-.52.01-.81-.09-.31-.05-.69-.1-1.05-.39-3.37-1.16-6.61-2.41-9.75-.04-.1-.08-.16-.09-.26,0-.05-.03-.16.08-.16,1.32,3.29,2.32,6.73,2.6,10.38l.16,2.11c.74,9.59-2.29,18.98-8.14,26.58-7.23,9.4-18.32,15.09-30.15,15.52s-23.46-4.46-31.17-13.36Z"/><path class="cls-64" d="M56.21,635.19c.02.1-.07.04-.21.04-.05.61-.95.68-.61,1.13-17.72-7.47-37.78-1.39-48.24,14.8-2.51,3.89-4.32,8.16-5.26,12.63s-1.13,8.88-.44,13.3c-.33-.14-.74-.18-1.06,0-1.85-13.32,3.14-26.78,13.38-35.69,6.65-5.78,15.03-9.2,23.88-9.66,6.41-.34,12.78.82,18.57,3.45Z"/><path class="cls-65" d="M69.12,644.5c3.26,3.58,5.87,7.7,7.68,12.18-.11,0-.08.11-.08.16,0,.09.05.16.09.26,1.24,3.14,2.01,6.38,2.41,9.75.04.36,0,.75.1,1.05s.18.56-.01.81c.04.13.24.42.11.54-.33.06-.63.05-.84-.07-.16-3.24-1.05-7.2-2.09-10.37-.65-1.97-1.53-3.73-2.44-5.56-.23-.46-.48-.83-.74-1.28-1.39-2.37-3.01-4.52-4.9-6.54-.22-.23-.38-.42-.51-.62-.13-.08.62-.8.56-.82.22.06.37.6.68.5Z"/><path class="cls-102" d="M69.12,644.5c-.32.09-.46-.45-.68-.5.05.01-.69.74-.56.82-.07.03-.09.03-.13.03-.08,0-.09-.1-.15-.16-3.6-3.3-7.61-6.38-12.22-8.32-.34-.45.56-.52.61-1.13.14,0,.24.06.21-.04,4.65,2.12,8.72,5.3,12.47,8.88l.45.43Z"/><path class="cls-65" d="M4.63,687.73c1.76,3.13,3.41,5.88,5.85,8.55l.55.61c.35.39.68.74,1.04,1.08l1.17,1.08c.26.24.67.43.74.79-1.11-.88-2.07-1.82-3.17-2.96-.23.26-.61.39-.84.71.03.12.18.25.14.33-2.56-2.95-4.84-6.15-6.46-9.75l.73-.34s.04-.14.09-.17c.05-.03.12.02.17.07Z"/><path class="cls-102" d="M1.44,677.09c.56,3.6,1.6,7.19,3.18,10.35.04.08.02.19.02.28-.04-.05-.12-.1-.17-.07-.05.03-.05.15-.09.17l-.73.34c-1.59-3.54-2.74-7.23-3.27-11.07.31-.17.73-.13,1.06,0Z"/><path class="cls-72" d="M55.38,636.36c4.6,1.94,8.62,5.02,12.22,8.32.06.06.07.16.15.16.04,0,.07,0,.13-.03.13.2.29.4.51.62,1.89,2.01,3.52,4.17,4.9,6.54.26.45.52.82.74,1.28.91,1.83,1.79,3.59,2.44,5.56,1.04,3.16,1.93,7.13,2.09,10.37.14,2.85.15,5.74-.45,8.54l-.45,2.15c-1.38,6.52-4.52,12.57-9.25,17.32l-1.28,1.28c-11.34,11.37-30.07,14.16-44.69,6.93-2.3-1.14-4.47-2.4-6.46-3.98l-2-1.58c-.07-.36-.48-.55-.74-.79l-1.17-1.08c-.36-.34-.69-.69-1.04-1.08l-.55-.61c-2.44-2.67-4.09-5.41-5.85-8.55,0-.09.03-.2-.02-.28.79-.27,1.61-.48,2.43-.59,0,.25.13.22.22.19,2.28,4.71,5.54,8.91,9.65,12.29,5.1,4.21,11.34,6.91,17.86,7.81,10.17,1.4,20.41-1.51,28.27-8.08s12.61-16.38,12.89-26.75c.12-4.42-.66-8.8-2.15-12.97-1.32-3.7-3.25-7.09-5.68-10.17-5.56-7.04-13.51-11.81-22.35-13.29-4.38-.74-8.76-.6-13.11.26-4.92.97-9.5,2.99-13.6,5.92-5.33,3.8-9.52,8.87-12.18,14.84-.1-.01-.16-.03-.22.1-.84,1.92-1.56,3.83-2.02,5.89-.11.48-1.38.34-2.12.76-.21.12-.39.25-.63.15.94-4.47,2.75-8.74,5.26-12.63,10.46-16.19,30.52-22.27,48.24-14.8Z"/><path class="cls-42" d="M6.87,656.88c-4.23,9.5-4.39,20.1.4,30.15-.09.03-.22.06-.22-.19-.82.11-1.64.32-2.43.59-1.58-3.17-2.62-6.75-3.18-10.35-.69-4.41-.48-8.95.44-13.3.23.1.42-.04.63-.15.75-.42,2.02-.28,2.12-.76.47-2.06,1.19-3.98,2.02-5.89.06-.13.11-.11.22-.1Z"/><path class="cls-51" d="M7.27,687.04c-4.79-10.05-4.63-20.65-.4-30.15,2.66-5.97,6.85-11.04,12.18-14.84,4.1-2.92,8.68-4.95,13.6-5.92,4.35-.85,8.73-.99,13.11-.26,8.84,1.49,16.79,6.25,22.35,13.29,2.43,3.08,4.36,6.47,5.68,10.17,1.49,4.18,2.27,8.56,2.15,12.97-.29,10.37-4.96,20.12-12.89,26.75s-18.1,9.49-28.27,8.08c-6.51-.9-12.76-3.6-17.86-7.81-4.1-3.38-7.37-7.58-9.65-12.29Z"/><path class="cls-45" d="M55.81,644.59c2.8,2.68,5.01,5.95,6.23,9.76,1.15,3.56,1.41,7.17.82,10.87-.52,3.23-1.49,6.25-2.84,9.22-1.71,3.78-3.77,7.36-6.19,10.75-3.92,5.49-8.14,10.66-12.62,15.68-.48.53-.9.85-1.6.82-.61-.03-1.03-.35-1.47-.85-2.59-2.97-5.24-5.87-7.51-9.03-.08-.42.43-.55.66-.82s.5-.42.69-.61c1.33-1.29,2-1.86,3.22-3.29l1.06-1.23c.23-.27.44-.47.64-.76l.86-1.26c.36-.52.54-1.09.78-1.7.11-.29-.06-.55-.01-.85,10.55.7,19.03-7.02,20.38-17.03.48-3.56-.16-7.48-1.65-10.45.69,2.21,1.45,4.27,1.55,6.49-.24-.23-.64-.21-.99-.09.65,4.49-.15,8.56-2.56,12.28-.04.07-.06.13-.06.17.01.06.11.16.17.09-.26.32-.39.71-.82.95-.23.13-.32.43-.5.64-3.52,4.12-8.65,6.58-14.07,6.63-2.33.02-4.43-.23-6.63-1.03-4.47-1.62-8.21-4.75-10.47-8.87-2.52-4.59-3-9.99-1.5-14.91.61.04.92.48,1.83.53-.39.82-.29,1.64-.58,2.17.2.08-.13.77.17.67l-.1,1.61c-.09.03-.07-.07-.19-.2l-.04,2.05.14,1.05c.05.39.3,1.78.41,2.07.17.43.21.94.4,1.36.41.89.67,1.86,1.21,2.65-.07.04-.12.17-.06.15.17-.06.08.12.12.14.15.1.33.37.33.56,0,.04.12.14.04.19.1.05.16.07.23.12.09.06-.05.14-.02.18.07.08.17.04.23.14.03.06,0,.09-.06.2.36-.05.28.31.42.38.15.08.24.3.28.4.11.28.83.81,1.01,1.19.13.28.55.67.82.82.37.21.53.46.84.71,2.69,2.12,5.74,3.58,9.12,4.09.52.08,1.04,0,1.47.15.23.08.37.04.61.03,1.73-.06,3.41-.35,5.06-1.01,1.85-.74,3.62-1.67,5-3.04.08-.08.07-.31.31-.43.25-.12.52-.4.57-.64,2.35-2.12,4.07-4.93,4.94-8.01,1.66-5.86.14-12.19-4.04-16.66.11-.19-.45-.48-.48-.66,0-.05.08-.2.05-.24-.45-.54-1.02-.86-1.53-1.33l-.06-.15c-.02-.06-.07-.08-.17,0l-2.12-1.34c.88.56-1.35-.68-.79-.39-.26.03-.48-.17-.66-.36-.09.03-.25.1-.24.04.03-.12-.04-.2-.12-.06-1.24-.54-2.81-.94-4.34-1.09-1.04-.11-2.11.02-3.21-.03.02.27.04.24-.17.16l-.8-.13c.04-.6-.04-1.14-.1-1.67,5.99-.79,11.67,1.19,16.11,5.52.58-.81,1.15-1.39,1.82-2.31.27-.37.79-.65.76-1.14Z"/><path class="cls-89" d="M51.85,649.78c-3.94-4.2-9.83-6.07-15.53-4.93-7.23,1.45-12.51,7.48-13.51,14.69-.3.1.03-.6-.17-.67.3-.54.19-1.35.58-2.17-.91-.06-1.23-.49-1.83-.53,1.18-3.89,3.43-7.41,6.8-9.94,2.68-2.01,5.7-3.28,8.94-3.71.07.54.14,1.08.1,1.67l.8.13c.2.08.18.11.17-.16,1.1.06,2.16-.07,3.21.03,1.52.15,3.09.56,4.34,1.09.08-.13.15-.05.12.06-.01.05.15-.02.24-.04.19.19.4.39.66.36-.57-.29,1.66.95.79.39l2.12,1.34c.09-.08.14-.06.17,0l.06.15c.51.47,1.09.78,1.53,1.33.03.04-.06.19-.05.24.03.18.59.47.48.66Z"/><path class="cls-82" d="M22.28,661.15v1.64c0,4.99,2.81,9.58,6.75,12.58,6.52,4.97,15.44,4.54,21.5-.92-.05.25-.32.52-.57.64-.23.12-.22.35-.31.43-1.38,1.37-3.15,2.3-5,3.04-1.6.64-3.24.94-4.92,1.01-.24.01-.64,0-.87-.06-.4-.1-.87-.04-1.35-.11-3.38-.51-6.43-1.98-9.12-4.09-.31-.25-.47-.51-.84-.71-.27-.15-.69-.55-.82-.82-.18-.38-.89-.91-1.01-1.19-.04-.1-.13-.31-.28-.4-.14-.08-.06-.43-.42-.38.07-.11.09-.14.06-.2-.06-.1-.16-.06-.23-.14-.03-.04.1-.12.02-.18-.07-.05-.13-.07-.23-.12.08-.05-.04-.15-.04-.19,0-.19-.18-.46-.33-.56-.04-.02.05-.2-.12-.14-.06.02,0-.11.06-.15-.54-.79-.8-1.76-1.21-2.65-.19-.42-.23-.92-.4-1.36-.11-.29-.36-1.68-.41-2.07l-.14-1.05.04-2.05c.12.13.1.23.19.2Z"/><path class="cls-78" d="M38.53,681.28c-6.85-.46-12.38-4.43-15.76-10.07-.04-.07-.11-.06,0-.13.05-.03.07-.08.12,0,2.26,4.12,6,7.25,10.47,8.87,2.19.8,4.3,1.05,6.63,1.03,5.42-.05,10.56-2.51,14.07-6.63.18-.22.27-.52.5-.64.43-.24.56-.63.82-.95,1.74-2.2,2.67-4.92,3.22-7.61.32-1.57.29-3.2.22-4.84-.1-2.22-.86-4.29-1.55-6.49,1.49,2.98,2.12,6.9,1.65,10.45-1.34,10.01-9.82,17.73-20.38,17.03Z"/><path class="cls-57" d="M55.81,644.59c.03.49-.49.76-.76,1.14-.68.92-1.24,1.5-1.82,2.31-4.43-4.32-10.11-6.3-16.11-5.52-3.24.43-6.26,1.7-8.94,3.71-3.37,2.53-5.61,6.05-6.8,9.94-1.5,4.92-1.02,10.32,1.5,14.91-.05-.07-.07-.03-.12,0-.1.07-.04.06,0,.13,3.38,5.64,8.91,9.62,15.76,10.07-.05.3.13.56.01.85-.24.61-.42,1.17-.78,1.7l-.86,1.26c-.19.28-.41.49-.64.76l-1.06,1.23c-1.22,1.42-1.89,1.99-3.22,3.29-.2.19-.47.34-.69.61s-.75.41-.66.82c-2.54-3.09-4.82-6.42-6.97-9.86-2-3.21-3.71-6.48-5.05-9.99s-2.12-6.98-2.18-10.69c-.05-3.26.76-6.34,2.07-9.27,2.2-4.92,5.96-8.88,10.81-11.32,8.86-4.46,19.45-2.82,26.51,3.92Z"/><path class="cls-21" d="M19.71,652c-.74,1.15-1.04,2.29-1.69,3.5.99-4.5,3.53-8.62,7.23-11.5,2.51-1.95,5.34-3.37,8.42-3.97-6.05,2.23-10.96,6.24-13.96,11.98Z"/><path class="cls-103" d="M51.42,649.78c4.19,4.46,5.71,10.79,4.04,16.66-.88,3.09-2.59,5.89-4.94,8.01-6.06,5.46-14.98,5.89-21.5.92-3.94-3-6.74-7.59-6.74-12.58v-1.64s.1-1.61.1-1.61c1-7.21,6.28-13.24,13.51-14.69,5.7-1.14,11.59.73,15.53,4.93Z"/><path class="cls-44" d="M47.61,675.84c-4,2.35-8.66,2.82-13.02,1.4-5.97-1.95-10.39-7.27-11.14-13.55-1-8.31,4.45-16.31,12.75-18.13,9.13-2.01,17.72,4.28,19.32,13.26,1.2,6.74-1.98,13.56-7.91,17.03Z"/></g><circle class="cls-57" cx="922.44" cy="48.51" r="34.07"/><g id="Generative_Object-4"><path class="cls-84" d="M939.13,78.16c-.75.47-4.01,1.99-4.95,2.27-.37.11-1.42.59-1.84.63-.08,0-2.29.7-3.04.8-.14.02-2.67.4-2.49.44-.41-.09-.69-.02-1.07.11-.55.19-1.17-.05-1.67.07-.63.14-2.38.04-3.1.02l-1.64-.06-.69-.15c-.25-.05-.64.12-.87-.06-.17-.12-.72-.11-.98-.16l-2.3-.46c-6.79-1.37-14.31-6.35-18.61-11.87l-.6-.77c-1.38-1.78-2.48-3.66-3.49-5.65-.31-.62-1.75-4.09-1.76-4.4,0,.15-.4-1.15-.29-1.12.03-.06-.06-.08-.09-.1-.1-.04.03-.18,0-.22-.34-.68-.44-1.51-.57-2.19l-.19-.97c-.06-.29-.08-.86-.18-.98-.13-.15.02-.55-.04-.73-.23-.69-.2-1.39-.23-2.04-.01-.29-.09-.61-.08-.91.04-.96-.07-1.93.09-2.83.08-.46.02-.87,0-1.35,0-.31.2-.64.18-.95-.04-.51.12-.9.19-1.4.88-5.84,3.63-11.88,7.52-16.41l.72-.84c1.15-1.34,1.62-1.75,2.88-2.86l.57-.5c1.26-1.11,1.89-1.49,3.21-2.41.35-.24.72-.39,1.02-.65.26-.23.59-.35.91-.53l.76-.41c1.16-.62,2.3-1.2,3.54-1.65l2.12-.77,1.54-.44c.18-.05.25-.12.47-.13.23,0,.54-.34.81-.12.17-.17.37-.23.57-.22.24.02,2.14-.34,2.34-.41.23-.08.56.08.8-.05.51-.29,1.09-.09,1.64-.17.75-.11,2.33-.28,3.13-.09.32.07.65-.07.94.05.54.21.97-.15,2,.21.29.1.57,0,.87.05l2.06.39c.18.03.39-.03.56.13.01.01,1.17.24,1.3.27.52.12,2.37.74,2.35.73.22.02.35.16.51.2.72.18,1.3.49,1.95.78,3.18,1.37,6.12,3.16,8.74,5.49l.9.8c.65.58,1.25,1.22,1.82,1.85l.57.62.58.64c.48.53.87,1.1,1.29,1.68l.74,1.03c1.58,2.2,3.24,5.56,4.07,8.02l.53,1.56c.05.14.46,1.75.47,1.77.13.27.11.64.16.87l.19.86.05.67c.01.17.47,2.03.37,2.81-.03.23.21.49.05.79-.08.14.12.34.12.5v2.7c-.01.07-.2.11-.17.15.23.37-.19,2.98-.19,2.72v.7c-.13-.17-.36,2.16-.44,1.85.09.35-.09.62-.17.92-.07.26-.04.54-.2.82-.06.1.09.32-.12.51-.14.13-.07.47-.15.68l-.41,1.17-.46,1.18c-.31.8-.62,1.56-1,2.31l-.96,1.91c-.22.44-1.98,3.22-2.16,3.46l-1.2,1.53-2.28,2.58c-.62.7-1.22,1.08-1.88,1.71l-.49.47c-.31.3-1.94,1.47-2.37,1.78-.64.47-1.34.86-2.04,1.3l-.78.5Z"/><path class="cls-55" d="M925.92,69.89c1.7-.04,9.14.19,10.93.95-.99.76-7.54.98-8.85.98h-10.77c-1.24,0-7.85-.24-8.8-.98.74-.39,1.49-.42,2.29-.52,2.82-.33,5.6-.29,8.33-.43,2.31.64,4.59.05,6.87,0Z"/><path class="cls-53" d="M944.95,28.18c-2.42,2.18-4.84,4.37-7.1,6.81-6.5,7.01-10.88,14.85-14.61,23.59l-.98,2.31c-3.57-5.79-8.12-10.88-13.44-14.84,1.86-1.87,3.63-3.79,5.37-5.82.49.52.89,1.02,1.31,1.58,1.83,2.46,3.35,5.08,4.61,7.96,3-6.77,6.69-13.04,11.04-18.96,1.74-2.36,3.58-4.56,5.59-6.67,1.08-1.13,2.19-2.16,3.47-3.22,1.18,2.35,2.53,4.52,4.08,6.59.2.26.39.52.66.67Z"/><path class="cls-68" d="M908.82,46.05c5.31,3.96,9.86,9.05,13.44,14.84l.98-2.31c3.72-8.74,8.1-16.58,14.61-23.59,2.26-2.44,4.68-4.63,7.1-6.81.07.04.23-.04.25.05.01.05-.04.14-.1.21-3.18,3.36-6.23,6.78-9.13,10.4-1.17,1.46-2.24,2.88-3.31,4.41-2.75,3.96-5.18,8.07-7.41,12.4l-3.4,6.82c-4.16-5.91-9.09-10.99-15.34-14.68.89-.54,1.58-1.16,2.32-1.73Z"/><path class="cls-86" d="M929.65,30.67c-5.36-2.29-11.76-1.74-16.76,1.26-2.6,1.55-4.77,3.68-6.4,6.29-1.34,2.14-2.18,4.45-2.56,6.89-.56,3.64-.01,7.57,1.88,10.67.58.95.96,1.97,1.64,2.94,2.46,3.48,5.93,5.97,10.04,7.12,6.67,1.86,13.64-.19,18.27-5.24.1.24.24.52.5.59-3.35,3.75-8.21,6-13.28,6.33-6.01.4-11.84-1.68-16.28-5.71-2.82-2.56-4.8-5.88-5.72-9.58-.02-.08.04-.15-.04-.17-.03-.01-.09,0-.13,0-.87-4.83-.04-9.8,2.4-14.1,1.57-2.77,3.68-5.17,6.22-7.08,6.44-4.83,14.72-5.84,22.06-2.48-.65.82-1.27,1.51-1.83,2.26Z"/><path class="cls-25" d="M925.92,69.89c-2.27.05-4.56.64-6.87,0-9.2-1.5-16.59-8.62-18.25-17.81.05,0,.1,0,.13,0,.08.02.02.09.04.17.92,3.7,2.9,7.02,5.72,9.58,4.44,4.03,10.27,6.11,16.28,5.71,5.06-.34,9.93-2.59,13.28-6.33,1.19-1.33,2.31-2.67,3.17-4.35,1.3-2.55,2.09-5.27,2.14-8.14-.35-.07-.66,0-1.02-.02-.03.32-.02.56,0,.87-.1,0-.14-.02-.18-.06.2-3.5-.81-6.86-2.6-9.87l2.86-3.44c2.74,3.85,4.13,8.65,3.86,13.45-.57,10.16-8.64,18.68-18.55,20.25Z"/><path class="cls-56" d="M929.65,30.67l-1.06,1.42c-3.56-1.32-7.39-1.43-11.03-.4-2.94.83-5.44,2.4-7.61,4.46,0-.02-.13-.1-.1-.12.02,0,1.48-1.28,1.73-1.49l.36-.3,1.56-1.05c-.02-.45-.7-.83-.6-1.27,5.01-3,11.4-3.55,16.76-1.26Z"/><path class="cls-13" d="M909.94,36.16c-1.62,1.82-3.08,3.76-4.05,6.06-1.04,2.46-1.53,5.05-1.35,7.68-.07,0-.16-.09-.16-.15.07-.81-.26-.71.04-2.28.04-.21-.07-.42.07-.65.08-.13.01-.39-.01-.6-.01-.11.1.01.12-.03.04-.11,0-.2-.04-.31-.02-.06.15-.12.15-.19,0-.1-.08-.2-.06-.28.07-.2.5-.18-.72-.29.38-2.44,1.22-4.76,2.56-6.89,1.63-2.61,3.81-4.74,6.4-6.29-.1.44.58.82.6,1.27l-1.56,1.05-.36.3c-.25.2-1.71,1.48-1.73,1.49-.03.02.1.1.1.12Z"/><path class="cls-16" d="M936.25,61.2c-.26-.07-.4-.35-.5-.59,2.8-3.05,4.37-7,4.6-11.11.04.03.08.06.18.06-.02-.31-.02-.55,0-.87.36.02.68-.04,1.02.02-.04,2.87-.84,5.59-2.14,8.14-.86,1.68-1.98,3.02-3.17,4.35Z"/><path class="cls-81" d="M904.54,49.91c.09,2.03.59,3.98,1.26,5.88-1.89-3.1-2.44-7.03-1.88-10.67,1.22.11.79.09.72.29-.02.07.06.17.06.28,0,.07-.17.13-.15.19.05.11.07.21.04.31-.02.05-.13-.07-.12.03.03.22.09.48.01.6-.14.23-.03.44-.07.65-.3,1.58.03,1.48-.04,2.28,0,.06.09.16.16.15Z"/><path class="cls-38" d="M940.61,36.19l-2.86,3.44c-.09-.15-.35-.35-.33-.56l2.81-3.45c.26.16.28.43.39.57Z"/></g></svg>