<?xml version="1.0" encoding="UTF-8"?><svg id="Layer_1" xmlns="http://www.w3.org/2000/svg" viewBox="0 0 1435.52 595.07"><defs><style>.cls-1{fill:#0062ff;}.cls-1,.cls-2,.cls-3{stroke:#0062ff;stroke-miterlimit:10;}.cls-2{fill:#fff;}</style></defs><path class="cls-1" d="M817.1,517.95c-.67,2.89-1.13,4.13-.82-.07l.82.07Z"/><path class="cls-1" d="M1422.14,462.61c-6.21-1.78-11.21-4.07-17.55-4.67-13.65-1.29-34.02,4.32-36.24-12.35l-4.18-31.38-7.29-73.19c-.52-5.18-2.05-10.03-5.09-14.12-4.99-6.73-9.66-13.51-15.19-19.78l-15.06-17.04-6.37-7.54-18.41-21.6c-1.74-2.04-3.34-3.94-3.03-6.39.29-2.37,1.82-5.17,4.68-6.2l36.62-13.09c16.35-5.85,32.6-10.34,48.28-18.1,6.6-3.27,10.43-11.68,11.44-18.49,1.09-7.28-1.47-13.62-3.71-19.94-5.21-14.67-17.5-23.87-32.94-25.47-10.66-1.1-30.17,2.91-35.25,8.59l-6.7,7.47c2.5-13.48-4.21-35.58-7.81-47.91,11.21-5.98,12.33-20.25,14.35-30.43,1.3-6.51,3.76-12.12,2.27-19.38-.96-4.71-5.85-9.21-6.37-13.94-1-8.97-1.12-17.36-6.54-25.42-11.3-16.81-31.97-19.16-51.24-16.56-8.87,1.19-17.2,4.75-25.1,8.78-1.22.62-2.13,1.75-3.16,2.67l-12.81,17.26s-1.26-.02-1.26-.02c1.09-1.61,2.17-3.21,3.26-4.82,1.98-2.92,3.96-5.85,5.94-8.77,1.81-3.08,4.21-5.4,7.03-7.55,1.47-1.04,3.05-1.9,4.66-2.7,3.59-1.77,7.38-3.15,11.21-4.28,3.21-.94,6.5-1.77,9.83-2.14.51-.06,1.02-.1,1.54-.13,19.41-.79,38.58-1.14,51.3,17.36,5.61,8.16,5.58,17.72,7.32,27.12.82,4.45,4.48,9.09,5.81,13.55,2.35,7.93-.58,13.8-1.98,21.19-2.15,11.36-3.83,23.04-13.46,31.33,4.4,13.28,6.4,25.54,8.1,39.32,12.38-13.3,39.91-15.78,55.71-6.75,14.44,8.24,22.42,26.42,21.69,42.31-.52,11.1-7.16,19.38-16.92,22.92l-51.98,18.83c-9.26,3.35-17.88,6.86-27.28,9.66-2.12.63-3.33,2.38-4.05,4.09-.76,1.8-.1,4.04,1.54,5.91l17.71,20.27c5.68,6.51,11.43,12.43,16.75,19.27,7.94,10.19,16.94,19.09,23.33,30.52,2.62,4.69,3.04,10.73,3.58,16.07l4.64,45.85c1.77,17.55,3.35,34.36,5.99,51.71.64,4.16,2.49,9.22,6.63,10.59,13.74,4.57,32.66-2.85,45.76,7.51Z"/><path class="cls-1" d="M623.47,17.19l-.96,2.99c.23-1.02.55-2.02.96-2.99Z"/><path class="cls-1" d="M1085.87,262.65l-.02,45.09,62.02.09,10.22-19.27c1.39-2.63,1.21-5.81,3.77-7.84-2.81,9.81-8.66,19.52-13.11,28.79l-4.91-.78h-59.96s0-48.43,0-48.43l27.04-.18c11.12-.08,21.18-6.74,23.41-17.54l4.07,9.61c4.47,10.56,28.3,18.13,25.35,15.22.05.05,3.26,5.08,3.18,5.72s-2.24-.34-2.44.46c-.6,2.34-.39,4.71-2.41,6.15,1.17-2.84.25-5.41,2.67-8.78-1.78-.9-3.53.15-5.96.48-11.87-7.39-15.81-8.57-24.26-22.28-4.81,8.32-12.16,13.26-21.66,13.51h-27.02Z"/><path class="cls-1" d="M199.53,23.54c-.32,1.27.11,1.48,1.31-.23-.31.44-.93.42-1.31.23Z"/><path class="cls-1" d="M1421.47,483.05c-3.83-19.3-23.02-12.46-42.06-14.62-12.21-1.39-21.2-9.96-22.46-21.95l-11.43-108.53c-3.14-6.67-8.35-12.26-13.09-17.83l-49.17-57.75c-1.19-1.4-3.03-3.54-2.32-5.58,1.78-5.08,3.59-11.69,7.03-16.02,13.16-6.61,26.97-10.27,40.83-15.44,16.19-6.04,32.4-10.49,48.05-17.83,13.8-6.47,3.99-35.52-11.1-41.28-10.74-4.1-23.7-2.07-33.85,2.42-4.55,2.01-5.53,7.48-9.26,9.63-5.71,3.29-13.02,2.18-19.03,4.6-.45.18-1.47-1.11-1.3-1.51,5.53-13.32,3.73-26.7.15-40.44-2.1-8.05-3.98-15.9-9.72-22.14-3.46-3.76,4.46-3.64,8.23-6.2,7.77-5.28,10.9-15.17,8.14-24.31,5.15-4.69,5.83-12.41,2.39-18.48-3.48-6.16-5.46-11.67-5.44-19.04.02-8.65-4.95-17.59-12.83-21.08-9.24-4.09-18.91-3.79-28.75-3.11-13.8.96-26.39,6.94-34.26,18.65-5.2,7.74-6.12,17.76-3.34,26.69l6.14,19.72-28.72,10.78-29.72,12.14c-12.66,5.17-24.81,10.5-36.69,17.13-7.74,4.32-11.53,11.07-11.18,20.17.29,7.6,1.87,15,4.06,22.32l10.73,35.75c1.67,5.58-3.95,29.18,12.06,42.29,2.18,1.79,5.8,3.86,8.71,3.99l10.64.45c1.35.06,2.26.97,1.9,2.49-3.59,15,5.9,12.7-2.53,26.86l-18.32,30.79c-.44.74-1,1.74-1.57,1.22-.49-.46-.23-1.5-.85-3.07l-1.6,4.85-78.61-.19-.41-70.51,40.12-.43c5.46-.24,13.95-3.84,13.93-10.28l-.24-69.51c-.02-3.6-2.65-6.83-5.17-8.49l-49.67-.17.05-55.79,63.94-.06c6.91,0,12.23-4.53,12.18-11.62l-.44-67.03c-.03-4.68-6.17-7.93-10.88-7.93l-241.66.07c-6.5.01-11.79,5.24-12.74,11.21l-26.53,166.86-25.16-125.98c-.79-3.97-1.35-7.42-1.82-11.24-1.94-9.25-3.57-17.97-4.81-27.47-.87-6.7-5.43-13.35-13.29-13.36l-164.71-.09c-6.61-.01-10.97,4.81-11.04,10.97l-.7,59.58c-7.62-24.72-21.71-43.71-43.77-55.05-6.4-3.29-12.43-6.77-19.38-8.52-14.79-3.73-28.7-6.4-44.42-6.4l-301.51-.05c-6.83,0-13.04,3.96-13.18,10.33l-.39,17.24c-18.44-20.96-54.33-31.57-81.64-32.21-19.64-.46-38.05,1.19-56.07,8.2-33.2,12.91-54.82,42.41-57.94,77.9-5.63,63.95,34.74,105.41,78.53,144.7-5.81-.25-11.64,2.14-16.23-.1-19.31-14.45-37.59-35.14-50.83-55.31C8.99,163.97,1.51,135.68,2.6,105.76c.35-9.47.36-17.93,3.21-27.29,6.1-20.02,17.71-38.57,34.24-51.31,11.14-8.58,21.92-14.89,35.2-19.15C108.5-2.66,153.53.22,185.3,15.29c4.23,2.01,10.9,4.07,13.98,8.07.06.07.14.14.25.18.98-3.88,8.91-17.71,22.83-17.7l305.87.25c22.48.02,57.81,8.49,75.71,22.58,4.16,3.27,8.78,5.66,12.18,9.89.58.71,1.54.08,1.79-.33,0,0,.04-.13.04-.14,0,0,6.38-21.6,6.38-21.61,2.66-4.13,7.13-7.15,11.87-8.74,6.25-2.09,12.98-2.1,19.57-2.09,47.1.09,94.19.18,141.29.27,11.06.03,23.85.89,30.3,9.87,2.92,4.06,3.96,9.14,4.93,14.05,6.68,33.84,13.37,67.68,20.05,101.52,1.49-6.2,2.85-12.36,4.03-18.62.28-1.49.57-2.98.86-4.47.94-4.79,1.91-9.57,2.73-14.38.31-1.77.61-3.54.91-5.31,1.17-6.8,2.34-13.61,3.5-20.42,1.38-8.11,3.4-16,4.31-24.2,1.64-14.85,3.76-30.04,19.74-35.64,6.24-2.19,12.97-2.52,19.58-2.37,34.9.79,69.85.07,104.79-.01,6.77-.02,13.54-.04,20.3-.07,28.4-.14,56.81-.27,85.21-.41,10.77-.05,22.75.36,30.46,7.88,5.53,5.39,7.63,13.4,8.43,21.08,1.34,12.84-.25,25.8.27,38.7.3,7.24,1.26,14.53.2,21.69s-4.54,14.44-10.91,17.89c-4.77,2.58-10.44,2.69-15.86,2.73-16.07.14-32.13.28-48.2.42.1,11.4.21,22.81.31,34.21,10.72-.35,21.45-.69,32.17-1.04,2.11-13.32,11.81-25.17,24.46-29.87-13.28,3.23-23.92,15.3-25.47,28.88l-30.26-.45c.04-9.41.09-18.82.13-28.23,14.88-1.63,29.97.75,44.87-.72,32.24-3.18,59.93-23.73,90.87-33.34-5.34-13.18-5.53-28.37-.5-41.67-5.75,9.65-7.03,21.86-3.4,32.5.89,2.62,2.04,5.59.67,7.99-.96,1.68-2.89,2.5-4.69,3.22-19,7.56-37.99,15.12-56.99,22.68,5.6-10.37,6.13-22.66,6.03-34.45-.14-15.66-1.19-31.31-3.14-46.85-.89-7.11-2.34-14.88-7.88-19.42-5.18-4.24-12.47-4.44-19.17-4.45-35.61,0-71.21-.02-106.82-.03-35.79,0-71.57-.02-107.36-.03-7.16,0-14.31,0-21.47,0-6.2,0-10.64.85-15.8,4.58-7.43,5.36-9.37,14.7-11.33,23.07-2.47,10.55-4.25,21.21-6.1,31.88q-.19,1.1-.38,2.2c-.98,5.69-1.63,11.68-2.37,17.58-.34,2.67-.57,4.79-.95,7.21-.07.47-.15.96-.24,1.46-.11.66-.21,1.35-.29,2.05-.38,3.3-.48,6.91-1.13,9.99-.9,4.34-1.77,8.67-2.32,13.08-.27,2.22-1.26,6.88-1.55,8.72-5.7-29.31-11.4-60.61-17.09-89.92-2.26-11.62-5.89-25.01-16.81-29.59-4.39-1.84-9.29-1.88-14.05-1.89-51.95-.12-103.9-.25-155.85-.37-5.15-.01-10.47.01-15.21,2.03-4.52,1.93-8.19,5.73-10.09,10.26-.02.03-.03.06-.03.09l-.96,2.99-5.32,16.74c-3.14-3.36-15.17-11.49-18.93-13.44-8.36-4.34-15.99-9.58-25.38-11.74-13.07-3-25.71-6.71-39.68-6.72l-312.82-.16c-9.79-.01-16.82,7.21-20.68,16.02C167.33,2.69,138.67-1.36,102.18,1.19c-24.25,1.7-45.94,11.01-64.72,26.18-11.88,9.58-20.69,21.72-27.49,35.47C2.88,77.19.95,92.61.55,108.71c-.77,31,7.95,59.74,25.51,85.15,11.7,16.93,30.65,37.89,47.26,50.74l-44.5.21c-5.33.03-11.07,1.91-15.12,4.6C.02,258.48.63,268.93.6,282.78c-.03,10,1.48,19.26,2.9,29.05,4.27,29.3,18.06,58.97,41.23,79.09-4.5,4.46-10.3,9.3-10.51,15.83-.43,13.3-.17,26.41.25,39.5l.86,27.04c.2,6.36,1.13,12.69,3.76,18.49,2.07,4.55,6.2,7.61,9.32,11.11.6.67-.4,1.75-.83,2.22-.58.64-1.14,1.28-1.71,1.92-1.01,1.12-2.01,2.25-3.02,3.37-.03.03-.05.06-.08.09-7.18,7.17-8.35,18.64-5.45,28.16,1.26,4.12-.63,6.88-.99,10.15-1.96,17.89,10.39,31.17,26.96,35.38,11.21,2.84,22.26,2.31,33.69-.74,2.16-.58,5.09,1.2,7.18,1.59,10.56,1.97,20.82-.06,31.13.27,10.4.34,20.14.46,30.47-.2,6.12-.4,11.92,1.31,18.28-.07,12.94-2.82,12.7,1.02,27.8.82,10.24-.14,19.62-2.86,27.46-10.9,12.11,15.32,29.37,9.82,41.62,9.75,6.69-.04,13.08,1.9,20.04.42,3.91.99,7.23,4.85,11.18,6.25,16.14,5.74,34.25,3.79,48.38-6.22,6.81,2.01,12.61-1.15,18.7-1.03,8.75.18,17.16,2.41,26.16.86,4.74-.81,10.61-1.11,15.48-.3,6.66,1.11,13-1.17,19.1-.53,11.18,1.18,21.63,2.63,32.86-.24,4.89-1.26,10.1,3.28,14.51,5.1,12.36,5.09,26.73,2.67,36.85-5.77,1.56-1.31,1.83-4.17,4.54-3.46,2.35.63,4.34,3.82,7.28,3.82l105.82-.02,32.1-.1c18.99-.06,29.39,5.06,45.84-8.68,11.1,14.22,29.26,6.82,42.15,9.11,6.42,1.14,13.28-.06,19.25,1.55,6.61,1.78,11.98,11.82,40.53,7.87,7.19-.99,12.59-6.89,19.29-8.34,6.21-1.35,12.9-1.03,19.19-1.73,4.34-.49,9,.84,13.58.77,18.09-.27,35.82-.6,54.07.16,7.25.31,13.89-.62,21.08-.83,6.97-.21,13.92,1.29,20.81-.24,12.33-2.74,18.9-14.27,18.45-26.4-.18-4.8-1.38-8.6-2.31-13.18-1.46-7.15,1.7-25-9.04-25.43-7.46-.3-15.34-1.11-22.68.23-4.02.74-6.56,1.15-10.55.15-14.87-3.7-29.54,4.64-36.54-2.84-2.18-2.32-2.3-6.17-5.44-7.44-7.14-2.89-14.4-1.27-21.54.89-4.01,1.22-8.87.79-12.84,1.09-5.97.45-8.09,3.38-11.48,7.55-2.13,2.62-7.62.14-10.36-.12-6.04-.56-11.31,1.88-17.21,1.71-9.22-.27-18.31-2.39-27.59-1.44-3.69.37-6.26,3.5-9.64,5.23-8.6-7.98-18.83-3.83-20.15-7.32-2.14-5.62-6.67-9.46-12.92-9.59-10.22-.21-20.22-.12-30.36.31-4.54.2-8.28,1.62-10.61,4.75-2.49,3.34-2.73,6.9-2.33,11.08,1.22,12.96,11.79,5.93,11.98,14.39l.57,25.02c.27,12.17,27.55,6.73,32.64,7.25,8.8.9,17.1,3.57,25.69-.63,5.12,13.77,25.17,12.38,35.58,10.38,6.12-1.18,9.99-4.74,12.74-10.19,7.15,2.27,14.93,3.36,21.73.75,4.52-1.73,7.37.33,11.5.86,15.99,2.05,41.87-1.91,55.7-.06,8.92,1.19,16.74.2,25.24-.87,2.28-.28,24.26,5.76,27.77-7.68,1.28-4.89.74-10.07.21-15.33l8.46-1.67c2.07,4.26,1.12,8.05,1.8,12.08,2.11,12.42-6.85,23.01-19.06,24.82-6.56.98-12.94-1.24-19.24-.73-8.75.71-16.92,1.28-26.02,1.24l-53.75-.19c-2.87-.01-6.48-2.6-9.13-1.96-6.69,2.59-13.37,1.01-19.82,2.56-5.21,1.26-17.01,14.81-45.92,7.13-4.56-1.21-8.44-5.71-12.44-7.13-7.7.5-14.7-1.02-22.09-1.66-10.63-.91-30.89,4.59-39.39-8.55-6.71,7.65-15.79,10.73-25.4,10l-20.02-1.54-30.79.32c-6.78.07-13.19.3-20.28.31l-25.99.04-58.89.03c-4.36,0-8.43-2.29-10.14-6.01-8.9,14.1-28.6,17.54-43.46,10.08-3.47-1.74-8.07-5.53-12.32-4.38-10.97,2.99-21.35,1.39-32.23.6-6.54-.47-12.86,2.1-19.95.42-5.41-1.29-11.95.22-17.48.62-7.85.58-14.87-.55-22.57-.97-5.42-.3-11.1,2.25-16.91.93-8.29-1.87-5.72,8.79-32.95,9.18-10.92.15-20.99-2.56-29.16-9.9-7.25,2.61-13.84-.18-20.86.16l-18.05.88c-9.22.45-17.39-2.68-22.73-10.78-6.52,8.32-16.29,11.65-26.21,10.9l-19.71-1.48c4.35.47-42.09,1.7-40.34,1.83-7.72-.57-15.26-1.18-22.96-.39-6.7.68-27.56.54-33.41-2.26-14.08,4.41-29.33,4.17-42.63-2.62-13.75-7.04-19.48-21.41-14.98-35.89l-1.91-14.54c-.66-5,2.5-9.35,4.46-13.67.46-1.01.92-1.78,1.67-2.59.57-.61,1.14-1.21,1.71-1.82.72-.76,1.43-1.52,2.15-2.29.63-.67,1.27-1.59,2.03-2.11.32-.21.71-.28,1.05-.48.25-.14.79-.7,1.06-.72,1.2-.07,2.35-.76,1.12-1.23-10.51-6.41-16.35-16.91-15.28-29.06.34-3.85-.75-7.39-.83-11.1l-.65-30.46c-.28-13.22-4.42-32.88,12.23-41.4-31.91-27.06-40.95-58.98-45.42-99.33-1.4-12.63-1.65-34.03,11.49-40.81,4.27-2.2,12.35-4.7,17.19-4.74,15.12-.11,29.83-.66,44.87.25,17.44,1.06,18.08-5.52,26.84,10.46-20.59,1.19-40.4.79-60.73.53-10.35-.14-26.96-1.2-28.18,13.71-1.54,18.69,1.37,37.34,6.54,55.69,9.39,33.35,32.37,62.28,67.79,70.52,1.53-.1.14.95-1.18.78-13.73,2.94-41.21-5.59-40.22,16.93l2.88,65.06c.36,8.3,10.72,17.59,19.2,17.56l126.19-.5,108.82-.52c6.06-.03,11.27-.2,17.1-.24l55.11-.38,141.65-1.16c7.32-.06,12.7-3.88,17.42-8.9,8.78,6.27,18.65,9.13,29.49,9.22l90.31.71,69.68.59c6.28.05,12,.18,18.39.22l54.91.35c12.44.08,24.14-4.7,31.68-14.15,8.01-10.04,6.23-25.48,1.61-36.44,2.26-13.31,5.36-24.79-2.97-40.16l67.55-.42c11.14-.06,15.83-8.11,17.4-17.76l10.24-62.61,28.53-154.18.61-1.5,12.12-57.14.92,62.73,1.13,54.59.95,67.42,1.3,70.52c.14,7.53-.54,14.45,1.73,21.75,2.06,6.57,7.78,13.91,15.25,13.97l79.62.7c-7.93,5.99-27.81.83-32.25,15.73-4.6,15.42-8.42,30.67-10.11,46.86-1.34,12.88,2.77,25.94,11.48,35.23,8.36,8.92,27.25,10.42,33.99-2.2,1.71-3.2,3.29-6.57,3.78-10.23,4.34-32.66,15.3-17.69,21.51-39.82,17.77-11.62,36.03-21.22,54.76-31.26l41.6-22.31c7.08-5.11,12.64-11.08,18.41-17.65l33.06-37.62,44.1,31.98c.65,16.59-.42,36.89,7,51.25l13.6,26.37c11.4,22.07,2.65,48.13,10.75,65.36,4.53,9.65,22.29,8.42,31.67,6.57,20.03-3.94,39.32-9.62,58.51-16.18,10.19-3.48,16.07-13.16,14.09-23.14ZM746.96,523.99l.42,34.79c-3.41.85-6.78.74-10.39-.23l-.11-34.76-12.77-.06c-.36-2.8-.51-5.11.07-8.37l34.93-.04c1.92.74,1.85,6.64.28,7.78-3.25,1.86-8.31-.28-12.43.89ZM788.6,547.11c-.93,7.74-6.81,13.06-15.2,13.05-5.22-.01-10.48-.65-13.13-5.05-4.38-7.28-4.71-18.02,1.04-24.94,5.65-6.8,17.51-6.56,23.38-.4,4.47,4.68,4.61,11.52,3.91,17.34ZM823.76,558.27c-.06,4.31-2.51,8.56-6.15,10.26-5.57,2.6-22.02,3.55-24.03-5.08,2.4-.56,5.88-1.85,8.25-1.53,2.78,2.37,4.75,3.07,8.2,2.17,3.38-.87,4.64-3.64,3.51-9.04-4.23,5.17-12.61,5.11-17.28-1-5.05-6.6-4.59-16.85-.09-23.76,4.1-6.3,11.78-6.44,16.92-2.22,1.88-3.3,8.25-3.45,10.46-1.02.69,9.94.34,21.17.21,31.22ZM858.56,543.42l-18.98.62c-1.95,1.4-.27,6.26,1.5,7.52,7.87,5.6,9.12-7.68,16.79-.8-.5,5.39-6.68,9.1-11.8,9.33-5.38.25-9.42-.62-12.93-4.09-6.79-6.71-6.06-24.86,3.74-29.17,6.07-2.67,13.56-2.17,18.2,2.9,3.22,3.51,4.35,8.93,3.48,13.69ZM874.89,549.74c-.06,2.02,1.2,3.13,3.73,2.92,3.26-.27,2.36,2.71,2.31,4.56-.09,2.66-2.58,2.24-5.02,2.6-5.48.82-10.2-1.39-10.87-7.37-.71-6.26.57-12.7-.55-18.83-1.2.04-1.8.11-2.32.02-2.14-.34-1.28-5.48-1.03-6.12.31-.79,2.47-.35,3.19-1.25,1.39-1.72.22-4.13.61-6.65,3.07-1.34,6.4-1.85,9.88-2.04l.14,9.06c1.89.62,4.15-.67,5.51.48,1.05.92.61,4.16-.03,5.54-.59,1.25-2.92,1.07-5.3.96-.62,5.32-.09,10.61-.25,16.12ZM913.83,557.71c-1.55,1.93-6.83,2.41-9.41.87l-.87-24.64c-.06-1.8-3.63-1.27-4.89-.96-1.32.34-3.58,1.43-3.6,3.78l-.22,22.86c-3.54.02-6.75.33-9.96-.52l.08-43.19c3.45-1.09,6.53-.96,9.86,0l-.07,13.64c3.44-2.7,6.34-4.76,9.77-4.71,3.46.04,8.35,1.98,8.92,6.32,1.1,8.42.19,17.98.39,26.55ZM948.74,543.52l-20.6.5c.31,2.19.33,5.62,2.34,7.42,3.72,3.32,7.49.6,10.15-2.05,1.38-1.32,6.36-.26,7.34,1.14-.65,6.12-6.59,9.14-11.95,9.69-9.59.97-17.12-4.7-17.54-14.53-.24-5.61.15-11.67,4.32-16.14,5.92-6.36,16.99-6.03,22.77.69,3.07,3.56,3.35,8.72,3.17,13.28ZM973.52,534.18c-2.71,1.02-5.13-.92-7.02.78-4.55,4.08-1.95,17.74-2.35,24.66-3.43.16-6.04.15-9.57-.06l-.41-29.85c-.04-2.8,2.06-4.36,4.7-4.04,1.55.19,3.11-.33,4.02.76.69.82.48,2.39.97,3.68,2.27-2.46,6.1-6.64,9.94-4.33,1.91,1.15,1.9,7.58-.28,8.4ZM714.53,31.21l2.45,351.14-67.4.47-2.45-351.14,67.4-.47ZM633.72,292.66l1.03,47.29-22.71-68.07-12.92-38.17c8.09-6.07,14.57-12.68,19.92-20.7,5.51-8.07,8.22-16.86,13.19-26l1.49,105.65ZM417.91,31.78l100.84.14c3.56.01,6.5.96,10.23.79,17.43-.81,34.53,3.9,49.81,11.85,14.55,7.56,24.84,19.05,31.8,33.97,11.48,24.58,13.83,51.96,9.13,78.77-4.41,25.18-17.82,51.55-42.88,61.48l23.78,70.47,31.47,92.73-73.1.35-23.43-79.62-21.59-73.41c-7.24-.84-14.38-.56-21.75-.25l1.41,142.57c.03,3.94-.88,6.99.02,10.77l-72.99-.2-.18-52.41c-.03-7.24,1.52-14.05-.55-21.25l-.9-105.37-.82-84.38c.93-11.11.98-21.53.23-32.55-1.23-18.04-.31-35.74-.53-54.45ZM226.13,31.77h173.8s.44,55.35.44,55.35l-52.57.16,1.29,189.3.48,55.23.65,50.15-68.14.34-.63-89.62-1.09-141.82c.85-5.37.83-10.03-.42-15.12l-.34-48.68-55.08-.11-.75-52.14c-.03-1.57.58-2.62,2.36-3.04ZM255.16,328.42c-.14-16.61-.84-42.45-1.71-51.31l-.6-99.31-.91-47.52c-3.03-.19-4.63.8-7.42,1.06-1.24-2.26-.22-4.97-2.81-6.77,3.26,17.47,2.4,37.21-17.69,42.62-5.9,1.58-11.86,2.45-18.21,2.42l-41.42-.23c-4.54-2.67-9.15-6.63-13.17-11.25l60.66-.58c9.74-.09,20.67-5.35,20.91-15.71l.57-24.96,29.71-.2c.8,10.97.66,21.32-.34,32.01-.4,4.31,1,8.06,1.03,12.19l.72,104.88,1.21,116.83c-3.86.25-6.88.25-11.12.05l.59-54.22ZM254.9,343.13h0ZM237.37,271.9c-7.15-24.61-19.92-45.91-36.53-65.24-10.23-11.91-19.74-23.17-32.13-33.92,3.59-1,8.23-1.75,10.82.15,24.11,17.69,43.25,40.13,56.64,66.79,11.24,22.38,16.57,45.95,15.95,71.05-.62,25.2-5.18,51.31-22.36,71.56-6.35.71-11.73.8-18.74-.01,31.88-25.85,37.24-72.87,26.35-110.38ZM184.89,172.44l27.03-.13c8.72-.04,16.93-2.33,23.64-7.89,8.82-7.31,9.4-19.54,9.5-30.63.01-1.36,5.32-1.97,5.34-.12l1.29,129.93c.03,2.86-.11,5.32-1.54,7.21-10.06-36.73-30.97-68.17-60.28-92.27-2.38-1.96-4.08-3.31-4.98-6.1ZM248.34,351.57c2.61-9.36,4.09-17.14,4.88-24.36-.04,14.56-.12,26.83-.13,28.51l-.28,26.78-20.48.07c7.48-9.38,12.8-19.51,16.01-31ZM43.01,338.33c-10.05-21.05-14.05-43.81-12.91-67.08l65.88.1c-.3,11.91-.33,22.68,1.76,33.85,1.75,7.59,4.62,14.98,10.33,20.37,7.29,6.87,17.5,8.2,27.06,6.21,9.58-2,16.14-8.6,18.41-18.45,4.43-19.2-1.27-38.99-14.17-54.18-37.48-44.15-101.78-73.41-108.45-141.38-1.24-12.53.43-23.99,3.92-35.83,8.68-29.54,33.38-47.69,63.15-52.57,30.06-4.92,67.52-1.38,91.18,20.1,10.06,9.13,15.73,21.59,19.93,34.24,5.42,16.34,4.89,30.53,4.74,48.47l-61.19.07c-.51-16.57,4.18-42.96-13.56-51.47-11.32-5.42-26.19-4.18-34.76,5.37-9.56,10.65-9.71,26.92-2.64,39.03,6.08,10.43,14.17,18.65,22.92,26.84l27.95,26.16c42.01,39.33,84.22,89.26,67.57,151.47-9.65,36.03-41.15,54.72-77.71,55.51-14.38.31-30.03.56-42.93-2.85-24.98-5.06-45.44-20.87-56.48-43.98ZM119.4,266.8c13.32,13.17,19.71,27.54,17.72,44.91-.44,3.84-3.77,5.57-7.09,6-14.39,1.87-10.94-41.86-10.63-50.91ZM104.94,476.41l-13.31-19.45c-3.52-.45-6.97-.42-10.78.13,1.11,6.57,2.95,12.47,1.66,19.38l-18.98-.38-1.87-61.42c13.13-.47,25.43-.82,38.19-.06,12.45.74,22.36,10.65,21.9,23.04-.26,7.17-5.14,12.56-11.79,15.83l16.34,22.32c-7.41,1.15-13.46.21-21.36.61ZM190.63,457.64c-.96,13.36-25.56,25.87-47.16,14.66-8.46-4.38-13.92-11.92-14.14-21.62l-.83-36.74c8.45.63,19.63-3.13,19.39,3.97-.36,10.44.51,20.33.95,30.77.15,3.61.04,6.65,2.56,9.08,4.83,4.63,14.65,3.74,18.71-.41,2.33-2.38,2.65-5.92,2.6-9.6l-.27-19.73c-.06-4.73-1.28-9.21-.22-14.14l17.83-.07c.35,14.93,1.65,28.99.58,43.83ZM248.37,475.41l-29.78-34.33.49,34.81-17.33-.1-1.96-61.82,16.37-.33,27.34,32.73c.5.6.44,1.49.38,1.89-.06.45,1.88.81,1.85.28-.81-11.59-1.03-22.75-.86-34.67l17.19.06c1.15,9.35.55,18.37.82,27.81l.98,33.19c-4.97,1.43-10.28.94-15.49.48ZM266.44,392.88l-73.85-.14c5.96-2.77,11.34-4.98,16.78-8.98,19.32.04,36.97.18,56.72-.56.67,3.79.85,6.23.35,9.68ZM320.69,474.97l-29.47-34.53c.06,12.01,1.25,22.61.56,34.34-5.32,1.54-10.85.97-16.67.47-1.73-7.54-.97-14.79-1.18-22.53l-1.03-38.95,16.83.07,28.83,34.15-.68-34.49c5.71-.5,11.07-.79,17.12.14-.62,13.37.1,26,.8,39.06l1.16,21.91c-5.67.84-10.53.26-16.27.36ZM346.99,475.43l-1.53-62.62,18.16-.44,1.53,62.62-18.16.44ZM392.77,381.88l-.8-102.21-1.11-154.04c-3.77-.05-8.01.15-13.54-.75-.95,19.1-.35,37.31-.17,57.01l1.81,200.36-10.14,1.18,35.23.29c1.1,2.91.83,5.73.51,8.91l-37.42.09-.57-119.84-.26-20.41-1.54-139.63,36.22.03c.88,6.32.51,12.04.58,18.35l1.27,110.45.63,60.08.21,9.98.99,70.63-11.9-.48ZM391.44,382.73l-10.53.11-2.69-255.08,10.53-.11,2.69,255.08ZM421.94,474.78l-30.2-35.26c.75,12.23,1.71,23.22.99,35.33l-16.65-.12c-.9-3.45-1.28-6.58-1.21-10.02.35-17.51-.34-34.36-1.19-51.9l16.13.08,28.86,33.94v-34.03l17.23.11.96,25.83.44,35.83c-5.66.68-10.17.3-15.36.21ZM453.59,464.92c-7.25-7.28-10.85-17.16-8.55-28.09,1.7-8.12,7.8-17.14,16.91-21.16,24.85-10.95,49.18,4.86,46.49,7.61-3.61,3.69-8.05,6.05-12.42,8.85-8.37-6.33-19.64-7.9-27.81-.87-7.32,6.3-7.02,19.36,1.05,24.96,6.89,4.78,16.44,4.61,23.88,1.84,1.51-.82,1.96-5.24.76-6.2-3.56-2.86-8.6.74-11.06-.62-2.47-1.36-2.14-9.32-1.14-12.74l29.56.15.55,26.95c-15.18,12.5-43.75,13.85-58.22-.68ZM511.3,392.89c-1-3.81-.25-6.82-.26-10.44l-.26-103.18c4.4,10.46,6.21,20.8,9.47,31.55l24.84,81.8-33.79.27ZM553.76,465.09c-13.26-13.08-12.81-33.25,1.4-45.13,14.59-12.2,41.03-11.67,54.44,4.02l-12.12,8.26c-8.95-7.1-21.47-7.79-29.78.29-4.59,4.46-5.04,11.2-2.78,16.8,4.66,11.53,22.96,12.98,32.55,4.15,5.52,2.58,9.8,5.31,15.54,6.37-10.94,19.55-45,19.3-59.25,5.24ZM669.77,474.69l-50.76-.46-1.07-62.48c6.44,1.37,12.18,1.47,18.73.02l1.4,46.94,31.55.05c.55,5.57.28,10.37.15,15.93ZM727.92,466.89c-13.8,10.86-33.06,10.56-46.31-.78-5.66-4.84-7.98-10.96-8.3-18.4-.5-11.68-.52-23.06-.33-34.76l14.75-.42c1.06-.03,1.96-.66,2.63-.65,1.21.02,1.98,1.29,2.07,2.83.67,11.17.44,21.89.43,33.04,0,3.53,1.29,6.48,3.2,8.43,5.04,5.14,21.45,2.93,21.49-4.39l.18-38.95,13.17-.17c1.03-.01,1.9-.65,2.57-.6,2.33.15,2.26,9.56,2.27,13.66l.07,26.95c.02,5.83-3.5,10.76-7.89,14.21ZM734.86,393.03l-.32-91.2c-.02-6.08-.09-11.34-.14-17.25l-.55-63.88-.82-110.33,17.77,75.61,23.74,92.36,17.9,64.06,14.51,50.5-72.09.13ZM803.55,467.35c-4.38,4.35-9.83,6.11-15.94,6.19l-40.56.48-.59-23.31c-.33-12.95-.82-25.67-.43-38.45,3.52-1.53,6.7.83,9.85.45,10.48-1.27,20.47-1.23,31.04-.22,6.21.6,12.2,3.28,15.3,8.89,4.18,7.56,1.64,16.26-7.22,20.82,5.33.97,9.88,4.75,11.85,9.44,2.33,5.55.87,11.56-3.3,15.71ZM942.88,123.05l-18.9,96.43-17.12,95.04-5.14,29.01-6.88,39.63-73.23-.06-22.33-81.11-36.52-144.22-8.93-37.35c-4.86-20.36-9.42-40.12-13.02-60.74l-6.12-27.82,71.4-.21,29.99,151.09,19.01,93.93c.65,3.2,1.09,6.05,3.18,8.89l13.69-94.52,2.67-17.46,18.75-123.84,3.35-18.02,64.79.21-18.64,91.12ZM984.7,381.78c-.16-8.63-.83-16.7-.15-24.99.66-8.13-.13-15.29-.2-23.47l-1.54-171.43-.53-45.17c.79-10.63.29-20.84.18-31.48l-.59-53.5h150.06s.35,53.1.35,53.1l-80.77.14.22,19.9.37,67.79,57.77.09.06,53.16-57.22.28c-.84,7.06-.2,13.48-.17,20.63l.58,86.89,93.62.05c-1.14,5.56-3.53,10.5-6.08,15.79-14.34,8.46-27.42,17.38-40.72,27.32-2.06,1.53-5.44,4.63-8.24,4.69l-107,.21ZM1406.66,489.59c-.49,1.88-2.88,4.13-5.46,4.99-8.44,2.82-69.28,21.61-72.42,14.45-7.53-17.19,6.53-36.59-11.59-71.75l-10.21-19.82c-9.8-19.02-4.08-35.38-8.17-55.82-1.66-3.31-6.09-4.62-8.98-6.82l-51.97-39.63-21.66,27.84-18.67,22.78c-4.51,6.09-9.5,10.47-15.74,14.05l-53.92,30.99-42.19,24.75c-14.44,8.47-2.49,14.71-13.77,21.21-18.74,10.79-7.09,34.63-18.93,38.86-3.11,1.11-6.93-.18-9.21-2.87-7.34-8.66-8.85-19.82-7.11-31.09,1.98-12.82,4.42-25.53,9.78-37.5,10.64-10.01,21.92.58,38.7-15.48,14.23-13.62,28.42-26.83,44.59-38.24,7.71-5.45,16.74-7.12,25.6-10.48l11.66-32.91c6.25-17.65,26.67-48.76,27.02-46.82,0-3.11-7.45-14.48-4.65-23.16,4.38-13.58,11.93-25.45,18.7-37.84,1.98-3.62-.04-7.78-.35-11.58l-2.78-34.93c-.51-6.41.2-12.53-1.15-19.03l-32.23,4.54c-1,4.33.18,8.16.26,12.42l.48,25.05c.26,13.8,8.61,18.86,13.87,30-3.9,9.4-11.17,20.14-22.29,15.82-11.89-4.63-5.25-25.28-6.99-30.49l-8.65-26.01c-3.24-9.71-5.82-19.34-7.4-29.51-1.09-6.97,2.2-12.35,8.38-15.7,13.57-7.33,27.56-12.93,41.79-19.26,17.59-7.81,35.12-13.29,53.38-18.8,7.45-2.24,5.63-14.02,2.42-18.54-4.3-6.04-6.21-11.77-7.02-18.44-1.27-10.36,3.8-19.25,13.46-23.03,9.82-3.85,20.72-5.65,31.07-2.33,11.56,3.7,8.8,22.55,10.03,28.13.92,4.17,5.23,8.59,4.04,12.85-1.14,4.1-3.19,7.59-2.7,12.26,1.22,11.53-13.16,5.04-18.36,14.19-2.33,4.1-1.74,9.29,1.13,13.49,11.38,16.72,16.2,36.24,11.56,56.25-1.75,7.54-3.52,14.55-4.78,22.15l27.65-3.25c8.6-1.01,16.72-3.03,24.03-7.72l1.92-9.21c6.75-3.75,15.9-5.8,22.98-1.78,6.32,3.6,8.6,11.75,8,18.59l-32.59,10.98-54.84,18.22c-1.79.6-4.86.04-6.11,1.52l-13.36,33.65,53.17,60.86c5.79,6.62,11.57,12.31,16.55,19.69l4.72,47.45,6.6,55.05c.82,6.82,2.03,13.27,4.69,19.37,8.92,20.46,26.92,16.53,42.25,18.35,4.78.57,9.69-.73,14.15,2.02,2.36,1.45,2.16,5.01,1.62,7.02Z"/><path class="cls-1" d="M550.91,102.29c8.47,19.69,8.11,43.02-1.57,62.02-6.19,12.16-19.48,17.13-32.38,17.43-8.69.2-16.39-.37-25.63.87l-.56-100.41c5.88-1.94,11.82-1.23,18.01-.71,7.78.66,15.1.5,22.37,3.26,8.51,3.24,15.71,8.14,19.75,17.54ZM537.25,147.25c.81-9.76,1.44-18.46-1.22-27.31-3.15-10.5-13.14-15.73-23.35-12.43l.32,59.81c13.22,2.45,23.16-6.83,24.25-20.07Z"/><path class="cls-1" d="M752.83,384.64c3.87-4.44,29.84.05,37.98-2.25l-36.66-131.46c-2.11-7.55-2.6-14.8-6.23-21.36l1.48,151.92,1.51,1.83c.25.3-.09,1.55-.54,1.37-.85-.34-1.48-.97-2.62-.05l-2.69-177.09,5.93,22.96,41.18,149.7c.34,1.23.72,1.96.36,2.7-.31.64-1.38,1.58-2.7,1.59l-37,.14Z"/><path class="cls-1" d="M98.14,444.22c-5.95,1.24-11.51.16-17.45.54l-.33-15.91c7.97.48,22.04-3.13,22.57,7.42.15,3.01-.79,7.11-4.79,7.95Z"/><path class="cls-1" d="M788.41,454.32c.52,8.39-17.52,4.45-24.23,5.16l-.11-10.59,18.85-.11c3.81-.02,5.3,2.33,5.5,5.54Z"/><path class="cls-1" d="M785.83,429.39c1.52,8.96-15.15,5.13-21.59,5.9-.6-3.72-.48-6.79-.42-10.37,7.78.36,20.79-2.68,22.01,4.47Z"/><path class="cls-1" d="M520.74,552.26c1.45,10.63-2.8,20.66-12.49,24.65-4.44,1.83-9.66.38-14.1.49s-5.13-5.16-7.96-5.81c-4.48-1.03-11.76-2.02-16.18-2.19-9.77,2.43-19.49,3.57-29.07-.43-9.82,4.01-17.42.49-30.98,1.87-9.39.95-18.05.34-27.41-.67-5.39-.58-11.02,1.7-16.73,1.68-3.34,0-6.73-2.1-9.8-1.42s-4.05,5.01-6.88,6.44c-11.75,5.95-36.1,6.29-43.01-7.41-8.57,4.33-16.85,1.32-25.51.87-9.96-.51-33.93,6.97-34.28-10.69l-.53-26.7c-3.28-.44-6.79.11-8.93-2.24-2.41-2.64-2.15-6.48-2.52-9.99-.78-7.43,4.96-12.66,12.39-13.08l14.1-.79,18.91,1.13c5.75.34,9.57,4.73,10.77,10.05,7.97-.92,14.77.52,21.47,3.85,3.75-.58,7-3.72,10.97-3.72,7.81,0,16.07-.18,23.69,1.03,3.57.57,4.76,1.83,8.47.06,6.29-3,14.88-.69,21.61-1.45,1.77-2.73,3.14-7.21,6.69-7.28l15.44-.31c5.11-.1,9.21-3.4,15.09-2.62,6,.79,10.87,3.22,12.17,10.17,5.43-.19,9.96,1.24,14.96,3.18,7.79-3.04,16.94-4.81,24.91-1.99,3.25,1.15,4.15.1,7.2-.55,7.55-1.6,15.75-.36,23.64-.57,6.32-.16,10.78,4.85,11,10.83.14,3.78-.3,7.05.15,10.83,7.41.41,11.67,5.21,12.7,12.77ZM435.37,559.5c-2.37-14.6,5.39-34.03-9.82-33.76-3.14.06-6.08,2.12-9.05,4.67l-.42-14.41c-3.34-.38-6.48-.91-9.19.76l.12,42.84c3.2.31,5.78.27,9.21.04l.27-21.72c.03-2.28,1.89-4.03,3.34-4.59,1.37-.53,4.71-.52,4.74,1.55l.41,24.8c3.58.14,6.32.63,10.39-.18ZM267.92,559.72l.04-34.78c3.65-.89,7.37.8,10.81-.66,1.83-.78,1.85-6.37,0-7.7l-34.56-.07c-.62,3.12-.46,5.46-.11,8.32l12.68.12.09,34.57c3.85,1.01,7.76,1.98,11.07.2ZM395.92,550.73c.15-5.29-.58-11.41.41-16.27,1.84-.44,5.25.38,5.97-1.22s.67-3.79-.23-5.05-3.35-.85-5.5-.64c-1.66-3.26.09-6.63-1.08-9.89-2.86,1.42-6.54.28-8.11,2.31s.29,5.03-.87,7.06c-3.42.07-3.55,1.87-3.9,4.19-.43,2.83,2.23,2.69,4.02,3.76l.37,19.33c.11,5.7,5.75,6.89,10.65,6.46,2.62-.23,5.14-.93,5.2-3.36.18-6.47-7.08-1.72-6.94-6.69ZM295.38,561.02c7.77-.33,12.97-4.14,14.73-11.4s.92-16.4-6.06-21.33c-5.09-3.59-13.16-3.12-18.29.18-5.89,3.79-7.21,10.71-6.91,17.07.44,9.35,6.72,15.89,16.52,15.48ZM329.33,570.93c9.29.21,16.36-4.37,16.4-13.47l.11-30.68-9.72-.99c-.48,1.75.29,2.9-.77,3.81-3.57-6.15-12.47-5.23-16.83.1-5.19,6.34-5.57,16.63-1.36,23.44s12.52,7.87,18.56,3.08c.45,2.27.61,5.72-1.07,7.14-6.54,5.51-10.84-4.76-19.21.93,2.73,5.86,8.09,6.51,13.9,6.64ZM366.44,553.74c-4.61-.55-6.16-3.75-6.55-8.99l19.59.09c1.46-6.1.63-13.56-5.65-17.2-5.32-3.08-12.95-2.64-17.77,1.15s-5.56,10.16-5.45,15.91c.15,8.49,5.19,15.25,13.06,16.11,7.41.82,14.83-2.88,16.48-10.82-12.21-2.19-8.46,4.37-13.71,3.75ZM456.32,553.77c-1.63-.21-3.6-.05-4.63-1.82-1.19-2.04-1.69-4.38-1.94-7.06l20.98-.42c-.5-4.01-.38-8.53-2.41-12.04-3.02-5.19-8.4-7.15-13.9-6.82-4.69.28-9.84,2.33-12.29,7.5-2.1,4.43-2.62,10.2-1.95,14.91,1.32,9.23,8.78,13.76,17.5,12.74,6.06-.71,11.55-3.13,12.3-10.09-12.34-3.91-8.6,3.76-13.67,3.1ZM485.48,559.43c-.68-8.31-1.85-21.07,2.97-24.51,1.77-1.26,4.86.18,6.53-.86,1.56-.98,1.6-6.46.16-7.59-3.19-2.5-8.56.51-9.63,4.4-1.25-1.33-.06-3.68-1.57-4.11-2.65-.76-5.21-.49-7.94.15l-.12,32.75c3.79.44,7.29,1.03,9.61-.23ZM498.58,565.25c4.19,1.58,8.92-2.34,9.96-5.75s.45-6.28.26-9.41c-3.8-.57-6.97-.76-10.67-.26-.65,3.34-.54,6.27.25,9.37,1.44.71,3.05-.33,3.98,2.13-2.36-.26-5.91,2.68-3.79,3.91Z"/><path class="cls-1" d="M715.31,554.95c-1.32,8.66-7.58,14.23-15.89,15.12-5.25.56-11.76,1.36-16.78-.16s-8.16-.54-12.94-.51l-91.48.61c-3.84.03-6.71,1.45-10.68.11-3.3-1.11-27.21,1.36-32.68-1.89-1.59-.95-1.96-3.24-1.97-5.46l-.21-29.95c-4.26-.63-9.01-.92-10.5-5.16-2.46-6.98-1.39-21.87,8.65-21.87l48,.04c6.64,0,11.07,5.29,10.79,11.86l30.77-.21c.45-4.02,1.94-7,4.19-8.62,4.29-3.08,16.33-3.09,20.74-.19,2.27,1.49,3.05,5.43,4.38,8.63l27.02.8c4.73.14,9.2-.85,14.15-.99,10.76-.32,20.55,5.36,23.44,16.08,1.84,6.83,2.12,14.27.99,21.74ZM554.34,558.78l-.19-35.26c3.84-.51,8.1,1.32,11.04-.53,1.66-1.25.71-7.03-1.33-8.08l-32.7-.18c-.58,3.38-.38,5.73.02,8.8,4.04.15,7.69.91,12.25-.49v36.54c4.2-.04,7.7,1.03,10.91-.79ZM597.86,559.47l-.09-26.56c-.02-4.72-4.24-8.37-8.87-8.13-4.17.21-7.07,2.4-10.84,4.46.37-5.27.84-9.38.59-14.16-3.26-.6-6.21-.56-9.72,0l.02,44.41,9.67-.05.23-22.77c.03-2.47,1.93-3.54,3.65-3.83,1.59-.28,4.99-.26,5.06,2.05l.83,24.89c3.33-1.34,5.89-.27,9.46-.31ZM623.19,533.33c1.98-1.14,2.21-6,.57-7.19-3.86-2.78-7.7.52-9.8,3.87-.76-.91-.25-3-1.39-3.9-2.4-.7-6.5-1.11-8.47.77l-.06,32.25c3.66.73,6.48.51,10.04.52l.23-19.86c.03-2.36,1.31-3.97,2.3-4.93,1.55-1.5,4.52-.35,6.58-1.53ZM639.91,559.2l-.35-33.09c-3.32-.22-6.22,0-9.58.74v32.47c3.51.5,6.41.9,9.93-.12ZM674.34,526.02c-3.57-.58-6.27-.36-9.63-.01l-5.77,24.33-5.89-24.09c-2.98-1.03-6.85-1.18-9.39.82l8.83,31.35c3.15,2.05,8.54,1.47,12.58.17l9.26-32.57ZM688.01,551.78c-2.02-2.05-2.15-5.15-2.22-7.87l19.8-.29c1.49-6.27-.44-14.12-7.44-17.15-4.72-2.05-11.83-1.71-15.97,1.38-6.33,4.72-6.79,12.37-6,19.29.99,8.64,7.03,13.13,15.89,13.06,5.59-.05,12.91-2.72,13.06-9.22-6.37-6.81-11.72,6.3-17.12.81Z"/><path class="cls-1" d="M225.7,522.52c10.28,8.01,9.96,19.34,8.89,32.26-.65,7.95-6.26,14.56-14.07,16.1-8.96,1.77-17.8,1.19-26.66-1.72-9.64,3.59-19.26,1.98-28.96,1.99-7.2.01-13.83.66-21.14-.07-13.51-1.35-29.02,3.61-46.94-2.13-13.17,1.99-25.97,6.15-39-2.23-15.27-9.83-6.04-28.63-7.03-31.57-3.57-10.54,1.18-20.32,11.07-25.65,11.33-6.11,24.59-4.23,36.46.89,4.05,1.75,18.27-3.12,22.81,8.57l16.77-.05c-.11-12,15.34-11.01,22.86-9.7,5,.87,7.01,5.46,7.16,10.49l12.87-.14c6.56-.07,12.61-1.23,18.96.73,8.58-3.24,19.05-3.16,25.97,2.23ZM89.6,536.61c-8.33-4.81-22.33-3.97-18.16-11.79,2.09-3.92,10.54-1.85,10.92-1.07l2.24,4.52c1.02,2.07,6.42.78,9.15.06,2.17-.57-.46-3.5-.77-4.64-3.27-11.81-17.93-10.57-24.99-7.14-5.13,2.5-7.65,6.57-7.51,11.69.41,15.02,20.54,12.01,23.57,17.79.97,1.86,1.18,3.95-.31,5.47-2.7,2.76-5.97,2.5-9.57,1.52-2.49-.68-3.64-3.48-6.01-5.63-2.02-1.84-6.77.5-9.24,1.38.44,7.85,6.58,12.29,13.98,12.45,6.05.12,12.17.67,17.45-3.06,6.92-4.89,7.12-16.99-.75-21.54ZM112.07,534.91c2.58-.63,5.96.58,5.79-1.69-.14-1.93.7-4.41-.57-5.49-1.12-.96-4.08.07-5.22-.61l-.59-8.14c-2.36.13-6.62-1.17-8.27.84-1.87,2.27-.07,5.69-1.35,7.89-1.32.4-1.98-.07-2.54.36-1.68,1.3-.92,6.62.55,6.62h2.37s.44,16.03.44,16.03c.09,3.41-.19,6.54,2.3,8.41,2.91,2.2,12.18,2.6,12.93.05.44-1.48.75-3.51-.07-4.71s-3.12-.73-5.5-.87c-.84-5.82-.57-12.7-.28-18.68ZM208.48,553.39c-2.78-1.43-3.82-5.2-3.19-8.06l20.63-.59c-.33-5.1-.57-10.91-4.37-14.7-5.07-5.07-14.02-5.36-19.85-1.61-6.83,4.4-9.96,20.25-2.31,28.43,3.81,4.08,9,4.62,14.58,4.31,5.92-.33,11.09-3.98,11.21-10.15-11.13-3.11-10.03,5.81-16.69,2.38ZM131.84,560.3l.07-18.6c0-2.39,1.25-4.27,2.33-5.24,1.69-1.51,4.77.04,6.67-.95,2-1.04,2.07-7.29.1-8.46-3.62-2.16-7.44,1.27-9.06,4.24-.87-1.15-.41-3.23-2.04-3.72-2.69-.82-5.29-.76-8.06.13l.15,32.63c3.4.66,6.42.73,9.84-.02ZM157.94,560.35l-.05-33.08c-2.65-.62-8.09-.96-9.12,1.3v31.85c3.52.18,5.91.52,9.17-.06ZM183.69,528.53c-2.63,7.28-3.62,14.14-5.2,21.46,1.14,2.52-2.49,2.4-1.05-.08-1.6-7.75-3.15-15.02-5.76-22.06-1.62-1.89-6.45-.59-8.74.18l8.65,32.65c4.58.05,8.05.3,12.44-.14l8.95-32.02c-1.84-1.45-8.26-2.83-9.29.01Z"/><path class="cls-1" d="M810.5,532.79c5.24,2.12,4.5,16.26.22,18.33-1.58.76-4.54,1.19-5.64-.66-2.92-4.92-2.9-11.77-.3-16.87,1.03-2.03,4.34-1.36,5.72-.8Z"/><path class="cls-1" d="M778.39,537.76c.15,4.16,1.9,13.8-4.2,14.87-1.59.28-4.48.22-5.4-1.67-2.28-4.65-2.36-10.23-.66-15.06.95-2.7,3.6-3.77,5.96-3.41s4.2,2.39,4.3,5.26Z"/><path class="cls-1" d="M335.71,537.79c.45,5.43,1.27,14.54-5.32,14.7-2.38.06-4.15-1.41-4.86-4.1-1.08-4.09-2.21-15.9,4.86-15.77,2.91.06,5.03,1.68,5.32,5.16Z"/><path class="cls-1" d="M299.57,535.88c1.91,6.1,2.23,17.34-4.2,17.85-8.13.64-6.45-14.08-5.76-16.25.73-2.31,2.24-4.28,3.91-4.51,2.35-.32,5.23.31,6.05,2.92Z"/><path class="cls-3" d="M520.07,551.03c1.75,10.84-2.52,22.18-13.39,25.55-5.31,1.65-17.11,1.61-20.77-5.86l-16.42-2.12c-9.5,3.14-18.75,3.5-28.54-.04-3.17.75-7.88,1.87-11.5,1.72-10.45-.44-19.92-.09-30.24.49-5.88.33-11.86-1.1-17.89-1.33-8.31-.31-11.45,4.07-26.6-.24-2.3,3.33-4.71,6.82-8.11,8.13-12.16,4.67-33.86,4.92-41.12-8.45-8.14,4.43-16.27,1.36-24.46.88s-34.56,6.22-34.95-8.66l-.75-28.67c-2.99-.25-6.05-.43-8.03-1.56s-2.79-4.83-3.3-7.66c-1.32-7.29,2.1-15.94,10.45-15.98l32.88-.15c6.51-.03,11.28,4.34,12.72,10.39,8.03-.81,15.1.27,21.34,4.43,4.21-2.07,9.19-4.75,13.83-4.54,7.25.33,14.14.43,20.94,1.34,3.52.47,5.09,1.22,8.58-.05,6.73-2.45,14.85-1.15,21.63-1.24,3.95-12.07,15.9-6.45,21.83-7.83,5.43-1.26,9.62-2.9,15.16-2.57,6.37.39,10.82,3.85,12.38,9.88,5.17.57,9.79,1.62,14.81,3.33,7.78-2.64,16.55-4.7,24.8-1.89,2.8.95,4.61-.09,7.54-.52,7.5-1.1,15.63-.62,23.5-.58,6.19.03,10.96,4.8,10.96,10.92v10.76c7.35.41,11.58,4.82,12.76,12.12ZM267.37,559.59l-.07-35.31,11.98-.18-.26-8.31-35.68-.05.02,8.54h12.79s.15,35.66.15,35.66l11.07-.35ZM424.42,559.19l10.18.09c-.09-10.06.14-19.11-.64-28.73-.32-3.96-6.02-5.95-9.06-5.56s-5.81,2.25-9.39,4.68l.24-14.39-9.43-.07.06,43.95,9.47-.14v-22.03c0-1.42,2.28-3.67,3.39-4.36s4.92.26,4.93,1.67l.25,24.89ZM396.89,560.21c2.3-.26,4.63-.76,5.02-1.91.47-1.38.72-4.77-.47-5l-6.05-1.21.04-18.28c3.11-.07,6.08.24,6.54-1.04s.44-5.56-.92-5.67l-5.34-.43-.55-9.66-8.68,1.78-.4,7.8-3.16.32c-.75.08-.99,6.72-.13,6.72h3.41s.22,19.58.22,19.58c.06,5.47,4.83,7.64,10.47,7ZM304.67,557.02c8.01-7.23,7.68-21.28.24-28.27-5.72-5.37-16.02-4.89-21.46.63-7.27,7.38-7.33,21.07.77,27.96,5,4.25,15.05,4.57,20.45-.31ZM329.89,570.33c8.15.12,15.11-4.1,15.17-12.53l.2-32-9.8-.26c-.54,1.67-.8,2.78-1.13,2.45-5.76-5.81-14.46-2.67-17.48,2.57-3.76,6.54-4.24,14.89-.57,21.61,3.99,7.29,12.41,8.13,18.97,3.84.32,2.46-.09,5.96-1.41,7.06-5.7,4.73-10.53-5.2-18.94.66,2.22,6.36,8.9,6.52,15,6.61ZM361,550.46l-1.92-6.23,20.27-.08c.12-4.18.58-9.01-1.6-12.63-4.88-8.11-17.54-8.79-23.78-1.91-3.74,4.13-4.06,10.3-3.84,15.51.35,8.2,5.6,14.29,12.76,15.09,7.56.83,14.3-1.84,16.75-10.66-12.36-2.2-7.56,3.21-13.65,3.74-1.34.12-4.58-1.51-4.99-2.82ZM455.88,553.34c-1.19.18-4.38-.83-4.81-1.92-.64-1.62-1.46-4.77-2.02-7.13l21.08-.21c-.43-4.56-.44-9.33-2.85-13.02-5.28-8.08-18.74-8.25-24.43-.39-4.98,6.89-4.71,16.72-.61,23.65,3.19,5.4,9.41,6.27,15.07,5.83,6.2-.48,11.48-3.23,12.11-10.22-12.62-3.04-7.7,2.51-13.54,3.42ZM494.99,534.27l.16-8.49c-3.87-1.9-7.88-.19-9.82,3.6-.6-.94-1.95-3.62-2.89-3.61l-7.08.06-.04,33.49,9.81.14.22-21.44c.04-4.19,6.09-5.18,9.63-3.75ZM508,558.73c.64-2.5.51-6.37.36-9.27l-10.39-.55c-1.44,3.86-1.25,9.02,1.78,11.03-.97,1.58-2.06,3.57-2.63,4.91,4.8,1.12,9.69-1.5,10.87-6.12Z"/><path class="cls-3" d="M816.28,517.88c-.31,4.2.15,2.96.82.07l-.82-.07Z"/><path class="cls-3" d="M1425.33,464.46c-1.41.13-1.9,1.1-.46,1.52,9.91,10.32,11.57,27.51,2.61,39.33-4.79,6.32-12.08,10.12-19.6,12.72-17.44,6.04-34.84,11.05-52.95,14.92-8.59,1.83-16.73,2.38-25.37,1.46-13.45-1.44-24.98-12.03-26.65-25.62-.48-3.89-.59-7.34-.72-11.18l-.61-18.76-.9-10.02c-.86-9.6-18.6-38.48-21.8-49.26-3.97-13.36-2.33-26.8-4.05-40.64-10.77-7.32-21.41-13.3-31.41-22.72l-34.15,38.76c-6.21,7.05-12.84,11.1-21.05,15.51l-77.04,41.44c-13.25,7.13-4.16,12.3-17.8,20.33-10.16,6-6.96,14.48-11.84,27.14-6.76,17.54-24.88,25.52-41.17,19.01-6.15-2.46-11.34-4.92-15.88-10.45-10.86-13.27-14.69-30.99-11.52-48.15,2.87-15.56,4.7-29.13,10.55-44.34l-34.59.09c-6.8.02-11.61-3.11-16.83-6.16-8.98-5.25-14.2-14.8-14.06-25.7.07-5.4-.81-10.57-.88-15.92l-.7-51.69-.96-74.29c-.09-7.42-1.23-14.41-.23-21.65.34-2.54,2.01-5.44-1.02-7.52l-1.64,15.62-14.25,82.74-14.98,86.98c-2.01,11.67-14.11,18.97-25.44,19.09l-51.71.56c.61,8.92.03,20.98-2.28,29.19-.13,3.01,2.86,5.96,3.32,9.06,3.96,26.48-8.27,38.86-29.76,50.38-.68,5.74-1.06,9.44-1.23,11.64l-8.16-.67c-6.66-.55-12.64.25-17.43,5.73-5.8-5.4-12.6-6.43-20.15-5.84-1.16-6.34-6.29-11.49-12.79-11.43l-31.52.26c-3.59.03-7.72,2.06-9.52,4.27-2.23,2.73-2.56,6.4-2.64,9.92-.32,14.63,11.91,7.52,12.05,16.12l.4,24.96c.07,3.82,5.45,7.26,8.97,7.75,8.12,1.11,15.91-.88,23.87-.41,8.76.51,17.16,3.85,25.41-.93,4.09,8.82,12.42,11.74,21.61,11.7,9.03-.05,22.85.21,26.34-11.68,9.05,5.04,18.24.51,27.02.91,6.82.32,13.36,1.89,20.73,1.41,13.91-.91,27.89-1.13,41.87-.34,8.81.49,16.36.14,25.06-.81,5.59-.62,11.98,1.93,17.69.55,6.25-1.52,10.71-5.24,10.64-12.29l-.1-12.01,9.29-1.41c-.67-9.32,2.07-25.97-9.98-26.25-6.99-.17-14.4-.74-21.1.48-4.02.73-6.32,1-10.35.13-9.51-2.04-19.16-.53-28.78.85l-8.67-3.27c-1.01-2.22-2.54-6.37-4.52-7.51-6.79-3.91-14.91-.99-22.26.47-6.02,1.19-11.9.73-18.04,2.42-2.25.62-3.96,4.7-5.82,6.29-2.69,2.31-7.65-.07-11.05-.16-6.28-.15-12.68,2.07-18.55,1.58l-8.7-.72c.82-3.63,1.94-9.87,2.16-11.11,26.99-10.1,35.52-32.33,27.36-59.14-.98-8.28,3.34-17.9.91-27.58l47.2-.15c10.34-.04,20.75-3.66,27.06-12.18,3.84-5.18,4.28-11.93,5.36-18.31l13.12-77.96,10.21-58.75c.6-3.45.86-6.62,3.21-9.19-.3,3.26,1.26,6.53.78,9.25-1.31,7.49.14,14.33.19,21.88l.47,77.93c.02,3.18.95,19.18.83,20.1-.68,5.23.31,9.94.85,15.06,1.73,16.49,14.19,29.83,31.07,29.96l33.47.25c-4.62,10.82-6.02,20.66-8.3,31.1-3.79,17.32-3.8,35.25,4.29,51.35,6.9,13.74,21.02,23.51,36.37,22.93,17.68-.67,29.36-13.98,31.9-30.56.87-5.66,2-12.22,6.63-15.68,5.08-3.8,10.4-6.96,12.35-13.47.75-2.49,1.61-5.79,4.29-7.25l69.85-38.04c8.22-4.47,17.24-7.32,24.19-13.71,14.92-13.72,27.01-29.42,40.77-44.78,9.68,7.79,19.43,14.22,29.26,20.8,1.36.91,1.86,3.61,1.51,4.95-1.61,6-.03,11.38.31,17.04.75,12.73,4.3,23.79,10.46,34.91,4.55,8.22,8.11,16.6,12.04,25.1,2.47,5.37,2.87,10.96,3.07,17.22l.29,8.97c.47,14.39-.94,28.18,11,40.08,8.15,8.13,20.15,9.32,31.15,8.84,12.21-.53,44.11-9.67,56.61-13.71,11.05-3.57,25.24-8.19,31.48-19.19,7.39-13,4.54-29.95-5.54-40.45ZM746.74,558.94l-10.36-.22-.05-35.53h-13.04s.42-8.49.42-8.49l35.82-.17c.15,2.68.14,5.53-.02,8.47l-13.12.32.35,35.62ZM782.79,556.29c-5.83,4.55-15.91,4.78-21.42.04-5.28-4.55-5.14-12.41-4.36-18.46,1.08-8.3,7.1-12.85,14.93-13.23,8.61-.42,15.27,4.66,16.16,13.72.6,6.09.47,13.42-5.31,17.93ZM962.65,525.22l.63,4.36c2.65-2.95,6.52-6.53,10.15-4.39,1.37,1.66,1.47,7.45-.07,8.54l-6.6.28c-1.5.06-3.34,3.71-3.34,5.41l.07,19.71-9.51-.1-.43-33.46,9.1-.35ZM923.68,527.54c5.55-4.13,14.56-4.15,19.9.44,4.24,3.65,4.82,9.69,4.62,15.05l-20.79.38c.61,2.89,1.24,5.9,2.24,7.24,2.62,3.53,7.63,1.25,10.09-1.52,1.23-1.39,5.92-.59,7.62.29-.1,6.24-5.9,9.78-11.83,10.2-4.69.33-9.4-.56-12.74-3.4-7-5.97-6.72-23.02.89-28.68ZM884.36,515.16l9.86-.81.23,14.4c3.23-2.65,6.93-4.59,10.33-4.52,2.65.05,8.17,2.74,8.22,6.17l.42,28.37-10,.04-.14-25.55c-1.03-.69-3.91-1.22-5.07-1.01-1.35.24-3.78,2.4-3.78,3.88l-.13,22.97-9.97.03.03-43.97ZM864.14,525.98l.41-7.23,9.63-2.43.22,9.82,6.02.1-.28,6.51-5.87.85.27,17.01c.33,1.17,4.21,1.49,5.33,2.06,1.17.6.94,4.72-.06,5.57-.99.86-3.39.92-5.47,1.12-4.77.45-9.84-1.79-9.9-7.29l-.19-17.94c-1.68-.97-4.02-2.02-4.17-3.46-.21-1.94.65-5.35,4.06-4.69ZM841.19,524.88c5.31-.39,10.31.49,13.69,4.28,2.87,3.22,4.48,9.69,2.78,13.91l-18.69.2c-1.53,1.86-.18,6.46,1.74,7.91,6.65,4.99,7.07-5.34,17.08-2.46-.57,6.51-6.03,10.31-12.21,10.79-4.84.38-9.49-.74-12.61-3.63-3.78-3.51-4.69-8.42-4.8-13.65-.18-8.49,4.23-16.71,13.02-17.35ZM823.38,525.17l-.13,33.06c-.01,3.7-3.11,8.73-6.47,9.94-6.66,2.41-22.48,3.18-23.66-5.65l8.59-1.2c2.84,2.38,5.48,2.84,9,1.74,2.17-.68,3.06-4.41,2.42-7.77-3.68,2.23-7.26,3.73-11.72,2.43-9.66-2.83-10.57-15.51-7.62-24.84,2.39-7.59,11.6-10.11,17.1-6.8.48.3,2.04,2.12,1.85,1.76-.18-.36.95-2.38,1.35-2.39l9.29-.28Z"/><path class="cls-3" d="M713.33,531.34c3.72,10.82,5.36,34.34-13.08,38-8.91,1.77-17.83.02-26.57-1.48-2.58.61-6.39,1.41-9.21,1.4l-24.37-.13-101.57.06c-4.34,0-6.2-3.49-6.2-6.92l-.04-30.03c-3.79-.55-8.45-.9-9.98-3.98-2.03-4.09-1.89-9.72-1.24-14.03.92-6.05,5.58-9.15,11.26-9.12l46.93.25c6.09.03,10.22,5.73,9.71,11.71l30.9.03c.67-3.9,1.86-7.36,4.15-8.73,5.26-3.13,16.14-3.24,20.73-.19,2.04,1.36,3.36,5.17,4.15,8.77l27.14.48c4.66.08,9.38-.39,14.34-.71,10.11-.65,19.52,4.63,22.96,14.62ZM639.48,520.28c1.96-2.81-.15-6.31-2.1-6.77-2.47-.57-5.64-.17-7.16,1.21-1.26,1.14-1.56,5.56-.17,6.55,2.19,1.54,7.74,1.43,9.42-.98ZM553.76,558.99l-.51-35.84,12.11-.08-.6-8.87h-34.41s.12,8.91.12,8.91l12.14.03.17,35.7,10.98.15ZM597.35,558.99l-.03-25.9c0-5.2-4.28-9.84-10.05-8.74-3.05.58-6.7,2.52-9.59,4.07l.6-14.25-9.94.22v44.6s9.77.04,9.77.04l.56-24.51c.07-2.98,8.37-3.3,8.42-.25l.42,24.65,9.85.09ZM613.72,558.85l.02-20.03c0-1.79,2.06-5.14,3.62-5.26,1.7-.13,3.65.08,6.13.34.33-2.39.53-6.36.15-8.52-4.56-2.29-7.73.39-10.61,4.18l.17-4.39-9.83.03.04,34.01,10.32-.37ZM705.39,549.21l-8.75-.82c-1.78,3.73-4.91,4.94-8.4,3.16-2.01-1.02-3.36-5.24-2.79-8.27l19.46-.22c1.88-6.6-.66-14.76-7.93-17.37-4.88-1.75-11.41-1.25-15.47,1.59-5.63,3.94-6.39,10.7-6.25,16.79.24,9.83,6.49,15.81,16.15,15.55,6.73-.18,13.01-2.99,13.98-10.42ZM639.42,559.03l-.23-33.44-9.86.22.05,33.17,10.05.05ZM664,525.34l-5.36,24.1-6.06-23.83c-2.97-.44-6.65-.46-9.77.11l9.21,33.16c4.04.17,8.58.13,12.32-.13l9.42-33.21-9.76-.2Z"/><path class="cls-3" d="M221.88,520.06c12.93,7.68,12.41,17.27,12.5,31.03.07,11.35-7.44,18.6-18.1,20.14-7.85,1.14-15.8-2.09-23.02-1.57-9.77.71-18.96,1.37-28.96,1.19l-20.94-.36c-18.94-.33-30.05,3.11-47.11-2.34l-11.83,2.26c-9.91,1.9-20.75.7-28.73-5.45-8.89-6.84-8.31-17.94-5.54-27.86.28-4.68-2.06-10.7-.34-15.31,6.88-18.42,32.36-20.5,48.35-11.39,9.98.04,16.75-2.05,22.85,7.92l15.94.16c.86-5.29,3.78-9.78,9.63-10.12,4-.23,8.49-.24,12.54.06,5.56.42,8.2,5.31,8.2,10.74,5.78-.03,11.23.05,16.78-.46,4.88-.44,9.72.34,14.15.3,7.92-.07,15.63-3.7,23.62,1.04ZM88.97,558.15c4.5-2.21,5.98-7.48,5.94-11.42-.16-18.02-26.45-11.2-24.62-21.09.95-5.11,9.84-3.85,11.48-2.48.94.79,1.38,3.01,2.13,5.11l10.19-.33c-.77-3.9-1.68-8.43-4.72-10.72-6.93-5.22-17.05-4.49-24.09-.11-4.45,2.77-6.16,8.13-5.29,12.85.75,4.06,4.42,8.04,8.88,9.45l11.57,3.65c2.73.86,5.06,4.69,3.08,7.39s-5.87,3.28-9.18,2.29c-2.68-.8-4.42-3.14-6.28-6.63l-9.86,1.39c.48,4.85,2.54,9.66,7.17,11.51,7.26,2.9,16.12,2.83,23.59-.84ZM157.81,517.24c-2.32-3.16-8.18-2.71-9.96.24-.68,1.14-.68,4.43.25,5.23,2.19,1.88,6.22,1.46,8.93-.32.98-.65,1.59-4.04.78-5.14ZM111.36,534.13l5.9-.17-.06-7.26-5.83.31-.23-8.79-9.26.27-.13,8c-3.17.6-4.43,1.25-4.56,4.27-.09,2.35,2,3.24,4.51,4.3v17.15c.01,2.26,1.29,5.59,2.84,6.49,3.51,2.05,12.12,2.34,12.88.02.41-1.24.68-5.08-.62-5.26l-5.4-.75-.04-18.6ZM131.29,560.07l.13-19.69c.01-1.71,1.58-4.68,3.02-4.84l5.93-.65c2.08-.69,1.92-7.39,0-8.64-3.07-1.99-7.36,1.04-8.97,4.38l-1.19-3.92h-8.87s.04,33.31.04,33.31l9.92.04ZM207.39,552.64c-1.69-1.14-2.71-4.44-3.12-7.81l21.19-.61c-.35-4.57-.69-9.94-3.54-13.6-6.12-7.87-19.45-7.32-24.57,1.33-2.36,3.99-3.08,9.71-2.86,14.08.52,10.37,8.92,15.62,18.46,14.67,6-.6,11.29-3.31,11.8-9.98-11.04-4.18-10.68,6.45-17.36,1.93ZM157.48,559.51l-.07-33.11-9.5.25-.02,33.16c3.17.31,6.97.27,9.6-.3ZM183.05,526.73l-5.62,23.54-5.95-23.6-9.35.07,8.87,33.48,12.53-.11,9.29-33.5-9.77.13Z"/><path class="cls-3" d="M36.79,556.17c5.24,24.36,34.49,30.73,54.78,25.16,3.23-.89,5.08-.6,8.49-.02,6.64,1.14,14.25,1.56,21.23,1.48l31.96-.36,20.05.02,18.97-1.43,20.05,1.41c9.93.7,19.5-2.59,26.25-10.72,10.88,15.4,26.43,9.27,40.73,10.04,6.85.37,14.18.83,20.96.39,8.7,5.82,18.1,9.63,29.17,9.16,29.13-1.25,22.92-10.26,32.85-9.15,5.8.65,11.57-1.05,16.77-.87,8.12.27,16,1.4,24.35.66,6.52-.58,12.95-1.15,19.32-.12,5.57.9,11.29-1.06,16.48-.76,10.37.6,20.26,2.62,30.69-.38,4.42-1.27,9.11,1.52,13.07,3.68,14.28,7.8,36.05,5.28,44.04-9.94,2.88,9.37,24.44,6.61,34.78,6.51l14.51-.13c11.15-.1,21.84-.09,33.1.19,4.48.11,9.53-.97,13.89-.43,6.98.87,13.3-.05,19.75-.11l30.23-.28,19.08,1.28c9.91.67,19.09-1.83,26.38-9.7,8.83,12.81,27.25,7.57,39.65,8.57,7.49.6,14.35,1.91,21.9,1.44,12.45,9.72,25.91,11.02,41.72,8.09,6.08-1.13,11.11-6.59,16.66-7.95,6.3-1.55,13.46-.05,19.73-2.81,2.09.38,6.07,1.95,7.97,1.97l57.03.4c8.27.06,16.05-.8,23.96-1.17,8.94-.42,17.92,2.9,26.7-1.6,9.81-5.02,13.23-15.4,12.62-26.66,3.71,13.11-4.38,29.01-19.56,30.85-6.13.75-12.63-.21-18.72-.01-7.24.24-14.06.66-21.31.61l-62.58-.44c-2.7-.02-5.87-.6-8.35-.35l-15.52,1.55-17.39,8.02c-4.03,1.86-9.31.85-13.84,1.14-10.82.69-19.87-2.85-28.48-8.95l-19.48-1.12-24.1-.21c-7.1-.06-13.9-3.47-17.92-8.82-16.11,12.57-22.52,8.61-43.84,8.65l-34.58.06-106.18.19-7.51-4.43-4.19,4.16c-9.39,9.31-24.58,10.53-36.68,5.32-3.96-1.7-9.47-5.96-13.73-4.94-11.39,2.74-21.24.4-32.54.47l-21.47.15c-4.78.03-10.11-.13-14.85.64-8.56,1.39-16.87-1.43-25.5-.74-37.52,2.96-17.33,6.23-39.01,9.45-14.23,2.11-27.5-.31-38.89-9.17-6.44,1.77-13.05.23-19.03,0-10.04-.38-30.37,6.36-42.36-9.61-18.58,16.49-32.86,8.94-46.6,9.4l-28.09.93h-30.11s-17.86.54-17.86.54c-6.66.2-13.12-2.61-19.33-1.96l-20.68,2.14c-5.51.57-10.38-1.06-15.73-2.61-12.48-3.61-23.18-13.27-24.54-26.77.91-2.04,1.23-2.53.7.01Z"/><path class="cls-2" d="M329.89,570.33c-6.09-.09-12.78-.24-15-6.61,8.41-5.86,13.24,4.07,18.94-.66,1.33-1.1,1.73-4.59,1.41-7.06-6.57,4.29-14.99,3.45-18.97-3.84-3.67-6.71-3.19-15.07.57-21.61,3.02-5.25,11.73-8.38,17.48-2.57.33.33.59-.78,1.13-2.45l9.8.26-.2,32c-.05,8.44-7.01,12.66-15.17,12.53ZM335.09,536.4c-.22-2.48-3.08-4.51-5.25-4.47-6.98.14-5.9,11.17-4.7,16.67.35,1.57,3.21,3.48,4.7,3.54,6.75.27,5.64-11.27,5.24-15.74Z"/><path class="cls-2" d="M424.42,559.19l-.25-24.89c-.01-1.41-3.83-2.36-4.93-1.67s-3.39,2.94-3.39,4.36v22.03s-9.47.14-9.47.14l-.06-43.95,9.43.07-.24,14.39c3.58-2.43,6.21-4.27,9.39-4.68s8.74,1.6,9.06,5.56c.78,9.62.55,18.67.64,28.73l-10.18-.09Z"/><path class="cls-2" d="M304.67,557.02c-5.4,4.88-15.46,4.56-20.45.31-8.1-6.89-8.04-20.58-.77-27.96,5.44-5.52,15.74-6,21.46-.63,7.44,6.99,7.77,21.04-.24,28.27ZM298.35,550.79c3.59-7.27,2.13-19.2-4.43-18.6-6.86.63-5.9,13.95-3.92,19.11,2.29,2.37,6.59,3.04,8.35-.52Z"/><path class="cls-2" d="M455.88,553.34c5.83-.91.92-6.46,13.54-3.42-.63,6.98-5.92,9.73-12.11,10.22-5.65.44-11.88-.44-15.07-5.83-4.09-6.93-4.37-16.77.61-23.65,5.68-7.86,19.14-7.69,24.43.39,2.42,3.7,2.43,8.46,2.85,13.02l-21.08.21c.57,2.37,1.39,5.52,2.02,7.13.43,1.09,3.62,2.11,4.81,1.92ZM460.05,538.3c-.26-5.24-2.75-6.7-6.31-6.15-2.23.35-4.28,3.22-4.33,5.9l10.64.24Z"/><polygon class="cls-2" points="267.37 559.59 256.3 559.93 256.16 524.26 243.37 524.27 243.35 515.73 279.02 515.78 279.28 524.09 267.31 524.27 267.37 559.59"/><path class="cls-2" d="M361,550.46c.41,1.31,3.65,2.94,4.99,2.82,6.09-.53,1.28-5.94,13.65-3.74-2.45,8.82-9.19,11.5-16.75,10.66-7.16-.79-12.41-6.89-12.76-15.09-.22-5.21.1-11.38,3.84-15.51,6.23-6.87,18.9-6.2,23.78,1.91,2.18,3.62,1.71,8.45,1.6,12.63l-20.27.08,1.92,6.23ZM370.27,538.46c.51-4.44-1.91-6.57-5.45-6.41-3.14.14-5.25,2.98-4.42,6.61l9.87-.19Z"/><path class="cls-2" d="M396.89,560.21c-5.64.63-10.41-1.53-10.47-7l-.22-19.58h-3.41c-.86,0-.62-6.64.13-6.72l3.16-.32.4-7.8,8.68-1.78.55,9.66,5.34.43c1.36.11,1.38,4.39.92,5.67s-3.43.97-6.54,1.04l-.04,18.28,6.05,1.21c1.19.24.93,3.62.47,5-.39,1.15-2.72,1.66-5.02,1.91Z"/><path class="cls-2" d="M494.99,534.27c-3.54-1.43-9.58-.44-9.63,3.75l-.22,21.44-9.81-.14.04-33.49,7.08-.06c.94,0,2.29,2.67,2.89,3.61,1.94-3.79,5.95-5.5,9.82-3.6l-.16,8.49Z"/><path class="cls-2" d="M508,558.73c-1.18,4.62-6.07,7.24-10.87,6.12.57-1.34,1.66-3.33,2.63-4.91-3.03-2.01-3.22-7.17-1.78-11.03l10.39.55c.15,2.91.28,6.78-.36,9.27Z"/><path class="cls-2" d="M816.78,568.18c-6.66,2.4-22.49,3.17-23.67-5.66l8.59-1.2c2.84,2.37,5.48,2.84,9,1.74,2.18-.68,3.07-4.42,2.42-7.78-3.68,2.24-7.26,3.73-11.72,2.43-9.66-2.82-10.57-15.5-7.62-24.84,2.4-7.59,11.61-10.11,17.1-6.8.49.29,2.04,2.11,1.86,1.75s.95-2.38,1.35-2.39l9.29-.28-.13,33.06c-.01,3.7-3.11,8.73-6.47,9.94ZM813.23,546.04l.15-9.07c.03-1.51-2.18-4.23-3.49-4.92s-4.78-.32-5.53.94c-3.01,5.04-2.57,12.37.24,16.98.76,1.24,4.42,1.45,5.57.74s3.04-3.26,3.06-4.67Z"/><path class="cls-2" d="M903.41,558.81l-.14-25.55c-1.03-.69-3.91-1.22-5.07-1.01-1.35.25-3.78,2.4-3.78,3.88l-.12,22.97-9.97.03.03-43.97,9.86-.81.23,14.4c3.23-2.65,6.93-4.58,10.33-4.52,2.65.05,8.17,2.74,8.22,6.17l.42,28.37-10.01.04Z"/><path class="cls-2" d="M782.79,556.3c-5.83,4.55-15.91,4.78-21.42.03s-5.15-12.41-4.36-18.46c1.08-8.3,7.1-12.85,14.93-13.23,8.61-.42,15.26,4.66,16.15,13.72.6,6.09.47,13.42-5.31,17.94ZM777.64,535.81c-.24-1.79-3.2-4.01-4.8-4.01-7.74,0-7.38,12.77-4.59,18.65.61,1.29,4.05,2.05,5.38,1.76,5.41-1.17,4.65-11.57,4.01-16.4Z"/><path class="cls-2" d="M939.74,549.13c1.23-1.38,5.92-.59,7.62.3-.1,6.24-5.9,9.78-11.83,10.2-4.69.33-9.41-.56-12.74-3.4-7-5.96-6.72-23.01.89-28.68,5.55-4.13,14.56-4.15,19.9.44,4.24,3.65,4.82,9.69,4.61,15.04l-20.78.39c.61,2.89,1.23,5.9,2.23,7.24,2.63,3.52,7.64,1.24,10.09-1.53ZM938.35,537.93c.74-4.86-2.02-6.59-5.3-6.37-3.1.21-5.42,2.97-4.47,6.25l9.77.11Z"/><path class="cls-2" d="M746.74,558.94l-10.36-.21-.05-35.53h-13.04s.43-8.49.43-8.49l35.81-.17c.15,2.68.14,5.54-.02,8.47l-13.11.32.35,35.61Z"/><path class="cls-2" d="M840.71,551.18c6.65,4.99,7.07-5.34,17.07-2.45-.57,6.5-6.03,10.3-12.21,10.79-4.84.38-9.49-.74-12.6-3.63-3.78-3.51-4.69-8.43-4.8-13.65-.18-8.49,4.22-16.71,13.02-17.36,5.31-.39,10.31.49,13.69,4.28,2.87,3.22,4.48,9.69,2.78,13.92l-18.69.19c-1.54,1.86-.18,6.46,1.74,7.91ZM847.64,538.08c2.38-3.18-.6-6.98-3.76-6.76-2.45.17-4.74,2.44-5.51,6.52l9.27.24Z"/><path class="cls-2" d="M874.54,550.61c.33,1.18,4.21,1.5,5.33,2.06s.94,4.71-.06,5.57-3.4.92-5.48,1.11c-4.77.45-9.83-1.78-9.89-7.29l-.2-17.93c-1.68-.97-4.01-2.02-4.17-3.46-.21-1.94.65-5.35,4.06-4.69l.41-7.24,9.63-2.42.22,9.82,6.02.1-.28,6.51-5.87.85.27,17Z"/><path class="cls-2" d="M963.48,559.13l-9.51-.1-.43-33.47,9.1-.35.63,4.36c2.65-2.94,6.51-6.52,10.14-4.39,1.37,1.66,1.47,7.45-.06,8.54l-6.61.28c-1.5.06-3.34,3.71-3.33,5.41l.06,19.71Z"/><path class="cls-2" d="M597.35,558.99l-9.85-.09-.42-24.65c-.05-3.05-8.35-2.73-8.42.25l-.56,24.51-9.76-.04v-44.6s9.93-.22,9.93-.22l-.6,14.25c2.9-1.55,6.54-3.49,9.59-4.07,5.77-1.1,10.05,3.54,10.05,8.74l.03,25.9Z"/><polygon class="cls-2" points="553.76 558.99 542.78 558.85 542.61 523.15 530.47 523.11 530.35 514.2 564.76 514.2 565.36 523.07 553.25 523.15 553.76 558.99"/><path class="cls-2" d="M705.39,549.21c-.96,7.44-7.25,10.24-13.98,10.42-9.66.26-15.91-5.73-16.15-15.55-.15-6.09.61-12.84,6.25-16.79,4.06-2.84,10.59-3.34,15.47-1.59,7.27,2.61,9.81,10.77,7.93,17.37l-19.46.22c-.57,3.03.78,7.24,2.79,8.27,3.49,1.78,6.62.57,8.4-3.16l8.75.82ZM695.11,537.86c.47-.99.05-4.71-1.04-5.53-1.26-.95-5.04-.97-6.05.07-1.07,1.11-2.12,3.49-2.66,5.28l9.75.17Z"/><path class="cls-2" d="M664,525.34l9.76.2-9.42,33.21c-3.75.26-8.28.29-12.32.13l-9.21-33.16c3.13-.57,6.81-.55,9.77-.11l6.06,23.83,5.36-24.1Z"/><path class="cls-2" d="M613.72,558.85l-10.32.37-.04-34.01,9.83-.03-.17,4.39c2.88-3.79,6.05-6.47,10.61-4.18.39,2.15.19,6.13-.15,8.52-2.49-.27-4.43-.47-6.13-.34-1.56.12-3.62,3.47-3.62,5.26l-.02,20.03Z"/><polygon class="cls-2" points="639.42 559.03 629.37 558.98 629.32 525.8 639.19 525.58 639.42 559.03"/><path class="cls-2" d="M639.48,520.28c-1.69,2.41-7.24,2.53-9.42.98-1.39-.98-1.09-5.4.17-6.55,1.52-1.38,4.69-1.78,7.16-1.21,1.95.45,4.06,3.96,2.1,6.77Z"/><path class="cls-2" d="M88.97,558.15c-7.47,3.66-16.33,3.74-23.59.84-4.63-1.85-6.68-6.66-7.17-11.51l9.86-1.39c1.87,3.49,3.61,5.83,6.28,6.63,3.31.99,7.23.38,9.18-2.29s-.35-6.52-3.08-7.39l-11.57-3.65c-4.46-1.41-8.14-5.39-8.88-9.45-.87-4.72.84-10.08,5.29-12.85,7.04-4.39,17.16-5.12,24.09.11,3.04,2.29,3.95,6.82,4.72,10.72l-10.19.33c-.74-2.1-1.19-4.32-2.13-5.11-1.64-1.37-10.54-2.63-11.48,2.48-1.83,9.89,24.45,3.07,24.62,21.09.04,3.94-1.44,9.21-5.94,11.42Z"/><path class="cls-2" d="M207.39,552.64c6.68,4.53,6.32-6.11,17.36-1.93-.52,6.68-5.8,9.38-11.8,9.98-9.54.96-17.94-4.29-18.46-14.67-.22-4.37.5-10.09,2.86-14.08,5.12-8.66,18.45-9.21,24.57-1.33,2.85,3.66,3.19,9.03,3.54,13.6l-21.19.61c.41,3.36,1.43,6.66,3.12,7.81ZM215.05,539.26c.47-1.31-.22-4.45-1.4-5.9-.99-1.21-4.64-1.46-5.93-.36-1.09.93-1.96,3.08-2.72,5.67l10.05.59Z"/><polygon class="cls-2" points="183.05 526.73 192.82 526.6 183.53 560.11 171 560.22 162.13 526.74 171.48 526.67 177.43 550.27 183.05 526.73"/><path class="cls-2" d="M111.36,534.13l.04,18.6,5.4.75c1.3.18,1.03,4.02.62,5.26-.76,2.32-9.37,2.03-12.88-.02-1.55-.9-2.83-4.23-2.83-6.49v-17.15c-2.52-1.06-4.61-1.95-4.52-4.3.12-3.02,1.39-3.67,4.56-4.27l.13-8,9.26-.27.23,8.79,5.83-.31.06,7.26-5.9.17Z"/><path class="cls-2" d="M131.29,560.07l-9.92-.04-.04-33.3h8.87s1.19,3.91,1.19,3.91c1.62-3.34,5.91-6.37,8.97-4.38,1.92,1.25,2.08,7.94,0,8.64l-5.93.65c-1.44.16-3.01,3.13-3.02,4.84l-.13,19.69Z"/><path class="cls-2" d="M157.48,559.51c-2.63.56-6.42.61-9.6.3l.02-33.16,9.5-.25.07,33.11Z"/><path class="cls-2" d="M157.81,517.24c.81,1.1.2,4.49-.78,5.14-2.7,1.78-6.74,2.2-8.93.32-.93-.79-.93-4.09-.25-5.23,1.78-2.95,7.64-3.4,9.96-.24Z"/><path class="cls-3" d="M335.09,536.4c.4,4.47,1.51,16.01-5.24,15.74-1.5-.06-4.36-1.97-4.7-3.54-1.2-5.49-2.28-16.53,4.7-16.67,2.16-.04,5.03,1.98,5.25,4.47Z"/><path class="cls-3" d="M298.35,550.79c-1.76,3.56-6.06,2.89-8.35.52-1.98-5.16-2.95-18.48,3.92-19.11,6.56-.6,8.03,11.33,4.43,18.6Z"/><path class="cls-3" d="M460.05,538.3l-10.64-.24c.05-2.68,2.1-5.56,4.33-5.9,3.56-.55,6.05.91,6.31,6.15Z"/><path class="cls-3" d="M370.27,538.46l-9.87.19c-.83-3.62,1.28-6.46,4.42-6.61,3.54-.16,5.96,1.97,5.45,6.41Z"/><path class="cls-3" d="M813.23,546.04c-.02,1.41-1.91,3.96-3.06,4.67s-4.82.5-5.57-.74c-2.8-4.62-3.24-11.95-.24-16.98.75-1.26,4.24-1.62,5.53-.94s3.52,3.41,3.49,4.92l-.15,9.07Z"/><path class="cls-3" d="M777.64,535.81c.64,4.83,1.4,15.23-4.01,16.4-1.34.29-4.77-.47-5.38-1.76-2.79-5.88-3.15-18.64,4.59-18.65,1.61,0,4.57,2.22,4.8,4.01Z"/><path class="cls-3" d="M938.35,537.93l-9.77-.11c-.95-3.28,1.37-6.04,4.47-6.25,3.28-.22,6.04,1.51,5.3,6.37Z"/><path class="cls-3" d="M847.64,538.08l-9.27-.24c.77-4.08,3.06-6.35,5.51-6.52,3.16-.22,6.14,3.58,3.76,6.76Z"/><path class="cls-3" d="M695.11,537.86l-9.75-.17c.53-1.8,1.58-4.18,2.66-5.28,1.01-1.04,4.79-1.02,6.05-.07,1.09.82,1.5,4.54,1.04,5.53Z"/><path class="cls-3" d="M215.05,539.26l-10.05-.59c.75-2.59,1.62-4.74,2.72-5.67,1.3-1.1,4.95-.85,5.93.36,1.18,1.45,1.87,4.59,1.4,5.9Z"/><path d="M623.5,17.1s-.03.06-.03.09l.02-.08h.01Z"/></svg>